<svg xmlns="http://www.w3.org/2000/svg" viewBox="0 0 404.13 371"><defs><style>.cls-1{fill:#454445;}.cls-2{fill:#f05930;}.cls-3{fill:#009493;}.cls-4,.cls-6{fill:none;stroke-linecap:round;stroke-linejoin:round;stroke-width:4px;}.cls-4{stroke:#f05930;}.cls-5{fill:#00585e;}.cls-6{stroke:#00585e;}</style></defs><title>Asset 2</title><g id="Layer_2" data-name="Layer 2"><g id="Layer_1-2" data-name="Layer 1"><path class="cls-1" d="M128.86,261.5a2,2,0,0,1-2-1.63,10.35,10.35,0,0,1,1.82-8.34c4.87-6.68,17.07-8.25,17.58-8.31a2,2,0,0,1,.49,4c-.11,0-11,1.42-14.84,6.7a6.41,6.41,0,0,0-1.12,5.23,2,2,0,0,1-1.59,2.34A2.06,2.06,0,0,1,128.86,261.5Z"/><path class="cls-2" d="M132.9,273a2,2,0,0,1-1.85-1.24c-1.11-2.68-8.85-2.44-13.74-1.44a2,2,0,0,1-.8-3.92c2.56-.53,15.49-2.82,18.24,3.83A2,2,0,0,1,132.9,273Z"/><path class="cls-2" d="M137.61,283.17a2,2,0,0,1-1.85-1.24c-1.11-2.68-8.85-2.44-13.74-1.44a2,2,0,0,1-.8-3.92c2.56-.53,15.49-2.82,18.24,3.83a2,2,0,0,1-1.85,2.77Z"/><path class="cls-2" d="M143.43,293.35a2,2,0,0,1-1.85-1.24c-1.11-2.68-8.85-2.44-13.74-1.44a2,2,0,1,1-.8-3.92c2.56-.53,15.49-2.82,18.24,3.83a2,2,0,0,1-1.85,2.77Z"/><path class="cls-1" d="M150.18,321.76c-9.27,0-28-3.53-52.49-26.17-26.44-24.41-30.86-30.48-30.77-34.86.05-2.57,1.78-4,3.45-5.47l.11-.09L72,253.89c8.15-7.07,33-28.58,46.56-28.88,8.42-.17,9.54,3.59,10,7.47.27,2.5.4,3.64,4.22,3.89a2,2,0,0,1-.26,4c-7.18-.47-7.63-4.67-7.94-7.45s-.45-4-5.9-3.9c-8.07.18-22.88,9.57-44,27.9l-1.52,1.31-.11.09c-1.44,1.23-2,1.8-2,2.5-.08,3.76,11.73,15.44,29.48,31.84C130,320,150.59,318.1,154.71,317.38c4.56-8.44,5.82-14.47,3.54-17-3.7-4.12-17-.62-24.58,2.55a2,2,0,0,1-1.55-3.69c2.26-1,22.31-9.11,29.11-1.54,3.73,4.16,2.61,11.49-3.45,22.41a2,2,0,0,1-1.17.95A23.91,23.91,0,0,1,150.18,321.76Z"/><path class="cls-3" d="M87.76,231.17H32.09a2,2,0,1,1,0-4H87.76a2,2,0,0,1,0,4Z"/><path class="cls-2" d="M59.92,249.29H4.26a2,2,0,1,1,0-4H59.92a2,2,0,0,1,0,4Z"/><path class="cls-3" d="M57.67,267.42H2a2,2,0,0,1,0-4H57.67a2,2,0,0,1,0,4Z"/><path class="cls-2" d="M71.58,285.54H15.92a2,2,0,1,1,0-4H71.58a2,2,0,1,1,0,4Z"/><path class="cls-3" d="M91.14,279.76a2,2,0,0,1-1.48-3.35c4.79-5.24,6.95-10.31,6.42-15.05-.7-6.33-6-10.13-6.09-10.17a2,2,0,0,1,2.28-3.29c.28.19,6.85,4.82,7.78,13,.68,6-1.82,12.1-7.44,18.25A2,2,0,0,1,91.14,279.76Z"/><path class="cls-3" d="M349.48,316.63h-.6a2,2,0,0,1,.07-4h.54c12.75,0,26.38-7.78,35.7-20.41,14-19,13.92-43-.27-53.49s-37.15-3.49-51.18,15.55c-9,12.16-12.51,27.15-9.24,39.13a2,2,0,1,1-3.86,1.05c-3.63-13.33.06-29.24,9.88-42.55,15.35-20.81,40.82-28.16,56.78-16.39s16.46,38.28,1.11,59.09C378.34,308.23,363.48,316.63,349.48,316.63Z"/><path class="cls-2" d="M352.08,305.6a22.22,22.22,0,0,1-13.37-4.22c-12-8.81-12.37-28.6-.93-44.12a45.53,45.53,0,0,1,5-5.75,2,2,0,0,1,2.78,2.88,41.4,41.4,0,0,0-4.59,5.24c-10.13,13.74-10.09,31,.08,38.52s26.7,2.43,36.83-11.3c5-6.74,7.65-14.5,7.56-21.88-.09-7.16-2.8-13.07-7.65-16.65a17.21,17.21,0,0,0-3.75-2.1,2,2,0,0,1,1.5-3.71,21.24,21.24,0,0,1,4.62,2.58c5.88,4.33,9.17,11.37,9.27,19.82.1,8.24-2.86,16.87-8.34,24.3C373.41,299.71,362.21,305.59,352.08,305.6Z"/><path class="cls-3" d="M323.91,323.45a2,2,0,0,1-2-1.9L320.56,294a2,2,0,1,1,4-.2l1.23,25.07,9.74-2.5a2,2,0,0,1,1,3.88l-12.12,3.11A2,2,0,0,1,323.91,323.45Z"/><path class="cls-4" d="M308.91,335.53"/><path class="cls-1" d="M291.56,371A5.72,5.72,0,0,1,287,361.9l7.93-10.75h0l18.34-24.87a5.72,5.72,0,0,1,9.2,6.79l-26.27,35.62a5.67,5.67,0,0,1-3.75,2.25A5.83,5.83,0,0,1,291.56,371Zm6.56-17.48-7.93,10.75a1.72,1.72,0,0,0,2.76,2l26.27-35.62a1.73,1.73,0,0,0-.36-2.4,1.68,1.68,0,0,0-1.27-.31,1.7,1.7,0,0,0-1.12.67l-18.34,24.87Z"/><path class="cls-1" d="M160.46,188.6a2,2,0,0,1-.69-3.88L188.92,174a2,2,0,1,1,1.38,3.75l-29.15,10.71A2,2,0,0,1,160.46,188.6Z"/><path class="cls-1" d="M165.72,202.94a2,2,0,0,1-1.88-1.31l-2.28-6.21a2,2,0,0,1,1.19-2.57l18.16-6.67a2,2,0,1,1,1.38,3.75l-16.28,6,.9,2.46L203.3,185l-7.36-20a2,2,0,0,1,.1-1.61l7.73-15,4.27-9.23a5.13,5.13,0,0,0-9.31-4.31l-3.53,7.62a2,2,0,0,1-3.73-1.41,5.06,5.06,0,0,0-.08-3.21l-8.31-22.62a5.13,5.13,0,0,0-9.63,3.53h0a2,2,0,1,1-3.75,1.38v0l-3-8.27a5.13,5.13,0,0,0-9.63,3.54l3,8.28a2,2,0,1,1-3.75,1.38h0a5.13,5.13,0,0,0-9.63,3.54l4.3,11.7h0a2,2,0,0,1,.12.87h0a2,2,0,0,1-.33.89h0a2,2,0,0,1-1,.75,2,2,0,0,1-.35.09h-.12a2,2,0,0,1-2.09-1.3,5.64,5.64,0,0,0-7-3.17,5.13,5.13,0,0,0-3,6.58l10.69,29.1L161.69,185a2,2,0,1,1-2.47,3.14L145,177a2,2,0,0,1-.64-.88l-10.88-29.63a9.14,9.14,0,0,1,5.42-11.71,9.32,9.32,0,0,1,5.76-.17l-1.7-4.62a9.14,9.14,0,0,1,5.42-11.71,9,9,0,0,1,5.36-.28l-.44-1.2a9.13,9.13,0,1,1,17.14-6.29l.44,1.2a9.13,9.13,0,0,1,16,2.17l7.61,20.72.65-1.4a9.13,9.13,0,0,1,16.57,7.67l-4.31,9.31L200,164.41l7.75,21.1a2,2,0,0,1-1.19,2.57l-40.14,14.74A2,2,0,0,1,165.72,202.94Z"/><path class="cls-3" d="M167.33,151.19a2,2,0,0,1-1.88-1.31l-5.67-15.45a2,2,0,1,1,3.75-1.38l5.67,15.45a2,2,0,0,1-1.88,2.69Z"/><path class="cls-3" d="M154.65,158a2,2,0,0,1-1.88-1.31l-2.52-6.85a2,2,0,1,1,3.75-1.38l2.52,6.85a2,2,0,0,1-1.88,2.69Z"/><path class="cls-3" d="M180.39,146.39a2,2,0,0,1-1.88-1.31l-5.68-15.45a2,2,0,1,1,3.75-1.38l5.68,15.45a2,2,0,0,1-1.88,2.69Z"/><path class="cls-2" d="M161.51,176a3.67,3.67,0,0,1-3.45-2.4l-2.83-7.7a3.67,3.67,0,0,1,2.18-4.71l25.23-9.27a3.67,3.67,0,0,1,4.71,2.18l2.83,7.7a3.67,3.67,0,0,1-2.18,4.71h0l-25.23,9.26A3.65,3.65,0,0,1,161.51,176Zm-2.41-11.17,2.6,7.08,24.6-9-2.6-7.08Zm28.2-.19h0Zm-.69-1.88h0Z"/><path class="cls-1" d="M256,214.26a2,2,0,0,1-.84-.18L227,201a2,2,0,1,1,1.68-3.63l28.18,13a2,2,0,0,1-.84,3.82Z"/><path class="cls-1" d="M249.59,228.12a2,2,0,0,1-.84-.18l-38.81-18a2,2,0,0,1-1-2.66l9.44-20.4-6.14-14.77-3.57-9.7a9.13,9.13,0,1,1,17.14-6.29l.53,1.45,9.27-20a9.14,9.14,0,0,1,12.12-4.45,9,9,0,0,1,4,3.59l.54-1.16a9.13,9.13,0,0,1,16.57,7.67l-.54,1.16a9.12,9.12,0,0,1,9.77,12.84L276,161.68a9.4,9.4,0,0,1,5.73.63,9.15,9.15,0,0,1,4.45,12.12l-13.26,28.65a2,2,0,0,1-.71.83l-15.11,10a2,2,0,0,1-2.21-3.33l14.64-9.71,13-28.13a5.13,5.13,0,0,0-2.5-6.81,5.64,5.64,0,0,0-7.22,2.59,2,2,0,0,1-1.43,1.12,2,2,0,0,1-1-.07l-.18-.07A2,2,0,0,1,269,168h0a2,2,0,0,1,.17-1l5.24-11.32a5.13,5.13,0,0,0-9.31-4.31h0a2,2,0,0,1-3.63-1.68h0l3.71-8a5.13,5.13,0,1,0-9.31-4.31l-3.7,8h0a2,2,0,0,1-3.63-1.68h0a5.13,5.13,0,0,0-9.31-4.31l-10.12,21.87a5.06,5.06,0,0,0-.34,3.19,2,2,0,0,1-3.83,1.1l-2.89-7.88a5.13,5.13,0,0,0-9.63,3.54l3.54,9.63,6.45,15.51a2,2,0,0,1,0,1.61l-9,19.38,35.18,16.28,1.1-2.38L234,213.8a2,2,0,0,1,1.68-3.63l17.56,8.13a2,2,0,0,1,1,2.66l-2.78,6a2,2,0,0,1-1.82,1.16Z"/><path class="cls-3" d="M252.2,176.41a2,2,0,0,1-1.81-2.84l6.91-14.94a2,2,0,0,1,3.63,1.68L254,175.25A2,2,0,0,1,252.2,176.41Z"/><path class="cls-3" d="M264.29,184.24a2,2,0,0,1-1.81-2.84l3.07-6.62a2,2,0,0,1,3.63,1.68l-3.07,6.62A2,2,0,0,1,264.29,184.24Z"/><path class="cls-3" d="M239.57,170.56a2,2,0,0,1-1.81-2.84l6.91-14.94a2,2,0,0,1,3.63,1.68l-6.91,14.94A2,2,0,0,1,239.57,170.56Z"/><path class="cls-2" d="M256.11,201.61a3.66,3.66,0,0,1-1.53-.34L230.19,190a3.67,3.67,0,0,1-1.79-4.87l3.45-7.45a3.67,3.67,0,0,1,4.87-1.79l24.39,11.29a3.67,3.67,0,0,1,1.79,4.87l-3.45,7.45a3.64,3.64,0,0,1-2.06,1.9A3.69,3.69,0,0,1,256.11,201.61Zm.15-4h0ZM232.17,186.5l23.78,11,3.17-6.84-23.79-11Zm-.3-.14Z"/><path class="cls-1" d="M307.24,109.45a36.52,36.52,0,0,1-5.08-.36,36,36,0,1,1,33.75-57.34h0a36,36,0,0,1-28.68,57.7Zm-.14-68a32,32,0,1,0,25.63,12.75h0a31.8,31.8,0,0,0-21.11-12.43A32.52,32.52,0,0,0,307.1,41.42Z"/><path class="cls-1" d="M291.38,86a71.73,71.73,0,0,1-17.67-2.14,2,2,0,0,1,1.07-3.85c.17,0,17.39,4.71,33.67-.49a2,2,0,1,1,1.21,3.81A60.45,60.45,0,0,1,291.38,86Z"/><path class="cls-1" d="M296.75,103.84a50.25,50.25,0,0,1-10-.92,2,2,0,0,1,.86-3.91h0c.16,0,16.42,3.46,30.39-4.22a2,2,0,1,1,1.93,3.5A48.36,48.36,0,0,1,296.75,103.84Z"/><path class="cls-1" d="M335.65,94a2,2,0,0,1-2-1.76c0-.16-2-14.68-20-26.28a2,2,0,1,1,2.17-3.36c19.7,12.69,21.73,28.51,21.81,29.18A2,2,0,0,1,335.88,94Z"/><path class="cls-1" d="M341.16,76.05a2,2,0,0,1-1.92-1.43h0A34.8,34.8,0,0,0,321.1,55.14a2,2,0,1,1,1.67-3.63,38.19,38.19,0,0,1,20.3,22,2,2,0,0,1-1.92,2.57Z"/><path class="cls-1" d="M291.07,71.29a2,2,0,0,1-1.92-2.57c6.54-22,21.64-30.31,22.28-30.65a2,2,0,0,1,1.89,3.53c-.21.12-14.31,8-20.33,28.26A2,2,0,0,1,291.07,71.29Z"/><path class="cls-1" d="M279.85,68.08h-.05A2,2,0,0,1,277.85,66c.3-11.55,10.41-22.9,10.84-23.38a2,2,0,0,1,3,2.68c-.1.11-9.55,10.75-9.81,20.81A2,2,0,0,1,279.85,68.08Z"/><path class="cls-3" d="M323,32.4a2,2,0,0,1-1.21-3.6L357.71,1.75a2,2,0,0,1,2.41,3.19L324.23,32A2,2,0,0,1,323,32.4Z"/><path class="cls-2" d="M343.5,48.21a2,2,0,0,1-1.21-3.6L400.93.4a2,2,0,0,1,2.41,3.19L344.71,47.8A2,2,0,0,1,343.5,48.21Z"/><path class="cls-3" d="M353,72.1a2,2,0,0,1-1.21-3.6l46.81-35.29A2,2,0,0,1,401,36.4L354.16,71.69A2,2,0,0,1,353,72.1Z"/><path class="cls-1" d="M92.86,108.57a2,2,0,0,1-.49-.06L57.94,99.78a2,2,0,0,1,1-3.88l34.43,8.72a2,2,0,0,1-.49,3.94Z"/><path class="cls-3" d="M96.41,99a2,2,0,0,1-1.79-2.89c2.38-4.8,5.8-10.83,10.18-17.94C120,52.61,99,27.53,91.56,19.9l-1.31,5.16a2,2,0,0,1-1.81,1.5L82.12,27a2,2,0,0,1-.25-4l4.86-.3,1.8-7.1a2,2,0,0,1,3.26-1c.37.32,36.29,32.35,16.42,65.68-4.33,7-7.69,13-10,17.65A2,2,0,0,1,96.41,99Z"/><path class="cls-3" d="M79.53,63.92c-2.91,0-7.82-.83-13.35-5.25-3.42,1.11-13.09,3.68-17.85-1-3-3-3.29-8-.78-15a2,2,0,0,1,1-1.12c.18-.09,17.73-8.83,21.55-11.64a2,2,0,1,1,2.37,3.22c-3.68,2.7-18,9.9-21.41,11.63-1.2,3.6-2,8,.09,10.08,3.15,3.1,11.92.79,14.75-.27a2,2,0,0,1,2,.36c7.32,6.31,13.09,4.93,13.33,4.87a2,2,0,0,1,2.44,1.42,2,2,0,0,1-1.39,2.44A11,11,0,0,1,79.53,63.92Z"/><path class="cls-1" d="M95.07,127a2,2,0,0,1-.49-.06L41.1,113.39a2,2,0,0,1-1.44-2.46l3-11.3a2,2,0,0,1,.91-1.2l5.53-3.29a8,8,0,0,1-1.33-4.43c0-6.64,7.38-14.56,22-23.55a2,2,0,1,1,2.09,3.41c-17.41,10.69-20.07,17.15-20.11,20a3.89,3.89,0,0,0,1.57,3.27,2,2,0,0,1,.92,1.73,2,2,0,0,1-1,1.69l-7,4.16L44.05,110l49.52,12.55,1.94-8.73-4.29-6.11a2,2,0,0,1,3.28-2.3l4.79,6.83a2,2,0,0,1,.31,1.58L97,125.44a2,2,0,0,1-2,1.57Z"/><path class="cls-3" d="M87.67,37.63a2,2,0,0,1-.49-.06L70.79,33.41a2,2,0,0,1,1-3.88l16.38,4.15a2,2,0,0,1-.49,3.94Z"/><path class="cls-2" d="M94,84.74a2,2,0,0,1-1.56-3.24c14.23-17.9,8-29.47,7.89-29.58a2,2,0,0,1,3.48-2c.32.56,7.65,14.06-8.24,34A2,2,0,0,1,94,84.74Z"/><path class="cls-1" d="M196.2,29a2,2,0,0,1-1.41-.59l-9.54-9.54a2,2,0,0,1,2.83-2.83l9.54,9.54A2,2,0,0,1,196.2,29Z"/><path class="cls-1" d="M218.26,51.07a2,2,0,0,1-1.41-.59l-9.54-9.54a2,2,0,0,1,2.83-2.83l9.54,9.54a2,2,0,0,1-1.41,3.41Z"/><path class="cls-3" d="M186.66,51.07a2,2,0,0,1-1.41-3.41l9.54-9.54a2,2,0,0,1,2.83,2.83l-9.54,9.54A2,2,0,0,1,186.66,51.07Z"/><path class="cls-3" d="M208.73,29a2,2,0,0,1-1.41-3.41l9.54-9.54a2,2,0,0,1,2.83,2.83l-9.54,9.54A2,2,0,0,1,208.73,29Z"/><path class="cls-2" d="M190.45,35.27H172.17a2,2,0,0,1,0-4h18.29a2,2,0,0,1,0,4Z"/><path class="cls-2" d="M232.76,35.27H214.47a2,2,0,0,1,0-4h18.29a2,2,0,0,1,0,4Z"/><path class="cls-5" d="M202.46,65.56a2,2,0,0,1-2-2V45.27a2,2,0,0,1,4,0V63.56A2,2,0,0,1,202.46,65.56Z"/><path class="cls-5" d="M202.46,23.26a2,2,0,0,1-2-2V3a2,2,0,1,1,4,0V21.26A2,2,0,0,1,202.46,23.26Z"/><path class="cls-1" d="M84.33,341.7a2,2,0,0,1-1.41-.59l-5.06-5.06a2,2,0,0,1,2.83-2.83l5.06,5.06a2,2,0,0,1-1.41,3.41Z"/><path class="cls-1" d="M96,353.42a2,2,0,0,1-1.41-.59l-5.06-5.06a2,2,0,0,1,2.83-2.83L97.46,350A2,2,0,0,1,96,353.42Z"/><path class="cls-3" d="M79.26,353.42A2,2,0,0,1,77.85,350l5.06-5.06a2,2,0,0,1,2.83,2.83l-5.06,5.06A2,2,0,0,1,79.26,353.42Z"/><path class="cls-3" d="M91,341.7a2,2,0,0,1-1.41-3.41l5.06-5.06a2,2,0,0,1,2.83,2.83l-5.06,5.06A2,2,0,0,1,91,341.7Z"/><path class="cls-2" d="M80.17,345H68.37a2,2,0,0,1,0-4h11.8a2,2,0,0,1,0,4Z"/><path class="cls-2" d="M107.48,345H95.67a2,2,0,0,1,0-4h11.8a2,2,0,0,1,0,4Z"/><path class="cls-5" d="M87.92,364.51a2,2,0,0,1-2-2v-11.8a2,2,0,0,1,4,0v11.8A2,2,0,0,1,87.92,364.51Z"/><path class="cls-5" d="M87.92,337.2a2,2,0,0,1-2-2V323.4a2,2,0,0,1,4,0v11.8A2,2,0,0,1,87.92,337.2Z"/><path class="cls-1" d="M58.4,162.85a2,2,0,0,1-2-2v-12.7a2,2,0,0,1,4,0v12.7A2,2,0,0,1,58.4,162.85Z"/><path class="cls-1" d="M58.4,192.23a2,2,0,0,1-2-2v-12.7a2,2,0,0,1,4,0v12.7A2,2,0,0,1,58.4,192.23Z"/><path class="cls-3" d="M50.06,171.19H37.36a2,2,0,0,1,0-4h12.7a2,2,0,0,1,0,4Z"/><path class="cls-3" d="M79.43,171.19H66.73a2,2,0,0,1,0-4h12.7a2,2,0,0,1,0,4Z"/><path class="cls-2" d="M54.46,167.26a2,2,0,0,1-1.41-.59l-6-6a2,2,0,0,1,2.83-2.83l6,6a2,2,0,0,1-1.41,3.41Z"/><path class="cls-2" d="M68.31,181.1a2,2,0,0,1-1.41-.59l-6-6a2,2,0,0,1,2.83-2.83l6,6a2,2,0,0,1-1.41,3.41Z"/><path class="cls-5" d="M48.48,181.1a2,2,0,0,1-1.41-3.41l6-6a2,2,0,0,1,2.83,2.83l-6,6A2,2,0,0,1,48.48,181.1Z"/><path class="cls-5" d="M62.33,167.26a2,2,0,0,1-1.41-3.41l6-6a2,2,0,0,1,2.83,2.83l-6,6A2,2,0,0,1,62.33,167.26Z"/><path class="cls-3" d="M255.8,278.33a2,2,0,0,1-1.29-.47,26.41,26.41,0,0,0-13.9-6.06,2,2,0,1,1,.48-4,30.4,30.4,0,0,1,16,7,2,2,0,0,1-1.29,3.53Z"/><path class="cls-1" d="M209.15,295.93l-.3,0a2,2,0,0,1-1.69-2.27,30.46,30.46,0,0,1,17.38-23.22,2,2,0,0,1,1.68,3.63,26.47,26.47,0,0,0-15.11,20.17A2,2,0,0,1,209.15,295.93Z"/><path class="cls-3" d="M237.39,328.71A30.55,30.55,0,0,1,208.46,308a2,2,0,0,1,3.79-1.29,26.6,26.6,0,0,0,32.6,16.93,2,2,0,0,1,1.12,3.84A30.64,30.64,0,0,1,237.39,328.71Z"/><path class="cls-6" d="M245.41,325.57"/><path class="cls-2" d="M257.58,320.35a2,2,0,0,1-1.41-3.41,26.58,26.58,0,0,0,5.22-30.16,2,2,0,1,1,3.61-1.72,30.58,30.58,0,0,1-6,34.7A2,2,0,0,1,257.58,320.35Z"/><path class="cls-3" d="M211.85,272.64a2,2,0,0,1-1.36-3.47,39.67,39.67,0,0,1,16.16-9.09,2,2,0,1,1,1.08,3.85,35.67,35.67,0,0,0-14.53,8.17A2,2,0,0,1,211.85,272.64Z"/><path class="cls-5" d="M200.49,307.12a2,2,0,0,1-2-1.63,39.71,39.71,0,0,1,3.89-25.8,2,2,0,0,1,3.54,1.87,35.71,35.71,0,0,0-3.49,23.19,2,2,0,0,1-2,2.37Z"/><path class="cls-5" d="M228.31,336.6a2,2,0,0,1-.48-.06,39.17,39.17,0,0,1-15-7.39,2,2,0,1,1,2.49-3.13,35.18,35.18,0,0,0,13.47,6.64,2,2,0,0,1-.48,3.94Z"/><path class="cls-5" d="M261.77,328.72a2,2,0,0,1-1.3-3.52,35.71,35.71,0,0,0,10.13-14.34,2,2,0,0,1,3.74,1.43,39.72,39.72,0,0,1-11.27,15.95A2,2,0,0,1,261.77,328.72Z"/><path class="cls-5" d="M270.61,282.63a2,2,0,0,1-1.77-1.06,35.89,35.89,0,0,0-10.93-12.44,2,2,0,1,1,2.31-3.26,39.89,39.89,0,0,1,12.15,13.83,2,2,0,0,1-1.77,2.94Z"/><path class="cls-1" d="M237.39,319.46a21.16,21.16,0,0,1-8.12-1.6,2,2,0,1,1,1.53-3.7,17.32,17.32,0,0,0,18.56-3.51,2,2,0,0,1,2.77,2.89A21.2,21.2,0,0,1,237.39,319.46Z"/><path class="cls-5" d="M256.08,305a2,2,0,0,1-.5-.06,2,2,0,0,1-1.44-2.44,17.34,17.34,0,0,0-3.37-15.32,2,2,0,0,1,3.09-2.54A21.35,21.35,0,0,1,258,303.51,2,2,0,0,1,256.08,305Z"/><path class="cls-6" d="M252.31,285.92"/><path class="cls-2" d="M220.43,309.37a2,2,0,0,1-1.76-1,21.31,21.31,0,0,1,23.54-30.92,2,2,0,0,1-.9,3.9,17.31,17.31,0,0,0-19.12,25.11,2,2,0,0,1-1.75,3Z"/><path class="cls-3" d="M376,159.79a2,2,0,0,1-1.29-.47,17.1,17.1,0,0,0-9-3.92,2,2,0,0,1,.48-4,21.1,21.1,0,0,1,11.1,4.84,2,2,0,0,1-1.29,3.53Z"/><path class="cls-1" d="M344.62,171.63l-.3,0a2,2,0,0,1-1.69-2.27,21.13,21.13,0,0,1,12.06-16.11,2,2,0,1,1,1.68,3.63,17.14,17.14,0,0,0-9.79,13.07A2,2,0,0,1,344.62,171.63Z"/><path class="cls-3" d="M363.61,193.67a21.2,21.2,0,0,1-20.08-14.36,2,2,0,0,1,3.79-1.29,17.23,17.23,0,0,0,21.12,11,2,2,0,0,1,1.12,3.84A21.24,21.24,0,0,1,363.61,193.67Z"/><path class="cls-6" d="M369,190.9"/><path class="cls-2" d="M377.19,188a2,2,0,0,1-1.41-3.41,17.22,17.22,0,0,0,3.38-19.54,2,2,0,1,1,3.61-1.72,21.22,21.22,0,0,1-4.17,24.08A2,2,0,0,1,377.19,188Z"/><path class="cls-3" d="M346.43,156a2,2,0,0,1-1.36-3.47,27.34,27.34,0,0,1,11.14-6.26,2,2,0,0,1,1.08,3.85,23.31,23.31,0,0,0-9.5,5.34A2,2,0,0,1,346.43,156Z"/><path class="cls-5" d="M338.79,179.15a2,2,0,0,1-2-1.63,27.36,27.36,0,0,1,2.68-17.77,2,2,0,0,1,3.54,1.87,23.36,23.36,0,0,0-2.29,15.17,2,2,0,0,1-2,2.37Z"/><path class="cls-5" d="M357.5,199a2,2,0,0,1-.48-.06,27,27,0,0,1-10.33-5.09,2,2,0,1,1,2.49-3.13A23,23,0,0,0,358,195a2,2,0,0,1-.48,3.94Z"/><path class="cls-5" d="M380,193.67a2,2,0,0,1-1.3-3.52,23.35,23.35,0,0,0,6.63-9.38,2,2,0,0,1,3.74,1.43,27.37,27.37,0,0,1-7.77,11A2,2,0,0,1,380,193.67Z"/><path class="cls-5" d="M385.94,162.68a2,2,0,0,1-1.77-1.06,23.45,23.45,0,0,0-7.15-8.13,2,2,0,1,1,2.31-3.26,27.47,27.47,0,0,1,8.37,9.53,2,2,0,0,1-1.77,2.94Z"/><path class="cls-1" d="M363.61,187.44a14.89,14.89,0,0,1-5.71-1.13,2,2,0,0,1,1.53-3.7,11,11,0,0,0,11.78-2.23,2,2,0,0,1,2.77,2.89A14.91,14.91,0,0,1,363.61,187.44Z"/><path class="cls-5" d="M376.17,177.73a2,2,0,0,1-1.94-2.5,11,11,0,0,0-2.14-9.72,2,2,0,0,1,3.09-2.54,15,15,0,0,1,2.92,13.26A2,2,0,0,1,376.17,177.73Z"/><path class="cls-6" d="M373.64,164.24"/><path class="cls-2" d="M352.21,180.66a2,2,0,0,1-1.76-1A15,15,0,0,1,367,157.88a2,2,0,1,1-.9,3.9A11,11,0,0,0,354,177.71a2,2,0,0,1-1.75,3Z"/></g></g></svg>