<?xml version="1.0" encoding="utf-8"?>
<!-- Generator: Adobe Illustrator 22.0.1, SVG Export Plug-In . SVG Version: 6.00 Build 0)  -->
<svg version="1.1" id="Layer_1" xmlns="http://www.w3.org/2000/svg" xmlns:xlink="http://www.w3.org/1999/xlink" x="0px" y="0px"
	 viewBox="0 0 167.7 174" style="enable-background:new 0 0 167.7 174;" xml:space="preserve">
<style type="text/css">
	.st0{fill:#F05930;}
	.st1{fill:#00585E;}
	.st2{fill:#009494;}
</style>
<g>
	<g>
		<g>
			<path class="st0" d="M72.6,59.7c-0.4,0-1.4-1.1-2.1-1.9c-2-2.2-5.1-5.6-10.4-5.6c-5.2,0-6.2,1.4-6.2,2.5c0,0.7,0.6,1.2,1.2,1.2
				c0.5,0,0.9-0.3,1.1-0.7c0.2-0.1,1.2-0.5,3.9-0.5c4.2,0,6.6,2.7,8.6,4.8c1.4,1.5,2.4,2.7,3.9,2.7h16.2c0.7,0,1.2-0.6,1.2-1.2
				c0-0.7-0.6-1.2-1.2-1.2H72.6z M72.6,59.7"/>
			<path class="st0" d="M75.9,19.7c0.1,0.2,0.5,1.2,0.5,3.9c0,4.2-2.7,6.6-4.8,8.6c-1.5,1.4-2.7,2.4-2.7,3.9v16.2
				c0,0.7,0.6,1.2,1.2,1.2c0.7,0,1.2-0.6,1.2-1.2V36c0-0.4,1.1-1.4,1.9-2.1c2.2-2,5.6-5.1,5.6-10.4c0-5.2-1.4-6.2-2.5-6.2
				c-0.7,0-1.2,0.6-1.2,1.2C75.1,19,75.4,19.5,75.9,19.7L75.9,19.7z M75.9,19.7"/>
			<path class="st0" d="M46.4,33.5c0,0.7,0.6,1.2,1.2,1.2h6.1c0.1,0.5,0.2,0.9,0.2,1.2v12.5c0,0.7,0.6,1.2,1.2,1.2
				c0.7,0,1.2-0.6,1.2-1.2V36c0-1.3-0.5-3-1.1-4.9c-0.6-2.1-1.4-4.4-1.4-6.3V13.5c0-0.7,0.6-1.2,1.2-1.2c0.7,0,1.2,0.6,1.2,1.2
				c0,0.7,0.6,1.2,1.2,1.2c0.7,0,1.2-0.6,1.2-1.2c0-0.7,0.6-1.2,1.2-1.2c0.7,0,1.2,0.6,1.2,1.2c0,0.7,0.6,1.2,1.2,1.2
				c0.7,0,1.2-0.6,1.2-1.2c0-0.7,0.6-1.2,1.2-1.2c0.7,0,1.2,0.6,1.2,1.2c0,0.7,0.6,1.2,1.2,1.2c0.7,0,1.2-0.6,1.2-1.2
				c0-0.7,0.6-1.2,1.2-1.2c0.7,0,1.2,0.6,1.2,1.2v10c0,0.7,0.6,1.2,1.2,1.2c0.7,0,1.2-0.6,1.2-1.2v-10c0-2.1-1.7-3.7-3.7-3.7
				c-1,0-1.8,0.4-2.5,1c-0.7-0.6-1.5-1-2.5-1c-1,0-1.8,0.4-2.5,1c-0.7-0.6-1.5-1-2.5-1c-1,0-1.8,0.4-2.5,1c-0.7-0.6-1.5-1-2.5-1
				c-2.1,0-3.7,1.7-3.7,3.7v3.7h-3.7c-0.7,0-1.2,0.6-1.2,1.2c0,0.7,0.6,1.2,1.2,1.2h3.7v5c0,2.2,0.8,4.8,1.5,7.1
				c0,0.1,0.1,0.3,0.1,0.4h-5.4C47,32.3,46.4,32.8,46.4,33.5L46.4,33.5z M46.4,33.5"/>
			<path class="st0" d="M97.1,36.6c2,2.2,5.1,5.6,10.4,5.6c5.2,0,6.2-1.4,6.2-2.5c0-0.7-0.6-1.2-1.2-1.2c-0.5,0-0.9,0.3-1.1,0.7
				c-0.2,0.1-1.2,0.5-3.9,0.5c-4.2,0-6.6-2.7-8.6-4.8c-1.4-1.5-2.4-2.7-3.9-2.7H78.9c-0.7,0-1.2,0.6-1.2,1.2c0,0.7,0.6,1.2,1.2,1.2
				h16.2C95.4,34.7,96.5,35.9,97.1,36.6L97.1,36.6z M97.1,36.6"/>
			<path class="st0" d="M85.1,74.6H72.6c-1.3,0-3,0.5-4.9,1.1c-2.1,0.6-4.4,1.4-6.3,1.4H50.2c-0.7,0-1.2-0.6-1.2-1.2
				c0-0.7,0.6-1.2,1.2-1.2c0.7,0,1.2-0.6,1.2-1.2c0-0.7-0.6-1.2-1.2-1.2c-0.7,0-1.2-0.6-1.2-1.2s0.6-1.2,1.2-1.2
				c0.7,0,1.2-0.6,1.2-1.2c0-0.7-0.6-1.2-1.2-1.2c-0.7,0-1.2-0.6-1.2-1.2s0.6-1.2,1.2-1.2c0.7,0,1.2-0.6,1.2-1.2
				c0-0.7-0.6-1.2-1.2-1.2c-0.7,0-1.2-0.6-1.2-1.2c0-0.7,0.6-1.2,1.2-1.2h10c0.7,0,1.2-0.6,1.2-1.2c0-0.7-0.6-1.2-1.2-1.2h-10
				c-2.1,0-3.7,1.7-3.7,3.7c0,1,0.4,1.8,1,2.5c-0.6,0.7-1,1.5-1,2.5s0.4,1.8,1,2.5c-0.6,0.7-1,1.5-1,2.5s0.4,1.8,1,2.5
				c-0.6,0.7-1,1.5-1,2.5c0,2.1,1.7,3.7,3.7,3.7h3.7v3.7c0,0.7,0.6,1.2,1.2,1.2c0.7,0,1.2-0.6,1.2-1.2v-3.7h5c2.2,0,4.8-0.8,7.1-1.5
				c0.1,0,0.3-0.1,0.4-0.1v5.4c0,0.7,0.6,1.2,1.2,1.2c0.7,0,1.2-0.6,1.2-1.2v-6.1c0.5-0.1,0.9-0.2,1.2-0.2h12.5
				c0.7,0,1.2-0.6,1.2-1.2C86.3,75.2,85.8,74.6,85.1,74.6L85.1,74.6z M85.1,74.6"/>
			<path class="st0" d="M120.3,21c0.6-0.7,1-1.5,1-2.5c0-2.1-1.7-3.7-3.7-3.7h-3.7v-3.7c0-0.7-0.6-1.2-1.2-1.2
				c-0.7,0-1.2,0.6-1.2,1.2v3.7h-5c-2.2,0-4.8,0.8-7.1,1.5c-0.1,0-0.3,0.1-0.4,0.1v-5.4c0-0.7-0.6-1.2-1.2-1.2
				c-0.7,0-1.2,0.6-1.2,1.2v6.1c-0.5,0.1-0.9,0.2-1.2,0.2H82.6c-0.7,0-1.2,0.6-1.2,1.2c0,0.7,0.6,1.2,1.2,1.2h12.5
				c1.3,0,3-0.5,4.9-1.1c2.1-0.6,4.4-1.4,6.3-1.4h11.2c0.7,0,1.2,0.6,1.2,1.2c0,0.7-0.6,1.2-1.2,1.2c-0.7,0-1.2,0.6-1.2,1.2
				c0,0.7,0.6,1.2,1.2,1.2c0.7,0,1.2,0.6,1.2,1.2c0,0.7-0.6,1.2-1.2,1.2c-0.7,0-1.2,0.6-1.2,1.2c0,0.7,0.6,1.2,1.2,1.2
				c0.7,0,1.2,0.6,1.2,1.2c0,0.7-0.6,1.2-1.2,1.2c-0.7,0-1.2,0.6-1.2,1.2c0,0.7,0.6,1.2,1.2,1.2c0.7,0,1.2,0.6,1.2,1.2
				c0,0.7-0.6,1.2-1.2,1.2h-10c-0.7,0-1.2,0.6-1.2,1.2c0,0.7,0.6,1.2,1.2,1.2h10c2.1,0,3.7-1.7,3.7-3.7c0-1-0.4-1.8-1-2.5
				c0.6-0.7,1-1.5,1-2.5c0-1-0.4-1.8-1-2.5c0.6-0.7,1-1.5,1-2.5C121.3,22.6,120.9,21.7,120.3,21L120.3,21z M120.3,21"/>
			<path class="st0" d="M91.8,74.8c-0.1-0.2-0.5-1.2-0.5-3.9c0-4.2,2.7-6.6,4.8-8.6c1.5-1.4,2.7-2.4,2.7-3.9V42.2
				c0-0.7-0.6-1.2-1.2-1.2c-0.7,0-1.2,0.6-1.2,1.2v16.2c0,0.4-1.1,1.4-1.9,2.1c-2.2,2-5.6,5.1-5.6,10.4c0,5.2,1.4,6.2,2.5,6.2
				c0.7,0,1.2-0.6,1.2-1.2C92.6,75.4,92.3,74.9,91.8,74.8L91.8,74.8z M91.8,74.8"/>
			<path class="st0" d="M121.3,60.9c0-0.7-0.6-1.2-1.2-1.2H114c-0.1-0.5-0.2-0.9-0.2-1.2V46c0-0.7-0.6-1.2-1.2-1.2
				c-0.7,0-1.2,0.6-1.2,1.2v12.5c0,1.3,0.5,3,1.1,4.9c0.6,2.1,1.4,4.4,1.4,6.3v11.2c0,0.7-0.6,1.2-1.2,1.2c-0.7,0-1.2-0.6-1.2-1.2
				c0-0.7-0.6-1.2-1.2-1.2c-0.7,0-1.2,0.6-1.2,1.2c0,0.7-0.6,1.2-1.2,1.2c-0.7,0-1.2-0.6-1.2-1.2c0-0.7-0.6-1.2-1.2-1.2
				c-0.7,0-1.2,0.6-1.2,1.2c0,0.7-0.6,1.2-1.2,1.2c-0.7,0-1.2-0.6-1.2-1.2c0-0.7-0.6-1.2-1.2-1.2c-0.7,0-1.2,0.6-1.2,1.2
				c0,0.7-0.6,1.2-1.2,1.2c-0.7,0-1.2-0.6-1.2-1.2v-10c0-0.7-0.6-1.2-1.2-1.2c-0.7,0-1.2,0.6-1.2,1.2v10c0,2.1,1.7,3.7,3.7,3.7
				c1,0,1.8-0.4,2.5-1c0.7,0.6,1.5,1,2.5,1s1.8-0.4,2.5-1c0.7,0.6,1.5,1,2.5,1c1,0,1.8-0.4,2.5-1c0.7,0.6,1.5,1,2.5,1
				c2.1,0,3.7-1.7,3.7-3.7v-3.7h3.7c0.7,0,1.2-0.6,1.2-1.2c0-0.7-0.6-1.2-1.2-1.2h-3.7v-5c0-2.2-0.8-4.8-1.5-7.1
				c0-0.1-0.1-0.3-0.1-0.4h5.4C120.7,62.2,121.3,61.6,121.3,60.9L121.3,60.9z M121.3,60.9"/>
		</g>
		<g>
			<g>
				<g>
					<g>
						<g>
							<path class="st1" d="M27.7,89.3c4.2-0.1,7.7,2.3,7.7,2.3s-3.3,2.7-7.5,2.8s-7.7-2.3-7.7-2.3S23.5,89.4,27.7,89.3z"/>
							<path class="st1" d="M34.2,82.5c2.2,3.6,1.9,7.8,1.9,7.8s-4-1.5-6.2-5.1S28,77.5,28,77.5S31.9,79,34.2,82.5z"/>
						</g>
					</g>
					<g>
						<g>
							<path class="st1" d="M18,80c4.1,0.9,6.8,4.2,6.8,4.2s-3.9,1.7-8,0.8S10,80.8,10,80.8S13.9,79.1,18,80z"/>
							<path class="st1" d="M26,75.2c1.2,4-0.2,8-0.2,8s-3.5-2.5-4.7-6.5c-1.2-4,0.2-8,0.2-8S24.8,71.2,26,75.2z"/>
						</g>
					</g>
					<g>
						<g>
							<path class="st1" d="M11.1,68.6c3.7,2,5.5,5.8,5.5,5.8s-4.2,0.7-7.9-1.3s-5.5-5.8-5.5-5.8S7.3,66.6,11.1,68.6z"/>
							<path class="st1" d="M20,66c0.1,4.2-2.3,7.7-2.3,7.7s-2.7-3.3-2.8-7.5s2.3-7.7,2.3-7.7S19.9,61.8,20,66z"/>
						</g>
					</g>
					<g>
						<g>
							<path class="st1" d="M7.3,55.7c3.1,2.9,3.8,7.1,3.8,7.1s-4.3-0.5-7.3-3.3S0,52.5,0,52.5S4.2,52.9,7.3,55.7z"/>
							<path class="st1" d="M16.6,55.6c-0.9,4.1-4.2,6.8-4.2,6.8s-1.7-3.9-0.8-8s4.2-6.8,4.2-6.8S17.6,51.5,16.6,55.6z"/>
						</g>
					</g>
					<g>
						<g>
							<path class="st1" d="M7,42.4c2.2,3.6,1.9,7.8,1.9,7.8s-4-1.5-6.2-5.1c-2.2-3.6-1.8-7.8-1.8-7.8S4.8,38.8,7,42.4z"/>
							<path class="st1" d="M16.1,44.6c-2,3.7-5.8,5.5-5.8,5.5s-0.7-4.2,1.3-7.9s5.8-5.5,5.8-5.5S18,40.9,16.1,44.6z"/>
						</g>
					</g>
					<g>
						<g>
							<path class="st1" d="M10.2,29.4c1.2,4-0.2,8-0.2,8s-3.5-2.5-4.7-6.5s0.2-8,0.2-8S8.9,25.4,10.2,29.4z"/>
							<path class="st1" d="M18.3,33.9c-2.9,3.1-7.1,3.8-7.1,3.8s0.5-4.3,3.3-7.3s7.1-3.8,7.1-3.8S21.2,30.8,18.3,33.9z"/>
						</g>
					</g>
					<g>
						<g>
							<path class="st1" d="M16.6,17.6c0.1,4.2-2.3,7.7-2.3,7.7s-2.7-3.3-2.8-7.5s2.3-7.7,2.3-7.7S16.5,13.4,16.6,17.6z"/>
							<path class="st1" d="M23.3,24.1c-3.6,2.2-7.8,1.9-7.8,1.9s1.5-4,5.1-6.2s7.8-1.8,7.8-1.8S26.9,21.9,23.3,24.1z"/>
						</g>
					</g>
					<g>
						<g>
							<path class="st1" d="M25.8,8c-0.9,4.1-4.2,6.8-4.2,6.8s-1.7-3.9-0.8-8C21.8,2.7,25,0,25,0S26.8,3.9,25.8,8z"/>
							<path class="st1" d="M30.7,16c-4,1.2-8-0.2-8-0.2s2.5-3.5,6.5-4.7s8,0.2,8,0.2S34.7,14.7,30.7,16z"/>
						</g>
					</g>
				</g>
				<g>
					<g>
						<g>
							<path class="st1" d="M140,89.3c-4.2-0.1-7.7,2.3-7.7,2.3s3.3,2.7,7.5,2.8c4.2,0.1,7.7-2.3,7.7-2.3S144.2,89.4,140,89.3z"/>
							<path class="st1" d="M133.5,82.5c-2.2,3.6-1.9,7.8-1.9,7.8s4-1.5,6.2-5.1s1.8-7.8,1.8-7.8S135.8,79,133.5,82.5z"/>
						</g>
					</g>
					<g>
						<g>
							<path class="st1" d="M149.7,80c-4.1,0.9-6.8,4.2-6.8,4.2s3.9,1.7,8,0.8s6.8-4.2,6.8-4.2S153.8,79.1,149.7,80z"/>
							<path class="st1" d="M141.7,75.2c-1.2,4,0.2,8,0.2,8s3.5-2.5,4.7-6.5c1.2-4-0.2-8-0.2-8S142.9,71.2,141.7,75.2z"/>
						</g>
					</g>
					<g>
						<g>
							<path class="st1" d="M156.7,68.6c-3.7,2-5.5,5.8-5.5,5.8s4.2,0.7,7.9-1.3s5.5-5.8,5.5-5.8S160.4,66.6,156.7,68.6z"/>
							<path class="st1" d="M147.7,66c-0.1,4.2,2.3,7.7,2.3,7.7s2.7-3.3,2.8-7.5s-2.3-7.7-2.3-7.7S147.8,61.8,147.7,66z"/>
						</g>
					</g>
					<g>
						<g>
							<path class="st1" d="M160.4,55.7c-3.1,2.9-3.8,7.1-3.8,7.1s4.3-0.5,7.3-3.3c3.1-2.9,3.8-7.1,3.8-7.1S163.5,52.9,160.4,55.7z"
								/>
							<path class="st1" d="M151.1,55.6c0.9,4.1,4.2,6.8,4.2,6.8s1.7-3.9,0.8-8c-0.9-4.1-4.2-6.8-4.2-6.8S150.1,51.5,151.1,55.6z"/>
						</g>
					</g>
					<g>
						<g>
							<path class="st1" d="M160.7,42.4c-2.2,3.6-1.9,7.8-1.9,7.8s4-1.5,6.2-5.1c2.2-3.6,1.8-7.8,1.8-7.8S162.9,38.8,160.7,42.4z"/>
							<path class="st1" d="M151.6,44.6c2,3.7,5.8,5.5,5.8,5.5s0.7-4.2-1.3-7.9s-5.8-5.5-5.8-5.5S149.7,40.9,151.6,44.6z"/>
						</g>
					</g>
					<g>
						<g>
							<path class="st1" d="M157.5,29.4c-1.2,4,0.2,8,0.2,8s3.5-2.5,4.7-6.5c1.2-4-0.2-8-0.2-8S158.8,25.4,157.5,29.4z"/>
							<path class="st1" d="M149.4,33.9c2.9,3.1,7.1,3.8,7.1,3.8s-0.5-4.3-3.3-7.3s-7.1-3.8-7.1-3.8S146.5,30.8,149.4,33.9z"/>
						</g>
					</g>
					<g>
						<g>
							<path class="st1" d="M151.1,17.6c-0.1,4.2,2.3,7.7,2.3,7.7s2.7-3.3,2.8-7.5s-2.3-7.7-2.3-7.7S151.3,13.4,151.1,17.6z"/>
							<path class="st1" d="M144.4,24.1c3.6,2.2,7.8,1.9,7.8,1.9s-1.5-4-5.1-6.2s-7.8-1.8-7.8-1.8S140.8,21.9,144.4,24.1z"/>
						</g>
					</g>
					<g>
						<g>
							<path class="st1" d="M141.9,8c0.9,4.1,4.2,6.8,4.2,6.8s1.7-3.9,0.8-8S142.7,0,142.7,0S140.9,3.9,141.9,8z"/>
							<path class="st1" d="M137,16c4,1.2,8-0.2,8-0.2s-2.5-3.5-6.5-4.7c-4-1.2-8,0.2-8,0.2S133,14.7,137,16z"/>
						</g>
					</g>
				</g>
			</g>
		</g>
	</g>
	<g>
		<g>
			<path class="st2" d="M81.6,136.2v2.5H72v-2.5h3.5v-8.7c-0.1,0.2-0.4,0.4-0.7,0.6c-0.3,0.2-0.7,0.4-1.1,0.6s-0.8,0.3-1.2,0.5
				c-0.4,0.1-0.8,0.2-1.1,0.2v-2.6c0.3,0,0.7-0.1,1.2-0.3c0.4-0.2,0.9-0.4,1.3-0.7c0.4-0.3,0.8-0.5,1.1-0.8c0.3-0.3,0.5-0.5,0.5-0.6
				h2.8v11.8H81.6z"/>
			<path class="st2" d="M96.3,132.8c0,0.9-0.2,1.7-0.5,2.4c-0.3,0.8-0.8,1.4-1.3,2c-0.6,0.6-1.3,1-2,1.3c-0.8,0.3-1.6,0.5-2.5,0.5
				c-1,0-1.9-0.2-2.7-0.5c-0.8-0.4-1.5-0.9-2-1.6c-0.6-0.7-1-1.5-1.3-2.5c-0.3-1-0.5-2.1-0.5-3.3c0-1.7,0.2-3.2,0.5-4.5
				c0.3-1.3,0.8-2.3,1.4-3.2s1.3-1.5,2.1-1.9s1.8-0.7,2.8-0.7c1.1,0,2.2,0.3,3.1,0.8c0.9,0.5,1.7,1.3,2.3,2.2l-1.6,1.7
				c-0.4-0.7-0.9-1.3-1.6-1.7c-0.7-0.4-1.4-0.6-2.2-0.6c-1.3,0-2.2,0.5-3,1.6c-0.7,1.1-1.1,2.5-1.2,4.5c0.4-0.8,0.9-1.3,1.6-1.8
				c0.7-0.4,1.6-0.6,2.5-0.6c0.9,0,1.7,0.2,2.4,0.5c0.8,0.3,1.4,0.7,2,1.3c0.5,0.5,1,1.2,1.3,1.9C96.1,131.2,96.3,132,96.3,132.8z
				 M89.9,136.6c0.5,0,1-0.1,1.5-0.3c0.5-0.2,0.9-0.5,1.2-0.8c0.3-0.4,0.6-0.8,0.8-1.2c0.2-0.5,0.3-0.9,0.3-1.5c0-0.5-0.1-1-0.3-1.4
				c-0.2-0.5-0.5-0.8-0.8-1.2s-0.7-0.6-1.2-0.8c-0.5-0.2-0.9-0.3-1.5-0.3c-0.5,0-1,0.1-1.5,0.3c-0.5,0.2-0.9,0.5-1.2,0.8
				c-0.3,0.3-0.6,0.7-0.8,1.2c-0.2,0.4-0.3,0.9-0.3,1.4c0,0.5,0.1,1,0.3,1.5c0.2,0.5,0.5,0.9,0.8,1.2c0.3,0.3,0.7,0.6,1.2,0.8
				C88.8,136.5,89.3,136.6,89.9,136.6z"/>
			<path class="st2" d="M51.2,169c-1,0-1.9-0.2-2.8-0.5c-0.8-0.4-1.5-0.8-2.1-1.5c-0.6-0.6-1.1-1.3-1.4-2.2
				c-0.3-0.8-0.5-1.7-0.5-2.6c0-0.9,0.2-1.8,0.5-2.6c0.3-0.8,0.8-1.5,1.4-2.2c0.6-0.6,1.3-1.1,2.1-1.5s1.8-0.5,2.8-0.5
				c1,0,1.9,0.2,2.8,0.5c0.8,0.4,1.5,0.9,2.1,1.5c0.6,0.6,1,1.3,1.3,2.1c0.3,0.8,0.5,1.7,0.5,2.5c0,0.2,0,0.4,0,0.6s0,0.3,0,0.4
				H47.4c0,0.6,0.2,1.1,0.4,1.6c0.2,0.5,0.5,0.9,0.9,1.2c0.4,0.3,0.8,0.6,1.2,0.8s0.9,0.3,1.4,0.3c0.4,0,0.7,0,1.1-0.1
				c0.4-0.1,0.7-0.2,1-0.4s0.6-0.4,0.8-0.6s0.4-0.5,0.6-0.8l2.4,0.7c-0.5,1-1.2,1.8-2.2,2.4S52.6,169,51.2,169z M55.2,161.2
				c0-0.5-0.2-1.1-0.4-1.5c-0.2-0.5-0.5-0.9-0.9-1.2s-0.8-0.6-1.2-0.8s-1-0.3-1.5-0.3c-0.5,0-1,0.1-1.5,0.3s-0.9,0.4-1.2,0.8
				s-0.6,0.7-0.9,1.2s-0.3,1-0.4,1.5H55.2z"/>
			<path class="st2" d="M59.3,162.2c0-0.9,0.2-1.8,0.5-2.6c0.3-0.8,0.8-1.5,1.4-2.1c0.6-0.6,1.3-1.1,2.1-1.5
				c0.8-0.4,1.8-0.5,2.8-0.5c1.3,0,2.5,0.3,3.5,0.9s1.7,1.4,2.2,2.4l-2.7,0.8c-0.3-0.5-0.7-1-1.3-1.3s-1.1-0.5-1.8-0.5
				c-0.5,0-1.1,0.1-1.5,0.3c-0.5,0.2-0.9,0.5-1.2,0.9c-0.4,0.4-0.6,0.9-0.8,1.4c-0.2,0.5-0.3,1.1-0.3,1.8c0,0.6,0.1,1.2,0.3,1.8
				c0.2,0.5,0.5,1,0.9,1.4c0.4,0.4,0.8,0.7,1.2,0.9s1,0.3,1.5,0.3c0.3,0,0.7,0,1-0.1s0.6-0.2,0.9-0.4c0.3-0.2,0.5-0.4,0.7-0.6
				c0.2-0.2,0.4-0.5,0.5-0.7l2.7,0.8c-0.4,1-1.2,1.8-2.2,2.4s-2.2,0.9-3.6,0.9c-1,0-1.9-0.2-2.8-0.5c-0.8-0.4-1.5-0.9-2.1-1.5
				c-0.6-0.6-1.1-1.3-1.4-2.2C59.5,163.9,59.3,163.1,59.3,162.2z"/>
			<path class="st2" d="M85.9,168.7h-2.8v-7.3c0-1.2-0.2-2.1-0.6-2.7c-0.4-0.6-1-0.9-1.8-0.9c-0.4,0-0.8,0.1-1.1,0.2
				c-0.4,0.2-0.7,0.4-1.1,0.6c-0.3,0.3-0.6,0.6-0.9,1s-0.5,0.8-0.6,1.2v7.8h-2.8v-18.3h2.8v7.8c0.5-0.9,1.2-1.6,2-2.1
				s1.8-0.8,2.8-0.8c0.8,0,1.5,0.1,2,0.4c0.5,0.3,0.9,0.7,1.3,1.2c0.3,0.5,0.5,1,0.7,1.7s0.2,1.3,0.2,2V168.7z"/>
			<path class="st2" d="M89.1,153.5v-3h2.8v3H89.1z M89.1,168.7v-13.1h2.8v13.1H89.1z"/>
			<path class="st2" d="M102.6,169c-1.1,0-2-0.3-2.8-0.8c-0.8-0.5-1.4-1.2-1.9-2v7.8h-2.8v-18.4h2.4v2.4c0.5-0.8,1.1-1.4,1.9-1.9
				c0.8-0.5,1.7-0.7,2.7-0.7c0.9,0,1.7,0.2,2.5,0.5c0.8,0.4,1.4,0.9,2,1.5c0.5,0.6,1,1.3,1.3,2.2c0.3,0.8,0.5,1.7,0.5,2.6
				c0,1-0.1,1.8-0.4,2.7c-0.3,0.8-0.7,1.5-1.2,2.2s-1.1,1.1-1.8,1.5C104.2,168.8,103.4,169,102.6,169z M101.7,166.6
				c0.6,0,1.1-0.1,1.6-0.4c0.5-0.3,0.9-0.6,1.2-1c0.3-0.4,0.6-0.9,0.8-1.4c0.2-0.5,0.3-1.1,0.3-1.6c0-0.6-0.1-1.2-0.3-1.7
				s-0.5-1-0.8-1.4c-0.4-0.4-0.8-0.7-1.3-0.9s-1-0.4-1.6-0.4c-0.4,0-0.7,0.1-1.1,0.2c-0.4,0.1-0.7,0.3-1.1,0.5s-0.6,0.5-0.9,0.8
				c-0.3,0.3-0.4,0.6-0.5,1v3.4c0.2,0.4,0.4,0.8,0.6,1.1c0.3,0.4,0.6,0.7,0.9,0.9s0.7,0.5,1.1,0.6
				C100.9,166.5,101.3,166.6,101.7,166.6z"/>
			<path class="st2" d="M116.8,169c-1,0-1.9-0.2-2.8-0.5c-0.8-0.4-1.5-0.8-2.1-1.5c-0.6-0.6-1.1-1.3-1.4-2.2
				c-0.3-0.8-0.5-1.7-0.5-2.6c0-0.9,0.2-1.8,0.5-2.6c0.3-0.8,0.8-1.5,1.4-2.2c0.6-0.6,1.3-1.1,2.1-1.5s1.8-0.5,2.8-0.5
				c1,0,1.9,0.2,2.8,0.5c0.8,0.4,1.5,0.9,2.1,1.5c0.6,0.6,1,1.3,1.3,2.1c0.3,0.8,0.5,1.7,0.5,2.5c0,0.2,0,0.4,0,0.6s0,0.3,0,0.4
				h-10.5c0,0.6,0.2,1.1,0.4,1.6c0.2,0.5,0.5,0.9,0.9,1.2c0.4,0.3,0.8,0.6,1.2,0.8s0.9,0.3,1.4,0.3c0.4,0,0.7,0,1.1-0.1
				c0.4-0.1,0.7-0.2,1-0.4s0.6-0.4,0.8-0.6s0.4-0.5,0.6-0.8l2.4,0.7c-0.5,1-1.2,1.8-2.2,2.4S118.1,169,116.8,169z M120.7,161.2
				c0-0.5-0.2-1.1-0.4-1.5c-0.2-0.5-0.5-0.9-0.9-1.2s-0.8-0.6-1.2-0.8s-1-0.3-1.5-0.3c-0.5,0-1,0.1-1.5,0.3s-0.9,0.4-1.2,0.8
				s-0.6,0.7-0.9,1.2s-0.3,1-0.4,1.5H120.7z"/>
		</g>
	</g>
</g>
</svg>
