<?xml version="1.0" encoding="utf-8"?>
<!-- Generator: Adobe Illustrator 22.0.1, SVG Export Plug-In . SVG Version: 6.00 Build 0)  -->
<svg version="1.1" id="Layer_1" xmlns="http://www.w3.org/2000/svg" xmlns:xlink="http://www.w3.org/1999/xlink" x="0px" y="0px"
	 viewBox="0 0 167.7 174" style="enable-background:new 0 0 167.7 174;" xml:space="preserve">
<style type="text/css">
	.st0{fill:#F05930;}
	.st1{fill:#00585E;}
	.st2{fill:#009494;}
</style>
<g>
	<g>
		<g>
			<g>
				<g>
					<path class="st0" d="M73.7,56.1c0,0.7,0.6,1.3,1.3,1.3H80c0.7,0,1.3-0.6,1.3-1.3v-7.6c0-0.7-0.6-1.3-1.3-1.3H75
						c-0.7,0-1.3,0.6-1.3,1.3L73.7,56.1L73.7,56.1z M76.2,49.8h2.5v5.1h-2.5V49.8z"/>
					<path class="st0" d="M75,42.1H80c0.7,0,1.3-0.6,1.3-1.3v-7.6c0-0.7-0.6-1.3-1.3-1.3H75c-0.7,0-1.3,0.6-1.3,1.3v7.6
						C73.7,41.6,74.2,42.1,75,42.1z M76.2,34.5h2.5v5.1h-2.5V34.5z"/>
					<path class="st0" d="M65.4,33L83.9,22L102.3,33c0.2,0.1,0.4,0.2,0.7,0.2c0.4,0,0.9-0.2,1.1-0.6c0.4-0.6,0.2-1.4-0.4-1.7
						L85.1,19.8v-8.2h6.4v2.5h-3.8c-0.7,0-1.3,0.6-1.3,1.3c0,0.7,0.6,1.3,1.3,1.3h5.1c0.7,0,1.3-0.6,1.3-1.3v-5.1
						c0-0.7-0.6-1.3-1.3-1.3h-8.9c-0.7,0-1.3,0.6-1.3,1.3v9.5L64.1,30.9c-0.6,0.4-0.8,1.1-0.4,1.7C64,33.2,64.8,33.4,65.4,33z"/>
					<path class="st0" d="M59.7,57.4c0.7,0,1.3-0.6,1.3-1.3v-7.6c0-0.7-0.6-1.3-1.3-1.3h-5.1c-0.7,0-1.3,0.6-1.3,1.3V51
						c0,0.7,0.6,1.3,1.3,1.3s1.3-0.6,1.3-1.3v-1.3h2.5v6.4C58.4,56.8,59,57.4,59.7,57.4z"/>
					<path class="st0" d="M68.6,73.9V37c0-0.7-0.6-1.3-1.3-1.3c-0.7,0-1.3,0.6-1.3,1.3v36.9c0,0.7,0.6,1.3,1.3,1.3
						C68,75.2,68.6,74.6,68.6,73.9z"/>
					<path class="st0" d="M62.2,80.3h43.2c0.7,0,1.3-0.6,1.3-1.3c0-0.7-0.6-1.3-1.3-1.3H94V65h1.3c0.7,0,1.3-0.6,1.3-1.3
						c0-0.7-0.6-1.3-1.3-1.3H72.4c-0.7,0-1.3,0.6-1.3,1.3c0,0.7,0.6,1.3,1.3,1.3h1.3v12.7H62.2c-0.7,0-1.3,0.6-1.3,1.3
						S61.5,80.3,62.2,80.3z M85.1,72.6c0.7,0,1.3-0.6,1.3-1.3c0-0.7-0.6-1.3-1.3-1.3V65h6.4v12.7h-6.4L85.1,72.6L85.1,72.6z
						 M76.2,65h6.4v5.1c-0.7,0-1.3,0.6-1.3,1.3c0,0.7,0.6,1.3,1.3,1.3v5.1h-6.4V65z"/>
					<path class="st0" d="M113.1,63.7H108c-0.7,0-1.3,0.6-1.3,1.3v7.6c0,0.7,0.6,1.3,1.3,1.3h5.1c0.7,0,1.3-0.6,1.3-1.3V65
						C114.4,64.3,113.8,63.7,113.1,63.7z M111.8,71.4h-2.5v-5.1h2.5V71.4z"/>
					<path class="st0" d="M113.1,48.5H108c-0.7,0-1.3,0.6-1.3,1.3v7.6c0,0.7,0.6,1.3,1.3,1.3h5.1c0.7,0,1.3-0.6,1.3-1.3v-7.6
						C114.4,49.1,113.8,48.5,113.1,48.5z M111.8,56.1h-2.5V51h2.5V56.1z"/>
					<path class="st0" d="M110.6,82.8H57.1c-0.7,0-1.3,0.6-1.3,1.3c0,0.7,0.6,1.3,1.3,1.3h53.4c0.7,0,1.3-0.6,1.3-1.3
						S111.3,82.8,110.6,82.8z"/>
					<path class="st0" d="M120.7,37c-0.7,0-1.3,0.6-1.3,1.3v1.3h-14c-0.7,0-1.3,0.6-1.3,1.3c0,0.7,0.6,1.3,1.3,1.3h14v42
						c0,0.7,0.6,1.3,1.3,1.3c0.7,0,1.3-0.6,1.3-1.3V38.3C122,37.6,121.4,37,120.7,37z"/>
					<path class="st0" d="M86.4,56.1c0,0.7,0.6,1.3,1.3,1.3h5.1c0.7,0,1.3-0.6,1.3-1.3v-7.6c0-0.7-0.6-1.3-1.3-1.3h-5.1
						c-0.7,0-1.3,0.6-1.3,1.3L86.4,56.1L86.4,56.1z M88.9,49.8h2.5v5.1h-2.5L88.9,49.8L88.9,49.8z"/>
					<path class="st0" d="M58.4,71.4c0-0.2-0.1-16.5-6.4-16.5c-6.3,0-6.4,16.4-6.4,16.5c0,3.1,2.2,5.6,5.1,6.2v6.5
						c0,0.7,0.6,1.3,1.3,1.3s1.3-0.6,1.3-1.3v-6.5C56.2,77,58.4,74.4,58.4,71.4z M52.1,75.2c-2.1,0-3.8-1.7-3.8-3.8
						c0-6.3,1.7-14,3.8-14c2.1,0,3.8,7.7,3.8,14C55.9,73.5,54.2,75.2,52.1,75.2z"/>
					<path class="st0" d="M101.7,73.9V35.8c0-0.7-0.6-1.3-1.3-1.3c-0.7,0-1.3,0.6-1.3,1.3v38.1c0,0.7,0.6,1.3,1.3,1.3
						C101.1,75.2,101.7,74.6,101.7,73.9z"/>
					<path class="st0" d="M87.7,42.1h5.1c0.7,0,1.3-0.6,1.3-1.3v-7.6c0-0.7-0.6-1.3-1.3-1.3h-5.1c-0.7,0-1.3,0.6-1.3,1.3v7.6
						C86.4,41.6,87,42.1,87.7,42.1z M88.9,34.5h2.5v5.1h-2.5L88.9,34.5L88.9,34.5z"/>
					<path class="st0" d="M47,53.6c0.7,0,1.3-0.6,1.3-1.3V42.1h14c0.7,0,1.3-0.6,1.3-1.3s-0.6-1.3-1.3-1.3h-14v-1.3
						c0-0.7-0.6-1.3-1.3-1.3s-1.3,0.6-1.3,1.3v14C45.7,53,46.3,53.6,47,53.6z"/>
				</g>
			</g>
		</g>
		<g>
			<g>
				<g>
					<g>
						<g>
							<path class="st1" d="M27.7,89.3c4.2-0.1,7.7,2.3,7.7,2.3s-3.3,2.7-7.5,2.8s-7.7-2.3-7.7-2.3S23.5,89.4,27.7,89.3z"/>
							<path class="st1" d="M34.2,82.5c2.2,3.6,1.9,7.8,1.9,7.8s-4-1.5-6.2-5.1S28,77.5,28,77.5S31.9,79,34.2,82.5z"/>
						</g>
					</g>
					<g>
						<g>
							<path class="st1" d="M18,80c4.1,0.9,6.8,4.2,6.8,4.2s-3.9,1.7-8,0.8S10,80.8,10,80.8S13.9,79.1,18,80z"/>
							<path class="st1" d="M26,75.2c1.2,4-0.2,8-0.2,8s-3.5-2.5-4.7-6.5c-1.2-4,0.2-8,0.2-8S24.8,71.2,26,75.2z"/>
						</g>
					</g>
					<g>
						<g>
							<path class="st1" d="M11.1,68.6c3.7,2,5.5,5.8,5.5,5.8s-4.2,0.7-7.9-1.3s-5.5-5.8-5.5-5.8S7.3,66.6,11.1,68.6z"/>
							<path class="st1" d="M20,66c0.1,4.2-2.3,7.7-2.3,7.7s-2.7-3.3-2.8-7.5s2.3-7.7,2.3-7.7S19.9,61.8,20,66z"/>
						</g>
					</g>
					<g>
						<g>
							<path class="st1" d="M7.3,55.7c3.1,2.9,3.8,7.1,3.8,7.1s-4.3-0.5-7.3-3.3S0,52.5,0,52.5S4.2,52.9,7.3,55.7z"/>
							<path class="st1" d="M16.6,55.6c-0.9,4.1-4.2,6.8-4.2,6.8s-1.7-3.9-0.8-8s4.2-6.8,4.2-6.8S17.6,51.5,16.6,55.6z"/>
						</g>
					</g>
					<g>
						<g>
							<path class="st1" d="M7,42.4c2.2,3.6,1.9,7.8,1.9,7.8s-4-1.5-6.2-5.1c-2.2-3.6-1.8-7.8-1.8-7.8S4.8,38.8,7,42.4z"/>
							<path class="st1" d="M16.1,44.6c-2,3.7-5.8,5.5-5.8,5.5s-0.7-4.2,1.3-7.9s5.8-5.5,5.8-5.5S18,40.9,16.1,44.6z"/>
						</g>
					</g>
					<g>
						<g>
							<path class="st1" d="M10.2,29.4c1.2,4-0.2,8-0.2,8s-3.5-2.5-4.7-6.5s0.2-8,0.2-8S8.9,25.4,10.2,29.4z"/>
							<path class="st1" d="M18.3,33.9c-2.9,3.1-7.1,3.8-7.1,3.8s0.5-4.3,3.3-7.3s7.1-3.8,7.1-3.8S21.2,30.8,18.3,33.9z"/>
						</g>
					</g>
					<g>
						<g>
							<path class="st1" d="M16.6,17.6c0.1,4.2-2.3,7.7-2.3,7.7s-2.7-3.3-2.8-7.5s2.3-7.7,2.3-7.7S16.5,13.4,16.6,17.6z"/>
							<path class="st1" d="M23.3,24.1c-3.6,2.2-7.8,1.9-7.8,1.9s1.5-4,5.1-6.2s7.8-1.8,7.8-1.8S26.9,21.9,23.3,24.1z"/>
						</g>
					</g>
					<g>
						<g>
							<path class="st1" d="M25.8,8c-0.9,4.1-4.2,6.8-4.2,6.8s-1.7-3.9-0.8-8C21.8,2.7,25,0,25,0S26.8,3.9,25.8,8z"/>
							<path class="st1" d="M30.7,16c-4,1.2-8-0.2-8-0.2s2.5-3.5,6.5-4.7s8,0.2,8,0.2S34.7,14.7,30.7,16z"/>
						</g>
					</g>
				</g>
				<g>
					<g>
						<g>
							<path class="st1" d="M140,89.3c-4.2-0.1-7.7,2.3-7.7,2.3s3.3,2.7,7.5,2.8c4.2,0.1,7.7-2.3,7.7-2.3S144.2,89.4,140,89.3z"/>
							<path class="st1" d="M133.5,82.5c-2.2,3.6-1.9,7.8-1.9,7.8s4-1.5,6.2-5.1s1.8-7.8,1.8-7.8S135.8,79,133.5,82.5z"/>
						</g>
					</g>
					<g>
						<g>
							<path class="st1" d="M149.7,80c-4.1,0.9-6.8,4.2-6.8,4.2s3.9,1.7,8,0.8s6.8-4.2,6.8-4.2S153.8,79.1,149.7,80z"/>
							<path class="st1" d="M141.7,75.2c-1.2,4,0.2,8,0.2,8s3.5-2.5,4.7-6.5c1.2-4-0.2-8-0.2-8S142.9,71.2,141.7,75.2z"/>
						</g>
					</g>
					<g>
						<g>
							<path class="st1" d="M156.7,68.6c-3.7,2-5.5,5.8-5.5,5.8s4.2,0.7,7.9-1.3s5.5-5.8,5.5-5.8S160.4,66.6,156.7,68.6z"/>
							<path class="st1" d="M147.7,66c-0.1,4.2,2.3,7.7,2.3,7.7s2.7-3.3,2.8-7.5s-2.3-7.7-2.3-7.7S147.8,61.8,147.7,66z"/>
						</g>
					</g>
					<g>
						<g>
							<path class="st1" d="M160.4,55.7c-3.1,2.9-3.8,7.1-3.8,7.1s4.3-0.5,7.3-3.3c3.1-2.9,3.8-7.1,3.8-7.1S163.5,52.9,160.4,55.7z"
								/>
							<path class="st1" d="M151.1,55.6c0.9,4.1,4.2,6.8,4.2,6.8s1.7-3.9,0.8-8c-0.9-4.1-4.2-6.8-4.2-6.8S150.1,51.5,151.1,55.6z"/>
						</g>
					</g>
					<g>
						<g>
							<path class="st1" d="M160.7,42.4c-2.2,3.6-1.9,7.8-1.9,7.8s4-1.5,6.2-5.1c2.2-3.6,1.8-7.8,1.8-7.8S162.9,38.8,160.7,42.4z"/>
							<path class="st1" d="M151.6,44.6c2,3.7,5.8,5.5,5.8,5.5s0.7-4.2-1.3-7.9s-5.8-5.5-5.8-5.5S149.7,40.9,151.6,44.6z"/>
						</g>
					</g>
					<g>
						<g>
							<path class="st1" d="M157.5,29.4c-1.2,4,0.2,8,0.2,8s3.5-2.5,4.7-6.5c1.2-4-0.2-8-0.2-8S158.8,25.4,157.5,29.4z"/>
							<path class="st1" d="M149.4,33.9c2.9,3.1,7.1,3.8,7.1,3.8s-0.5-4.3-3.3-7.3s-7.1-3.8-7.1-3.8S146.5,30.8,149.4,33.9z"/>
						</g>
					</g>
					<g>
						<g>
							<path class="st1" d="M151.1,17.6c-0.1,4.2,2.3,7.7,2.3,7.7s2.7-3.3,2.8-7.5s-2.3-7.7-2.3-7.7S151.3,13.4,151.1,17.6z"/>
							<path class="st1" d="M144.4,24.1c3.6,2.2,7.8,1.9,7.8,1.9s-1.5-4-5.1-6.2s-7.8-1.8-7.8-1.8S140.8,21.9,144.4,24.1z"/>
						</g>
					</g>
					<g>
						<g>
							<path class="st1" d="M141.9,8c0.9,4.1,4.2,6.8,4.2,6.8s1.7-3.9,0.8-8S142.7,0,142.7,0S140.9,3.9,141.9,8z"/>
							<path class="st1" d="M137,16c4,1.2,8-0.2,8-0.2s-2.5-3.5-6.5-4.7c-4-1.2-8,0.2-8,0.2S133,14.7,137,16z"/>
						</g>
					</g>
				</g>
			</g>
		</g>
	</g>
	<g>
		<g>
			<path class="st2" d="M82.3,136.2v2.5h-9.5v-2.5h3.5v-8.7c-0.2,0.2-0.4,0.4-0.7,0.6c-0.3,0.2-0.7,0.4-1.1,0.6s-0.8,0.3-1.2,0.5
				c-0.4,0.1-0.8,0.2-1.1,0.2v-2.6c0.3,0,0.7-0.1,1.2-0.3c0.4-0.2,0.9-0.4,1.3-0.7c0.4-0.3,0.8-0.5,1.1-0.8s0.5-0.5,0.5-0.6h2.8
				v11.8H82.3z"/>
			<path class="st2" d="M90,130.8c0.8,0,1.6,0.1,2.3,0.4c0.7,0.3,1.3,0.7,1.9,1.2s0.9,1.1,1.2,1.8c0.3,0.7,0.4,1.5,0.4,2.3
				c0,0.9-0.2,1.7-0.5,2.4c-0.3,0.7-0.8,1.4-1.3,1.9c-0.6,0.5-1.3,0.9-2,1.2c-0.8,0.3-1.6,0.4-2.5,0.4c-1.3,0-2.4-0.3-3.5-0.9
				s-1.8-1.4-2.3-2.3l1.7-1.6c0.5,0.7,1.1,1.3,1.8,1.7c0.7,0.4,1.5,0.6,2.4,0.6c1,0,1.9-0.3,2.5-1c0.7-0.6,1-1.5,1-2.5
				c0-0.5-0.1-1-0.3-1.4c-0.2-0.4-0.4-0.8-0.7-1.1c-0.3-0.3-0.7-0.5-1.1-0.7c-0.4-0.2-0.9-0.3-1.3-0.3c-0.6,0-1.2,0.1-1.8,0.4
				c-0.5,0.3-1,0.7-1.4,1.2h-2.4c0-0.1,0.1-0.3,0.1-0.6c0.1-0.3,0.1-0.8,0.2-1.3s0.2-1.1,0.3-1.7c0.1-0.6,0.2-1.2,0.4-1.9
				c0.3-1.5,0.6-3.1,1-5h8.7v2.5h-6.7l-0.9,4.8c0.3-0.3,0.7-0.6,1.1-0.8C88.8,130.9,89.3,130.8,90,130.8z"/>
			<path class="st2" d="M37.3,168.7v-10.6h-1.8V156h1.8v-0.5c0-1.6,0.4-2.9,1.1-3.8s1.8-1.4,3-1.4c0.5,0,1.1,0.1,1.6,0.2
				c0.5,0.1,1,0.3,1.5,0.6l-0.6,2c-0.3-0.1-0.5-0.3-0.9-0.4c-0.3-0.1-0.7-0.1-1-0.1c-0.7,0-1.1,0.2-1.5,0.7s-0.5,1.2-0.5,2.1v0.6
				h3.3v2.1H40v10.6H37.3z"/>
			<path class="st2" d="M48.7,169c-0.6,0-1.2-0.1-1.8-0.3s-1-0.5-1.4-0.9c-0.4-0.4-0.7-0.8-0.9-1.3c-0.2-0.5-0.3-1-0.3-1.6
				c0-0.6,0.1-1.2,0.4-1.7c0.3-0.5,0.6-0.9,1.1-1.3c0.5-0.4,1.1-0.6,1.8-0.8c0.7-0.2,1.4-0.3,2.2-0.3c0.6,0,1.2,0.1,1.8,0.2
				s1.1,0.3,1.6,0.4v-0.9c0-1-0.3-1.7-0.8-2.3c-0.6-0.5-1.3-0.8-2.4-0.8c-0.7,0-1.4,0.1-2.1,0.4c-0.7,0.3-1.4,0.6-2.1,1.1l-0.8-1.8
				c1.7-1.1,3.4-1.7,5.3-1.7c1.8,0,3.2,0.5,4.2,1.4s1.5,2.2,1.5,4v4.7c0,0.6,0.2,0.9,0.7,0.9v2.3c-0.3,0-0.5,0.1-0.7,0.1
				s-0.4,0-0.6,0c-0.5,0-0.9-0.1-1.2-0.4c-0.3-0.3-0.5-0.6-0.5-1l-0.1-0.8c-0.6,0.8-1.3,1.4-2.2,1.8C50.6,168.8,49.7,169,48.7,169z
				 M49.5,166.9c0.7,0,1.3-0.1,1.9-0.4c0.6-0.2,1.1-0.6,1.4-1c0.4-0.3,0.5-0.6,0.5-0.9v-1.7c-0.5-0.2-1-0.3-1.5-0.4s-1-0.2-1.5-0.2
				c-1,0-1.8,0.2-2.4,0.6s-0.9,1-0.9,1.7c0,0.7,0.2,1.2,0.7,1.6C48.1,166.7,48.7,166.9,49.5,166.9z"/>
			<path class="st2" d="M58.5,162.2c0-0.9,0.2-1.8,0.5-2.6c0.3-0.8,0.8-1.5,1.4-2.1s1.3-1.1,2.1-1.5s1.8-0.5,2.8-0.5
				c1.3,0,2.5,0.3,3.5,0.9c1,0.6,1.7,1.4,2.2,2.4l-2.7,0.8c-0.3-0.5-0.7-1-1.3-1.3s-1.1-0.5-1.8-0.5c-0.5,0-1.1,0.1-1.5,0.3
				c-0.5,0.2-0.9,0.5-1.2,0.9c-0.4,0.4-0.6,0.9-0.8,1.4c-0.2,0.5-0.3,1.1-0.3,1.8c0,0.6,0.1,1.2,0.3,1.8c0.2,0.5,0.5,1,0.8,1.4
				c0.4,0.4,0.8,0.7,1.3,0.9c0.5,0.2,1,0.3,1.5,0.3c0.3,0,0.7,0,1-0.1c0.3-0.1,0.6-0.2,0.9-0.4c0.3-0.2,0.5-0.4,0.7-0.6
				c0.2-0.2,0.4-0.5,0.5-0.7l2.7,0.8c-0.4,1-1.2,1.8-2.2,2.4c-1,0.6-2.2,0.9-3.6,0.9c-1,0-1.9-0.2-2.8-0.5c-0.8-0.4-1.5-0.9-2.1-1.5
				s-1.1-1.3-1.4-2.2C58.7,163.9,58.5,163.1,58.5,162.2z"/>
			<path class="st2" d="M77.3,169c-1.4,0-2.4-0.4-3.1-1.3c-0.7-0.9-1-2.2-1-4v-8h2.8v7.5c0,2.3,0.8,3.5,2.5,3.5
				c0.8,0,1.5-0.2,2.2-0.7c0.7-0.5,1.2-1.2,1.6-2.1v-8.2H85v9.8c0,0.3,0.1,0.5,0.2,0.7c0.1,0.1,0.3,0.2,0.6,0.2v2.3
				c-0.3,0-0.5,0.1-0.7,0.1s-0.4,0-0.5,0c-0.5,0-0.9-0.1-1.3-0.4c-0.4-0.3-0.5-0.6-0.6-1.1l0-1.3c-0.6,1-1.3,1.7-2.3,2.2
				C79.5,168.7,78.5,169,77.3,169z"/>
			<path class="st2" d="M88.6,150.5h2.8v14.5c0,0.5,0.1,0.9,0.4,1.1c0.3,0.3,0.6,0.4,1.1,0.4c0.2,0,0.4,0,0.6-0.1
				c0.2-0.1,0.5-0.1,0.7-0.2l0.4,2.1c-0.4,0.2-0.9,0.3-1.4,0.4c-0.5,0.1-1,0.2-1.5,0.2c-0.9,0-1.7-0.3-2.2-0.8s-0.8-1.3-0.8-2.2
				V150.5z"/>
			<path class="st2" d="M103.3,168c-0.3,0.2-0.8,0.4-1.4,0.6c-0.6,0.2-1.3,0.3-2,0.3c-0.4,0-0.8-0.1-1.2-0.2c-0.4-0.1-0.7-0.3-1-0.5
				c-0.3-0.2-0.5-0.5-0.7-0.9c-0.2-0.4-0.3-0.8-0.3-1.4v-8.2H95v-2.1h1.7v-4.3h2.8v4.3h2.8v2.1h-2.8v7.3c0,0.5,0.2,0.8,0.4,1
				c0.3,0.2,0.6,0.3,1,0.3c0.4,0,0.8-0.1,1.1-0.2c0.3-0.1,0.6-0.2,0.8-0.3L103.3,168z"/>
			<path class="st2" d="M108.7,169c-0.6,0-1.2-0.1-1.8-0.3s-1-0.5-1.4-0.9c-0.4-0.4-0.7-0.8-0.9-1.3c-0.2-0.5-0.3-1-0.3-1.6
				c0-0.6,0.1-1.2,0.4-1.7s0.6-0.9,1.1-1.3c0.5-0.4,1.1-0.6,1.8-0.8s1.4-0.3,2.2-0.3c0.6,0,1.2,0.1,1.8,0.2c0.6,0.1,1.1,0.3,1.6,0.4
				v-0.9c0-1-0.3-1.7-0.8-2.3c-0.5-0.5-1.3-0.8-2.4-0.8c-0.7,0-1.4,0.1-2.1,0.4c-0.7,0.3-1.4,0.6-2.1,1.1l-0.9-1.8
				c1.7-1.1,3.4-1.7,5.3-1.7c1.8,0,3.2,0.5,4.2,1.4s1.5,2.2,1.5,4v4.7c0,0.6,0.2,0.9,0.7,0.9v2.3c-0.3,0-0.5,0.1-0.7,0.1
				c-0.2,0-0.4,0-0.6,0c-0.5,0-0.9-0.1-1.2-0.4c-0.3-0.3-0.5-0.6-0.5-1l-0.1-0.8c-0.6,0.8-1.3,1.4-2.2,1.8S109.7,169,108.7,169z
				 M109.5,166.9c0.7,0,1.3-0.1,1.9-0.4c0.6-0.2,1.1-0.6,1.4-1c0.3-0.3,0.5-0.6,0.5-0.9v-1.7c-0.5-0.2-1-0.3-1.5-0.4s-1-0.2-1.5-0.2
				c-1,0-1.8,0.2-2.4,0.6s-0.9,1-0.9,1.7c0,0.7,0.2,1.2,0.7,1.6C108.1,166.7,108.7,166.9,109.5,166.9z"/>
			<path class="st2" d="M126.5,168c-0.3,0.2-0.8,0.4-1.5,0.6c-0.6,0.2-1.3,0.3-2,0.3c-0.4,0-0.8-0.1-1.2-0.2c-0.4-0.1-0.7-0.3-1-0.5
				c-0.3-0.2-0.5-0.5-0.7-0.9c-0.2-0.4-0.3-0.8-0.3-1.4v-8.2h-1.7v-2.1h1.7v-4.3h2.8v4.3h2.8v2.1h-2.8v7.3c0,0.5,0.2,0.8,0.4,1
				c0.3,0.2,0.6,0.3,1,0.3c0.4,0,0.8-0.1,1.1-0.2c0.3-0.1,0.6-0.2,0.8-0.3L126.5,168z M122,174l0.6-1.9h-0.8v-2.2h2.4v2.2l-0.9,1.9
				H122z"/>
			<path class="st2" d="M128.4,153.5v-3h2.8v3H128.4z M128.4,168.7v-13.1h2.8v13.1H128.4z"/>
		</g>
	</g>
</g>
</svg>
