<svg xmlns="http://www.w3.org/2000/svg" viewBox="0 0 167.71 198.46"><defs><style>.cls-1{fill:#f05930;}.cls-2{fill:#00585e;}.cls-3{font-size:25px;fill:#009494;font-family:Raleway-SemiBold, Raleway;font-weight:700;}.cls-4{letter-spacing:-0.01em;}.cls-5{letter-spacing:0em;}</style></defs><title>icon3</title><g id="Layer_2" data-name="Layer 2"><g id="Layer_1-2" data-name="Layer 1"><path class="cls-1" d="M73.68,56.11A1.27,1.27,0,0,0,75,57.38H80a1.27,1.27,0,0,0,1.27-1.27V48.48A1.27,1.27,0,0,0,80,47.21H75a1.27,1.27,0,0,0-1.27,1.27v7.63Zm2.54-6.36h2.54v5.09H76.22Z"/><path class="cls-1" d="M75,42.13H80a1.27,1.27,0,0,0,1.27-1.27V33.22A1.27,1.27,0,0,0,80,32H75a1.27,1.27,0,0,0-1.27,1.27v7.63A1.27,1.27,0,0,0,75,42.13Zm1.27-7.63h2.54v5.09H76.22Z"/><path class="cls-1" d="M65.43,33,83.85,22,102.27,33a1.27,1.27,0,0,0,1.31-2.18L85.12,19.79V11.61h6.36v2.54H87.67a1.27,1.27,0,0,0,0,2.54h5.09A1.27,1.27,0,0,0,94,15.42V10.34a1.27,1.27,0,0,0-1.27-1.27h-8.9a1.27,1.27,0,0,0-1.27,1.27v9.45L64.12,30.86A1.27,1.27,0,0,0,65.43,33Z"/><path class="cls-1" d="M59.69,57.38A1.27,1.27,0,0,0,61,56.11V48.48a1.27,1.27,0,0,0-1.27-1.27H54.61a1.27,1.27,0,0,0-1.27,1.27V51a1.27,1.27,0,0,0,2.54,0V49.76h2.54v6.36A1.27,1.27,0,0,0,59.69,57.38Z"/><path class="cls-1" d="M68.59,73.92V37a1.27,1.27,0,1,0-2.54,0V73.92a1.27,1.27,0,0,0,2.54,0Z"/><path class="cls-1" d="M62.24,80.27h43.23a1.27,1.27,0,0,0,0-2.54H94V65H95.3a1.27,1.27,0,0,0,0-2.54H72.41a1.27,1.27,0,1,0,0,2.54h1.27V77.73H62.24a1.27,1.27,0,0,0,0,2.54Zm22.89-7.63a1.27,1.27,0,0,0,0-2.54V65h6.36V77.73H85.12V72.64ZM76.22,65h6.36V70.1a1.27,1.27,0,1,0,0,2.54v5.09H76.22Z"/><path class="cls-1" d="M113.1,63.74H108A1.27,1.27,0,0,0,106.74,65v7.63A1.27,1.27,0,0,0,108,73.92h5.09a1.27,1.27,0,0,0,1.27-1.27V65A1.27,1.27,0,0,0,113.1,63.74Zm-1.27,7.63h-2.54V66.29h2.54Z"/><path class="cls-1" d="M113.1,48.48H108a1.27,1.27,0,0,0-1.27,1.27v7.63A1.27,1.27,0,0,0,108,58.66h5.09a1.27,1.27,0,0,0,1.27-1.27V49.76A1.27,1.27,0,0,0,113.1,48.48Zm-1.27,7.63h-2.54V51h2.54Z"/><path class="cls-1" d="M110.56,82.82H57.15a1.27,1.27,0,0,0,0,2.54h53.41a1.27,1.27,0,0,0,0-2.54Z"/><path class="cls-1" d="M120.73,37a1.27,1.27,0,0,0-1.27,1.27v1.27h-14a1.27,1.27,0,0,0,0,2.54h14v42a1.27,1.27,0,1,0,2.54,0V38.31A1.27,1.27,0,0,0,120.73,37Z"/><path class="cls-1" d="M86.4,56.11a1.27,1.27,0,0,0,1.27,1.27h5.09A1.27,1.27,0,0,0,94,56.11V48.48a1.27,1.27,0,0,0-1.27-1.27H87.67a1.27,1.27,0,0,0-1.27,1.27v7.63Zm2.54-6.36h2.54v5.09H88.94V49.76Z"/><path class="cls-1" d="M58.42,71.37c0-.17-.07-16.53-6.36-16.53s-6.36,16.37-6.36,16.53a6.37,6.37,0,0,0,5.09,6.23v6.49a1.27,1.27,0,0,0,2.54,0V77.6A6.37,6.37,0,0,0,58.42,71.37Zm-6.36,3.81a3.82,3.82,0,0,1-3.81-3.81c0-6.34,1.7-14,3.81-14s3.81,7.65,3.81,14A3.82,3.82,0,0,1,52.06,75.19Z"/><path class="cls-1" d="M101.65,73.92V35.77a1.27,1.27,0,1,0-2.54,0V73.92a1.27,1.27,0,0,0,2.54,0Z"/><path class="cls-1" d="M87.67,42.13h5.09A1.27,1.27,0,0,0,94,40.85V33.22A1.27,1.27,0,0,0,92.75,32H87.67a1.27,1.27,0,0,0-1.27,1.27v7.63A1.27,1.27,0,0,0,87.67,42.13Zm1.27-7.63h2.54v5.09H88.94V34.5Z"/><path class="cls-1" d="M47,53.57a1.27,1.27,0,0,0,1.27-1.27V42.13h14a1.27,1.27,0,0,0,0-2.54h-14V38.31a1.27,1.27,0,0,0-2.54,0v14A1.27,1.27,0,0,0,47,53.57Z"/><path class="cls-2" d="M27.67,89.27a14.17,14.17,0,0,1,7.7,2.31,14.17,14.17,0,0,1-7.52,2.84,14,14,0,0,1-7.67-2.31A14,14,0,0,1,27.67,89.27Z"/><path class="cls-2" d="M34.16,82.55A14.17,14.17,0,0,1,36,90.37a14.17,14.17,0,0,1-6.22-5.1A14,14,0,0,1,28,77.48,14,14,0,0,1,34.16,82.55Z"/><path class="cls-2" d="M18,80a14.17,14.17,0,0,1,6.84,4.22,14.17,14.17,0,0,1-8,.79A14,14,0,0,1,10,80.83,14,14,0,0,1,18,80Z"/><path class="cls-2" d="M26,75.21a14.17,14.17,0,0,1-.23,8,14.17,14.17,0,0,1-4.69-6.53,14,14,0,0,1,.24-8A14,14,0,0,1,26,75.21Z"/><path class="cls-2" d="M11.05,68.59a14.17,14.17,0,0,1,5.52,5.85,14.17,14.17,0,0,1-7.94-1.3,14,14,0,0,1-5.49-5.83A14,14,0,0,1,11.05,68.59Z"/><path class="cls-2" d="M20,66a14.17,14.17,0,0,1-2.31,7.7,14.17,14.17,0,0,1-2.84-7.52,14,14,0,0,1,2.31-7.67A14,14,0,0,1,20,66Z"/><path class="cls-2" d="M7.3,55.75a14.17,14.17,0,0,1,3.82,7.08,14.17,14.17,0,0,1-7.33-3.31A14,14,0,0,1,0,52.46,14,14,0,0,1,7.3,55.75Z"/><path class="cls-2" d="M16.65,55.58a14.17,14.17,0,0,1-4.22,6.84,14.17,14.17,0,0,1-.79-8,14,14,0,0,1,4.21-6.81A14,14,0,0,1,16.65,55.58Z"/><path class="cls-2" d="M7,42.37A14.17,14.17,0,0,1,8.85,50.2a14.17,14.17,0,0,1-6.22-5.1A14,14,0,0,1,.8,37.31,14,14,0,0,1,7,42.37Z"/><path class="cls-2" d="M16.07,44.63a14.17,14.17,0,0,1-5.85,5.52,14.17,14.17,0,0,1,1.3-7.94,14,14,0,0,1,5.83-5.49A14,14,0,0,1,16.07,44.63Z"/><path class="cls-2" d="M10.17,29.37a14.17,14.17,0,0,1-.23,8,14.17,14.17,0,0,1-4.69-6.53,14,14,0,0,1,.24-8A14,14,0,0,1,10.17,29.37Z"/><path class="cls-2" d="M18.35,33.9a14.17,14.17,0,0,1-7.08,3.82,14.17,14.17,0,0,1,3.31-7.33,14,14,0,0,1,7.05-3.79A14,14,0,0,1,18.35,33.9Z"/><path class="cls-2" d="M16.6,17.64a14.17,14.17,0,0,1-2.31,7.7,14.17,14.17,0,0,1-2.84-7.52,14,14,0,0,1,2.31-7.67A14,14,0,0,1,16.6,17.64Z"/><path class="cls-2" d="M23.32,24.13A14.17,14.17,0,0,1,15.5,26a14.17,14.17,0,0,1,5.1-6.22,14,14,0,0,1,7.79-1.83A14,14,0,0,1,23.32,24.13Z"/><path class="cls-2" d="M25.84,8a14.17,14.17,0,0,1-4.22,6.84,14.17,14.17,0,0,1-.79-8A14,14,0,0,1,25,0,14,14,0,0,1,25.84,8Z"/><path class="cls-2" d="M30.66,16a14.17,14.17,0,0,1-8-.23,14.17,14.17,0,0,1,6.53-4.69,14,14,0,0,1,8,.24A14,14,0,0,1,30.66,16Z"/><path class="cls-2" d="M140,89.27a14.17,14.17,0,0,0-7.7,2.31,14.17,14.17,0,0,0,7.52,2.84,14,14,0,0,0,7.67-2.31A14,14,0,0,0,140,89.27Z"/><path class="cls-2" d="M133.54,82.55a14.17,14.17,0,0,0-1.85,7.82,14.17,14.17,0,0,0,6.22-5.1,14,14,0,0,0,1.83-7.79A14,14,0,0,0,133.54,82.55Z"/><path class="cls-2" d="M149.7,80a14.17,14.17,0,0,0-6.84,4.22,14.17,14.17,0,0,0,8,.79,14,14,0,0,0,6.81-4.21A14,14,0,0,0,149.7,80Z"/><path class="cls-2" d="M141.69,75.21a14.17,14.17,0,0,0,.23,8,14.17,14.17,0,0,0,4.69-6.53,14,14,0,0,0-.24-8A14,14,0,0,0,141.69,75.21Z"/><path class="cls-2" d="M156.65,68.59a14.17,14.17,0,0,0-5.52,5.85,14.17,14.17,0,0,0,7.94-1.3,14,14,0,0,0,5.49-5.83A14,14,0,0,0,156.65,68.59Z"/><path class="cls-2" d="M147.67,66a14.17,14.17,0,0,0,2.31,7.7,14.17,14.17,0,0,0,2.84-7.52,14,14,0,0,0-2.31-7.67A14,14,0,0,0,147.67,66Z"/><path class="cls-2" d="M160.41,55.75a14.17,14.17,0,0,0-3.82,7.08,14.17,14.17,0,0,0,7.33-3.31,14,14,0,0,0,3.79-7.05A14,14,0,0,0,160.41,55.75Z"/><path class="cls-2" d="M151.06,55.58a14.17,14.17,0,0,0,4.22,6.84,14.17,14.17,0,0,0,.79-8,14,14,0,0,0-4.21-6.81A14,14,0,0,0,151.06,55.58Z"/><path class="cls-2" d="M160.71,42.37a14.17,14.17,0,0,0-1.85,7.82,14.17,14.17,0,0,0,6.22-5.1,14,14,0,0,0,1.83-7.79A14,14,0,0,0,160.71,42.37Z"/><path class="cls-2" d="M151.64,44.63a14.17,14.17,0,0,0,5.85,5.52,14.17,14.17,0,0,0-1.3-7.94,14,14,0,0,0-5.83-5.49A14,14,0,0,0,151.64,44.63Z"/><path class="cls-2" d="M157.54,29.37a14.17,14.17,0,0,0,.23,8,14.17,14.17,0,0,0,4.69-6.53,14,14,0,0,0-.24-8A14,14,0,0,0,157.54,29.37Z"/><path class="cls-2" d="M149.36,33.9a14.17,14.17,0,0,0,7.08,3.82,14.17,14.17,0,0,0-3.31-7.33,14,14,0,0,0-7.05-3.79A14,14,0,0,0,149.36,33.9Z"/><path class="cls-2" d="M151.11,17.64a14.17,14.17,0,0,0,2.31,7.7,14.17,14.17,0,0,0,2.84-7.52,14,14,0,0,0-2.31-7.67A14,14,0,0,0,151.11,17.64Z"/><path class="cls-2" d="M144.38,24.13A14.17,14.17,0,0,0,152.21,26a14.17,14.17,0,0,0-5.1-6.22,14,14,0,0,0-7.79-1.83A14,14,0,0,0,144.38,24.13Z"/><path class="cls-2" d="M141.86,8a14.17,14.17,0,0,0,4.22,6.84,14.17,14.17,0,0,0,.79-8A14,14,0,0,0,142.66,0,14,14,0,0,0,141.86,8Z"/><path class="cls-2" d="M137,16a14.17,14.17,0,0,0,8-.23,14.17,14.17,0,0,0-6.53-4.69,14,14,0,0,0-8,.24A14,14,0,0,0,137,16Z"/><text class="cls-3" transform="translate(71.08 138.71)">15<tspan class="cls-4" x="-36.19" y="30">f</tspan><tspan x="-27.49" y="30">acult</tspan><tspan class="cls-5" x="32.51" y="30">a</tspan><tspan x="46.51" y="30">ti</tspan></text></g></g></svg>