<svg xmlns="http://www.w3.org/2000/svg" viewBox="0 0 167.71 198.46"><defs><style>.cls-1{fill:#f05930;}.cls-2{fill:#00585e;}.cls-3{font-size:25px;fill:#009494;font-family:Raleway-SemiBold, Raleway;font-weight:700;}.cls-4{letter-spacing:0em;}</style></defs><title>icon4</title><g id="Layer_2" data-name="Layer 2"><g id="Layer_1-2" data-name="Layer 1"><path class="cls-1" d="M125,62.77l-5.47-1.56a.56.56,0,0,1-.4-.53V58.84a10,10,0,0,0,1.27-1,9.75,9.75,0,0,0,3-7.05V48.23l.53-1.06a8.45,8.45,0,0,0,.89-3.76V36.59a1.33,1.33,0,0,0-1.33-1.33H110.75a8.42,8.42,0,0,0-8.41,8.41v.08a7,7,0,0,0,.74,3.13l.68,1.36V50.4A10.34,10.34,0,0,0,108,58.76v1.91c0,.3,0,.42-1.09.73l-2.67.76-7.72-2.81a1.32,1.32,0,0,0-.36-1l-2.47-2.59V51.39c.26-.22.52-.44.77-.67a15.55,15.55,0,0,0,4.9-11.31V35.94a15.32,15.32,0,0,0,1.42-6.44V15.33A1.33,1.33,0,0,0,99.45,14H79.62A12.67,12.67,0,0,0,67,26.67V29.5a15.32,15.32,0,0,0,1.42,6.44v3A16.19,16.19,0,0,0,74,51.29v4.46l-2.47,2.59a1.32,1.32,0,0,0-.36,1l-8.15,3a7,7,0,0,0-1.64.86l-1.28-.64c3.81-1.66,5-4,5.08-4.11a1.32,1.32,0,0,0,0-1.19c-1-1.91-1.07-5.41-1.16-8.23,0-.94-.06-1.82-.12-2.61-.45-6.36-5.28-11.15-11.24-11.15S41.91,40.05,41.46,46.41c-.06.79-.09,1.67-.12,2.61-.09,2.81-.21,6.31-1.16,8.23a1.32,1.32,0,0,0,0,1.19c.06.12,1.26,2.44,5.08,4.1l-3.56,1.78a5.55,5.55,0,0,0-3.08,5v9.79a1.33,1.33,0,1,0,2.65,0V69.3a2.91,2.91,0,0,1,1.62-2.62l4.43-2.21,1.54,1.46a5.57,5.57,0,0,0,7.68,0l1.54-1.46,1.44.72a7,7,0,0,0-1.07,3.7v10.2a1.33,1.33,0,1,0,2.65,0V68.89A4.36,4.36,0,0,1,64,64.81l8.6-3.13,3.58,5.37a2.73,2.73,0,0,0,2,1.21h.27a2.73,2.73,0,0,0,1.94-.8l2.18-2.18v13.8a1.33,1.33,0,1,0,2.65,0V65.29l2.18,2.18a2.73,2.73,0,0,0,1.94.8h.27a2.73,2.73,0,0,0,2-1.21l3.58-5.37,8.6,3.13a4.36,4.36,0,0,1,2.86,4.08v10.2a1.33,1.33,0,1,0,2.65,0V68.89a7,7,0,0,0-2-4.85l.33-.09a7.27,7.27,0,0,0,1.23-.45l3.38,3.38v12.2a1.33,1.33,0,1,0,2.65,0V66.89l3.36-3.36a3.15,3.15,0,0,0,.56.22l5.47,1.56a2.94,2.94,0,0,1,2.12,2.81v11a1.33,1.33,0,1,0,2.65,0v-11A5.6,5.6,0,0,0,125,62.77ZM58.28,60.43V58.85a9.8,9.8,0,0,0,3.5-4.32,14.59,14.59,0,0,0,.75,3.17A9.57,9.57,0,0,1,58.28,60.43ZM44.11,46.6a9.84,9.84,0,0,1,2.68-6.18,8.23,8.23,0,0,1,11.83,0A9.84,9.84,0,0,1,61.3,46.6c.05.74.08,1.6.11,2.51v.24a11.91,11.91,0,0,0-6.54-4.78,16.63,16.63,0,0,0-5-.8,1.33,1.33,0,0,0-.92.4l-2.39,2.48a1.33,1.33,0,0,0,1.91,1.84l2-2.06c1.71.08,7.22.72,9.37,5.44a7.17,7.17,0,0,1-14.26-1.11,1.33,1.33,0,0,0-1.33-1.33l-.22,0v-.34C44,48.2,44.05,47.34,44.11,46.6ZM42.87,57.7a14.61,14.61,0,0,0,.76-3.17,9.88,9.88,0,0,0,3.5,4.31v1.59A9.53,9.53,0,0,1,42.87,57.7ZM50.69,64l-1.23-1.17a2.74,2.74,0,0,0,.32-1.29V60.13a9.85,9.85,0,0,0,5.85,0v1.41a2.74,2.74,0,0,0,.32,1.29L54.72,64A2.92,2.92,0,0,1,50.69,64ZM71,38.93V35.65a1.33,1.33,0,0,0-.13-.58,12.71,12.71,0,0,1-1.28-5.57V26.67a10,10,0,0,1,10-10H98.13V29.5a12.71,12.71,0,0,1-1.28,5.57,1.33,1.33,0,0,0-.13.58v3.77a12.72,12.72,0,0,1-4.06,9.37,13.19,13.19,0,0,1-1,.86l0,0A12.74,12.74,0,0,1,83,52.23,13.12,13.12,0,0,1,71,38.93ZM82.84,54.88q.52,0,1,0A15.35,15.35,0,0,0,91,53.16v2.42l-7.18,4.9-7.18-4.9V53.1A14.92,14.92,0,0,0,82.84,54.88ZM78.49,65.6a.08.08,0,0,1-.07,0,.08.08,0,0,1-.07,0L74.23,59.4,75.55,58l6.25,4.27Zm10.9,0a.08.08,0,0,1-.07,0,.08.08,0,0,1-.07,0l-3.32-3.32L92.19,58l1.33,1.39Zm17-15.18V47.92a1.32,1.32,0,0,0-.14-.59l-.82-1.64a4.36,4.36,0,0,1-.46-1.94v-.08a5.77,5.77,0,0,1,5.76-5.76h11.43v5.5a5.79,5.79,0,0,1-.61,2.58l-.67,1.34a1.32,1.32,0,0,0-.14.59v2.83a7.18,7.18,0,0,1-7.4,7.17A7.42,7.42,0,0,1,106.41,50.4Zm6.87,10.18h.31a9.84,9.84,0,0,0,2.92-.44v.53a3.17,3.17,0,0,0,.1.77l-3,3-3-3a3.64,3.64,0,0,0,.08-.79v-.56A9.29,9.29,0,0,0,113.29,60.57Z"/><path class="cls-2" d="M27.67,89.27a14.17,14.17,0,0,1,7.7,2.31,14.17,14.17,0,0,1-7.52,2.84,14,14,0,0,1-7.67-2.31A14,14,0,0,1,27.67,89.27Z"/><path class="cls-2" d="M34.16,82.55A14.17,14.17,0,0,1,36,90.37a14.17,14.17,0,0,1-6.22-5.1A14,14,0,0,1,28,77.48,14,14,0,0,1,34.16,82.55Z"/><path class="cls-2" d="M18,80a14.17,14.17,0,0,1,6.84,4.22,14.17,14.17,0,0,1-8,.79A14,14,0,0,1,10,80.83,14,14,0,0,1,18,80Z"/><path class="cls-2" d="M26,75.21a14.17,14.17,0,0,1-.23,8,14.17,14.17,0,0,1-4.69-6.53,14,14,0,0,1,.24-8A14,14,0,0,1,26,75.21Z"/><path class="cls-2" d="M11.05,68.59a14.17,14.17,0,0,1,5.52,5.85,14.17,14.17,0,0,1-7.94-1.3,14,14,0,0,1-5.49-5.83A14,14,0,0,1,11.05,68.59Z"/><path class="cls-2" d="M20,66a14.17,14.17,0,0,1-2.31,7.7,14.17,14.17,0,0,1-2.84-7.52,14,14,0,0,1,2.31-7.67A14,14,0,0,1,20,66Z"/><path class="cls-2" d="M7.3,55.75a14.17,14.17,0,0,1,3.82,7.08,14.17,14.17,0,0,1-7.33-3.31A14,14,0,0,1,0,52.46,14,14,0,0,1,7.3,55.75Z"/><path class="cls-2" d="M16.65,55.58a14.17,14.17,0,0,1-4.22,6.84,14.17,14.17,0,0,1-.79-8,14,14,0,0,1,4.21-6.81A14,14,0,0,1,16.65,55.58Z"/><path class="cls-2" d="M7,42.37A14.17,14.17,0,0,1,8.85,50.2a14.17,14.17,0,0,1-6.22-5.1A14,14,0,0,1,.8,37.31,14,14,0,0,1,7,42.37Z"/><path class="cls-2" d="M16.07,44.63a14.17,14.17,0,0,1-5.85,5.52,14.17,14.17,0,0,1,1.3-7.94,14,14,0,0,1,5.83-5.49A14,14,0,0,1,16.07,44.63Z"/><path class="cls-2" d="M10.17,29.37a14.17,14.17,0,0,1-.23,8,14.17,14.17,0,0,1-4.69-6.53,14,14,0,0,1,.24-8A14,14,0,0,1,10.17,29.37Z"/><path class="cls-2" d="M18.35,33.9a14.17,14.17,0,0,1-7.08,3.82,14.17,14.17,0,0,1,3.31-7.33,14,14,0,0,1,7.05-3.79A14,14,0,0,1,18.35,33.9Z"/><path class="cls-2" d="M16.6,17.64a14.17,14.17,0,0,1-2.31,7.7,14.17,14.17,0,0,1-2.84-7.52,14,14,0,0,1,2.31-7.67A14,14,0,0,1,16.6,17.64Z"/><path class="cls-2" d="M23.32,24.13A14.17,14.17,0,0,1,15.5,26a14.17,14.17,0,0,1,5.1-6.22,14,14,0,0,1,7.79-1.83A14,14,0,0,1,23.32,24.13Z"/><path class="cls-2" d="M25.84,8a14.17,14.17,0,0,1-4.22,6.84,14.17,14.17,0,0,1-.79-8A14,14,0,0,1,25,0,14,14,0,0,1,25.84,8Z"/><path class="cls-2" d="M30.66,16a14.17,14.17,0,0,1-8-.23,14.17,14.17,0,0,1,6.53-4.69,14,14,0,0,1,8,.24A14,14,0,0,1,30.66,16Z"/><path class="cls-2" d="M140,89.27a14.17,14.17,0,0,0-7.7,2.31,14.17,14.17,0,0,0,7.52,2.84,14,14,0,0,0,7.67-2.31A14,14,0,0,0,140,89.27Z"/><path class="cls-2" d="M133.54,82.55a14.17,14.17,0,0,0-1.85,7.82,14.17,14.17,0,0,0,6.22-5.1,14,14,0,0,0,1.83-7.79A14,14,0,0,0,133.54,82.55Z"/><path class="cls-2" d="M149.7,80a14.17,14.17,0,0,0-6.84,4.22,14.17,14.17,0,0,0,8,.79,14,14,0,0,0,6.81-4.21A14,14,0,0,0,149.7,80Z"/><path class="cls-2" d="M141.69,75.21a14.17,14.17,0,0,0,.23,8,14.17,14.17,0,0,0,4.69-6.53,14,14,0,0,0-.24-8A14,14,0,0,0,141.69,75.21Z"/><path class="cls-2" d="M156.65,68.59a14.17,14.17,0,0,0-5.52,5.85,14.17,14.17,0,0,0,7.94-1.3,14,14,0,0,0,5.49-5.83A14,14,0,0,0,156.65,68.59Z"/><path class="cls-2" d="M147.67,66a14.17,14.17,0,0,0,2.31,7.7,14.17,14.17,0,0,0,2.84-7.52,14,14,0,0,0-2.31-7.67A14,14,0,0,0,147.67,66Z"/><path class="cls-2" d="M160.41,55.75a14.17,14.17,0,0,0-3.82,7.08,14.17,14.17,0,0,0,7.33-3.31,14,14,0,0,0,3.79-7.05A14,14,0,0,0,160.41,55.75Z"/><path class="cls-2" d="M151.06,55.58a14.17,14.17,0,0,0,4.22,6.84,14.17,14.17,0,0,0,.79-8,14,14,0,0,0-4.21-6.81A14,14,0,0,0,151.06,55.58Z"/><path class="cls-2" d="M160.71,42.37a14.17,14.17,0,0,0-1.85,7.82,14.17,14.17,0,0,0,6.22-5.1,14,14,0,0,0,1.83-7.79A14,14,0,0,0,160.71,42.37Z"/><path class="cls-2" d="M151.64,44.63a14.17,14.17,0,0,0,5.85,5.52,14.17,14.17,0,0,0-1.3-7.94,14,14,0,0,0-5.83-5.49A14,14,0,0,0,151.64,44.63Z"/><path class="cls-2" d="M157.54,29.37a14.17,14.17,0,0,0,.23,8,14.17,14.17,0,0,0,4.69-6.53,14,14,0,0,0-.24-8A14,14,0,0,0,157.54,29.37Z"/><path class="cls-2" d="M149.36,33.9a14.17,14.17,0,0,0,7.08,3.82,14.17,14.17,0,0,0-3.31-7.33,14,14,0,0,0-7.05-3.79A14,14,0,0,0,149.36,33.9Z"/><path class="cls-2" d="M151.11,17.64a14.17,14.17,0,0,0,2.31,7.7,14.17,14.17,0,0,0,2.84-7.52,14,14,0,0,0-2.31-7.67A14,14,0,0,0,151.11,17.64Z"/><path class="cls-2" d="M144.38,24.13A14.17,14.17,0,0,0,152.21,26a14.17,14.17,0,0,0-5.1-6.22,14,14,0,0,0-7.79-1.83A14,14,0,0,0,144.38,24.13Z"/><path class="cls-2" d="M141.86,8a14.17,14.17,0,0,0,4.22,6.84,14.17,14.17,0,0,0,.79-8A14,14,0,0,0,142.66,0,14,14,0,0,0,141.86,8Z"/><path class="cls-2" d="M137,16a14.17,14.17,0,0,0,8-.23,14.17,14.17,0,0,0-6.53-4.69,14,14,0,0,0-8,.24A14,14,0,0,0,137,16Z"/><text class="cls-3" transform="translate(43.97 138.71)">320 de <tspan x="-27.22" y="30">participa</tspan><tspan class="cls-4" x="76.97" y="30">n</tspan><tspan x="91.77" y="30">ti</tspan></text></g></g></svg>