<svg xmlns="http://www.w3.org/2000/svg" viewBox="0 0 167.71 174.38"><defs><style>.cls-1{fill:#f05930;}.cls-2{fill:#00585e;}.cls-3{font-size:25px;fill:#009494;font-family:Raleway-SemiBold, Raleway;font-weight:700;}</style></defs><title>icon1</title><g id="Layer_2" data-name="Layer 2"><g id="Layer_1-2" data-name="Layer 1"><path class="cls-1" d="M77.61,77.34a1.56,1.56,0,1,0,1.56,1.56A1.56,1.56,0,0,0,77.61,77.34Z"/><path class="cls-1" d="M87,61.73H85.41V50.8a1.56,1.56,0,0,0-1.56-1.56H80.73a1.56,1.56,0,0,0,0,3.12h1.56v9.37H80.73a1.56,1.56,0,0,0,0,3.12H87a1.56,1.56,0,0,0,0-3.12Z"/><path class="cls-1" d="M61.53,71.1a1.56,1.56,0,0,0,1.56-1.56V63.29a1.56,1.56,0,0,0-1.56-1.56H55.29a1.56,1.56,0,0,0,0,3.12H60V68H55.29a1.56,1.56,0,0,0-1.56,1.56v6.24a1.56,1.56,0,0,0,1.56,1.56h6.24a1.56,1.56,0,0,0,0-3.12H56.85V71.1Z"/><path class="cls-1" d="M112.42,64.85h-6.24a1.56,1.56,0,1,0,0,3.12h4.68V71.1h-4.68a1.56,1.56,0,1,0,0,3.12h4.68v3.12h-4.68a1.56,1.56,0,1,0,0,3.12h6.24A1.56,1.56,0,0,0,114,78.9V66.41A1.56,1.56,0,0,0,112.42,64.85Z"/><path class="cls-1" d="M122.25,58.61H97.9V44.09a1.56,1.56,0,0,0-1.56-1.56h-25a1.56,1.56,0,0,0-1.56,1.56v8.27H45.45a1.56,1.56,0,0,0-1.56,1.56V85.61a1.56,1.56,0,0,0,1.56,1.56h76.8a1.56,1.56,0,0,0,1.56-1.56V60.17A1.56,1.56,0,0,0,122.25,58.61ZM69.8,84.05H47V55.49H69.8Zm25,0H72.93V45.65H94.78Zm25.91,0H97.9V61.73h22.79Z"/><path class="cls-1" d="M99.35,19.15a1.56,1.56,0,0,0-1.26-1.06L89.2,16.79l-4-8.64a1.56,1.56,0,0,0-2.83,0l-4,8.64-8.89,1.29a1.56,1.56,0,0,0-.87,2.66L75.08,27l-1.53,9.35A1.56,1.56,0,0,0,75.82,38l8-4.19,8,4.19A1.56,1.56,0,0,0,94,36.39L92.5,27,99,20.75A1.56,1.56,0,0,0,99.35,19.15Zm-9.61,6.22a1.56,1.56,0,0,0-.45,1.37l1.16,7.06-5.92-3.12a1.56,1.56,0,0,0-1.45,0L77.14,33.8l1.16-7.06a1.56,1.56,0,0,0-.45-1.37l-4.77-4.65,6.59-1a1.56,1.56,0,0,0,1.19-.89l2.93-6.34,2.93,6.34a1.56,1.56,0,0,0,1.19.89l6.59,1Z"/><path class="cls-1" d="M90.1,77.34H83.85a1.56,1.56,0,1,0,0,3.12H90.1a1.56,1.56,0,1,0,0-3.12Z"/><path class="cls-2" d="M27.67,89.27a14.17,14.17,0,0,1,7.7,2.31,14.17,14.17,0,0,1-7.52,2.84,14,14,0,0,1-7.67-2.31A14,14,0,0,1,27.67,89.27Z"/><path class="cls-2" d="M34.16,82.55A14.17,14.17,0,0,1,36,90.37a14.17,14.17,0,0,1-6.22-5.1A14,14,0,0,1,28,77.48,14,14,0,0,1,34.16,82.55Z"/><path class="cls-2" d="M18,80a14.17,14.17,0,0,1,6.84,4.22,14.17,14.17,0,0,1-8,.79A14,14,0,0,1,10,80.83,14,14,0,0,1,18,80Z"/><path class="cls-2" d="M26,75.21a14.17,14.17,0,0,1-.23,8,14.17,14.17,0,0,1-4.69-6.53,14,14,0,0,1,.24-8A14,14,0,0,1,26,75.21Z"/><path class="cls-2" d="M11.05,68.59a14.17,14.17,0,0,1,5.52,5.85,14.17,14.17,0,0,1-7.94-1.3,14,14,0,0,1-5.49-5.83A14,14,0,0,1,11.05,68.59Z"/><path class="cls-2" d="M20,66a14.17,14.17,0,0,1-2.31,7.7,14.17,14.17,0,0,1-2.84-7.52,14,14,0,0,1,2.31-7.67A14,14,0,0,1,20,66Z"/><path class="cls-2" d="M7.3,55.75a14.17,14.17,0,0,1,3.82,7.08,14.17,14.17,0,0,1-7.33-3.31A14,14,0,0,1,0,52.46,14,14,0,0,1,7.3,55.75Z"/><path class="cls-2" d="M16.65,55.58a14.17,14.17,0,0,1-4.22,6.84,14.17,14.17,0,0,1-.79-8,14,14,0,0,1,4.21-6.81A14,14,0,0,1,16.65,55.58Z"/><path class="cls-2" d="M7,42.37A14.17,14.17,0,0,1,8.85,50.2a14.17,14.17,0,0,1-6.22-5.1A14,14,0,0,1,.8,37.31,14,14,0,0,1,7,42.37Z"/><path class="cls-2" d="M16.07,44.63a14.17,14.17,0,0,1-5.85,5.52,14.17,14.17,0,0,1,1.3-7.94,14,14,0,0,1,5.83-5.49A14,14,0,0,1,16.07,44.63Z"/><path class="cls-2" d="M10.17,29.37a14.17,14.17,0,0,1-.23,8,14.17,14.17,0,0,1-4.69-6.53,14,14,0,0,1,.24-8A14,14,0,0,1,10.17,29.37Z"/><path class="cls-2" d="M18.35,33.9a14.17,14.17,0,0,1-7.08,3.82,14.17,14.17,0,0,1,3.31-7.33,14,14,0,0,1,7.05-3.79A14,14,0,0,1,18.35,33.9Z"/><path class="cls-2" d="M16.6,17.64a14.17,14.17,0,0,1-2.31,7.7,14.17,14.17,0,0,1-2.84-7.52,14,14,0,0,1,2.31-7.67A14,14,0,0,1,16.6,17.64Z"/><path class="cls-2" d="M23.32,24.13A14.17,14.17,0,0,1,15.5,26a14.17,14.17,0,0,1,5.1-6.22,14,14,0,0,1,7.79-1.83A14,14,0,0,1,23.32,24.13Z"/><path class="cls-2" d="M25.84,8a14.17,14.17,0,0,1-4.22,6.84,14.17,14.17,0,0,1-.79-8A14,14,0,0,1,25,0,14,14,0,0,1,25.84,8Z"/><path class="cls-2" d="M30.66,16a14.17,14.17,0,0,1-8-.23,14.17,14.17,0,0,1,6.53-4.69,14,14,0,0,1,8,.24A14,14,0,0,1,30.66,16Z"/><path class="cls-2" d="M140,89.27a14.17,14.17,0,0,0-7.7,2.31,14.17,14.17,0,0,0,7.52,2.84,14,14,0,0,0,7.67-2.31A14,14,0,0,0,140,89.27Z"/><path class="cls-2" d="M133.54,82.55a14.17,14.17,0,0,0-1.85,7.82,14.17,14.17,0,0,0,6.22-5.1,14,14,0,0,0,1.83-7.79A14,14,0,0,0,133.54,82.55Z"/><path class="cls-2" d="M149.7,80a14.17,14.17,0,0,0-6.84,4.22,14.17,14.17,0,0,0,8,.79,14,14,0,0,0,6.81-4.21A14,14,0,0,0,149.7,80Z"/><path class="cls-2" d="M141.69,75.21a14.17,14.17,0,0,0,.23,8,14.17,14.17,0,0,0,4.69-6.53,14,14,0,0,0-.24-8A14,14,0,0,0,141.69,75.21Z"/><path class="cls-2" d="M156.65,68.59a14.17,14.17,0,0,0-5.52,5.85,14.17,14.17,0,0,0,7.94-1.3,14,14,0,0,0,5.49-5.83A14,14,0,0,0,156.65,68.59Z"/><path class="cls-2" d="M147.67,66a14.17,14.17,0,0,0,2.31,7.7,14.17,14.17,0,0,0,2.84-7.52,14,14,0,0,0-2.31-7.67A14,14,0,0,0,147.67,66Z"/><path class="cls-2" d="M160.41,55.75a14.17,14.17,0,0,0-3.82,7.08,14.17,14.17,0,0,0,7.33-3.31,14,14,0,0,0,3.79-7.05A14,14,0,0,0,160.41,55.75Z"/><path class="cls-2" d="M151.06,55.58a14.17,14.17,0,0,0,4.22,6.84,14.17,14.17,0,0,0,.79-8,14,14,0,0,0-4.21-6.81A14,14,0,0,0,151.06,55.58Z"/><path class="cls-2" d="M160.71,42.37a14.17,14.17,0,0,0-1.85,7.82,14.17,14.17,0,0,0,6.22-5.1,14,14,0,0,0,1.83-7.79A14,14,0,0,0,160.71,42.37Z"/><path class="cls-2" d="M151.64,44.63a14.17,14.17,0,0,0,5.85,5.52,14.17,14.17,0,0,0-1.3-7.94,14,14,0,0,0-5.83-5.49A14,14,0,0,0,151.64,44.63Z"/><path class="cls-2" d="M157.54,29.37a14.17,14.17,0,0,0,.23,8,14.17,14.17,0,0,0,4.69-6.53,14,14,0,0,0-.24-8A14,14,0,0,0,157.54,29.37Z"/><path class="cls-2" d="M149.36,33.9a14.17,14.17,0,0,0,7.08,3.82,14.17,14.17,0,0,0-3.31-7.33,14,14,0,0,0-7.05-3.79A14,14,0,0,0,149.36,33.9Z"/><path class="cls-2" d="M151.11,17.64a14.17,14.17,0,0,0,2.31,7.7,14.17,14.17,0,0,0,2.84-7.52,14,14,0,0,0-2.31-7.67A14,14,0,0,0,151.11,17.64Z"/><path class="cls-2" d="M144.38,24.13A14.17,14.17,0,0,0,152.21,26a14.17,14.17,0,0,0-5.1-6.22,14,14,0,0,0-7.79-1.83A14,14,0,0,0,144.38,24.13Z"/><path class="cls-2" d="M141.86,8a14.17,14.17,0,0,0,4.22,6.84,14.17,14.17,0,0,0,.79-8A14,14,0,0,0,142.66,0,14,14,0,0,0,141.86,8Z"/><path class="cls-2" d="M137,16a14.17,14.17,0,0,0,8-.23,14.17,14.17,0,0,0-6.53-4.69,14,14,0,0,0-8,.24A14,14,0,0,0,137,16Z"/><text class="cls-3" transform="translate(70.29 138.71)">10<tspan x="-32.59" y="30">sporturi</tspan></text></g></g></svg>