<svg xmlns="http://www.w3.org/2000/svg" viewBox="0 0 100.16 72.99"><defs><style>.cls-1{fill:#ff5729;}.cls-2{fill:#00585e;}</style></defs><title>loc1</title><g id="Layer_2" data-name="Layer 2"><g id="Layer_1-2" data-name="Layer 1"><path class="cls-1" d="M64.6,47.71V56H36.92V47.71H46.6V27.06a7.4,7.4,0,0,1-1.94,1.67,26.47,26.47,0,0,1-2.9,1.6,20.36,20.36,0,0,1-3.24,1.23,10.91,10.91,0,0,1-3,.48V23.51a7.72,7.72,0,0,0,3-.78A25.88,25.88,0,0,0,42,20.86a28.81,28.81,0,0,0,3-2.15A7.24,7.24,0,0,0,46.6,17h9.34V47.71Z"/><path class="cls-2" d="M21.39,69a11,11,0,0,1,6,1.78A11,11,0,0,1,21.53,73a10.8,10.8,0,0,1-5.93-1.78A10.8,10.8,0,0,1,21.39,69Z"/><path class="cls-2" d="M26.41,63.81a11,11,0,0,1,1.43,6A11,11,0,0,1,23,65.92a10.8,10.8,0,0,1-1.42-6A10.8,10.8,0,0,1,26.41,63.81Z"/><path class="cls-2" d="M13.92,61.87a11,11,0,0,1,5.29,3.26,11,11,0,0,1-6.19.61,10.8,10.8,0,0,1-5.26-3.26A10.8,10.8,0,0,1,13.92,61.87Z"/><path class="cls-2" d="M20.11,58.14a11,11,0,0,1-.18,6.21,11,11,0,0,1-3.62-5.05,10.8,10.8,0,0,1,.19-6.19A10.8,10.8,0,0,1,20.11,58.14Z"/><path class="cls-2" d="M8.54,53a11,11,0,0,1,4.27,4.52,11,11,0,0,1-6.13-1A10.8,10.8,0,0,1,2.44,52,10.8,10.8,0,0,1,8.54,53Z"/><path class="cls-2" d="M15.49,51a11,11,0,0,1-1.78,6,11,11,0,0,1-2.19-5.82,10.8,10.8,0,0,1,1.78-5.93A10.8,10.8,0,0,1,15.49,51Z"/><path class="cls-2" d="M5.64,43.1a11,11,0,0,1,3,5.47A11,11,0,0,1,2.93,46,10.8,10.8,0,0,1,0,40.56,10.8,10.8,0,0,1,5.64,43.1Z"/><path class="cls-2" d="M12.87,43A11,11,0,0,1,9.6,48.26,11,11,0,0,1,9,42.07a10.8,10.8,0,0,1,3.26-5.26A10.8,10.8,0,0,1,12.87,43Z"/><path class="cls-2" d="M5.41,32.76a11,11,0,0,1,1.43,6A11,11,0,0,1,2,34.86a10.8,10.8,0,0,1-1.42-6A10.8,10.8,0,0,1,5.41,32.76Z"/><path class="cls-2" d="M12.42,34.5A11,11,0,0,1,7.9,38.77a11,11,0,0,1,1-6.13,10.8,10.8,0,0,1,4.51-4.24A10.8,10.8,0,0,1,12.42,34.5Z"/><path class="cls-2" d="M7.86,22.71a11,11,0,0,1-.18,6.21,11,11,0,0,1-3.62-5.05,10.8,10.8,0,0,1,.19-6.19A10.8,10.8,0,0,1,7.86,22.71Z"/><path class="cls-2" d="M14.18,26.21a11,11,0,0,1-5.47,3,11,11,0,0,1,2.56-5.66,10.8,10.8,0,0,1,5.45-2.93A10.8,10.8,0,0,1,14.18,26.21Z"/><path class="cls-2" d="M12.83,13.63a11,11,0,0,1-1.78,6,11,11,0,0,1-2.19-5.82,10.8,10.8,0,0,1,1.78-5.93A10.8,10.8,0,0,1,12.83,13.63Z"/><path class="cls-2" d="M18,18.65a11,11,0,0,1-6,1.43,11,11,0,0,1,3.94-4.81,10.8,10.8,0,0,1,6-1.42A10.8,10.8,0,0,1,18,18.65Z"/><path class="cls-2" d="M20,6.16a11,11,0,0,1-3.26,5.29,11,11,0,0,1-.61-6.19A10.8,10.8,0,0,1,19.36,0,10.8,10.8,0,0,1,20,6.16Z"/><path class="cls-2" d="M23.7,12.35a11,11,0,0,1-6.21-.18,11,11,0,0,1,5.05-3.62,10.8,10.8,0,0,1,6.19.19A10.8,10.8,0,0,1,23.7,12.35Z"/><path class="cls-2" d="M78.76,69a11,11,0,0,0-6,1.78A11,11,0,0,0,78.62,73a10.8,10.8,0,0,0,5.93-1.78A10.8,10.8,0,0,0,78.76,69Z"/><path class="cls-2" d="M73.74,63.81a11,11,0,0,0-1.43,6,11,11,0,0,0,4.81-3.94,10.8,10.8,0,0,0,1.42-6A10.8,10.8,0,0,0,73.74,63.81Z"/><path class="cls-2" d="M86.24,61.87a11,11,0,0,0-5.29,3.26,11,11,0,0,0,6.19.61,10.8,10.8,0,0,0,5.26-3.26A10.8,10.8,0,0,0,86.24,61.87Z"/><path class="cls-2" d="M80,58.14a11,11,0,0,0,.18,6.21,11,11,0,0,0,3.62-5.05,10.8,10.8,0,0,0-.19-6.19A10.8,10.8,0,0,0,80,58.14Z"/><path class="cls-2" d="M91.61,53a11,11,0,0,0-4.27,4.52,11,11,0,0,0,6.13-1A10.8,10.8,0,0,0,97.72,52,10.8,10.8,0,0,0,91.61,53Z"/><path class="cls-2" d="M84.67,51a11,11,0,0,0,1.78,6,11,11,0,0,0,2.19-5.82,10.8,10.8,0,0,0-1.78-5.93A10.8,10.8,0,0,0,84.67,51Z"/><path class="cls-2" d="M94.51,43.1a11,11,0,0,0-3,5.47A11,11,0,0,0,97.23,46a10.8,10.8,0,0,0,2.93-5.45A10.8,10.8,0,0,0,94.51,43.1Z"/><path class="cls-2" d="M87.29,43a11,11,0,0,0,3.26,5.29,11,11,0,0,0,.61-6.19,10.8,10.8,0,0,0-3.26-5.26A10.8,10.8,0,0,0,87.29,43Z"/><path class="cls-2" d="M94.75,32.76a11,11,0,0,0-1.43,6,11,11,0,0,0,4.81-3.94,10.8,10.8,0,0,0,1.42-6A10.8,10.8,0,0,0,94.75,32.76Z"/><path class="cls-2" d="M87.73,34.5a11,11,0,0,0,4.52,4.27,11,11,0,0,0-1-6.13,10.8,10.8,0,0,0-4.51-4.24A10.8,10.8,0,0,0,87.73,34.5Z"/><path class="cls-2" d="M92.29,22.71a11,11,0,0,0,.18,6.21,11,11,0,0,0,3.62-5.05,10.8,10.8,0,0,0-.19-6.19A10.8,10.8,0,0,0,92.29,22.71Z"/><path class="cls-2" d="M86,26.21a11,11,0,0,0,5.47,3,11,11,0,0,0-2.56-5.66,10.8,10.8,0,0,0-5.45-2.93A10.8,10.8,0,0,0,86,26.21Z"/><path class="cls-2" d="M87.32,13.63a11,11,0,0,0,1.78,6,11,11,0,0,0,2.19-5.82,10.8,10.8,0,0,0-1.78-5.93A10.8,10.8,0,0,0,87.32,13.63Z"/><path class="cls-2" d="M82.13,18.65a11,11,0,0,0,6,1.43,11,11,0,0,0-3.94-4.81,10.8,10.8,0,0,0-6-1.42A10.8,10.8,0,0,0,82.13,18.65Z"/><path class="cls-2" d="M80.18,6.16a11,11,0,0,0,3.26,5.29,11,11,0,0,0,.61-6.19A10.8,10.8,0,0,0,80.8,0,10.8,10.8,0,0,0,80.18,6.16Z"/><path class="cls-2" d="M76.45,12.35a11,11,0,0,0,6.21-.18,11,11,0,0,0-5.05-3.62,10.8,10.8,0,0,0-6.19.19A10.8,10.8,0,0,0,76.45,12.35Z"/></g></g></svg>