<svg xmlns="http://www.w3.org/2000/svg" viewBox="0 0 100.16 72.99"><defs><style>.cls-1{fill:#ff5729;}.cls-2{fill:#00585e;}</style></defs><title>loc2</title><g id="Layer_2" data-name="Layer 2"><g id="Layer_1-2" data-name="Layer 1"><path class="cls-1" d="M33.65,56.3a29.62,29.62,0,0,1,.48-5.55,15.05,15.05,0,0,1,1.67-4.6,15.47,15.47,0,0,1,3.27-4,29.65,29.65,0,0,1,5.28-3.61L49.29,36a39.51,39.51,0,0,0,3.58-2.08,8.92,8.92,0,0,0,2.18-1.94,3.68,3.68,0,0,0,.75-2.28,4.56,4.56,0,0,0-1.64-3.51,6.82,6.82,0,0,0-4.7-1.46,9.68,9.68,0,0,0-3,.44,11.38,11.38,0,0,0-2.56,1.19A14.48,14.48,0,0,0,41.73,28a18.22,18.22,0,0,0-1.81,1.94l-5.86-6.75a15.4,15.4,0,0,1,2.52-2.08A24.4,24.4,0,0,1,40.43,19a28.42,28.42,0,0,1,4.91-1.64,24.61,24.61,0,0,1,5.76-.65,20.8,20.8,0,0,1,6.2.85,13.58,13.58,0,0,1,4.6,2.39,10.24,10.24,0,0,1,2.86,3.68,11,11,0,0,1,1,4.67,9.63,9.63,0,0,1-.89,4.23,12.69,12.69,0,0,1-2.25,3.27,17.11,17.11,0,0,1-3,2.49q-1.6,1.06-3.1,1.87l-2.79,1.57q-1.57.89-3.1,1.94a32,32,0,0,0-2.83,2.18,10.07,10.07,0,0,0-2,2.21H66.5V56.3Z"/><path class="cls-2" d="M21.39,69a11,11,0,0,1,6,1.78A11,11,0,0,1,21.53,73a10.8,10.8,0,0,1-5.93-1.78A10.8,10.8,0,0,1,21.39,69Z"/><path class="cls-2" d="M26.41,63.81a11,11,0,0,1,1.43,6A11,11,0,0,1,23,65.92a10.8,10.8,0,0,1-1.42-6A10.8,10.8,0,0,1,26.41,63.81Z"/><path class="cls-2" d="M13.92,61.87a11,11,0,0,1,5.29,3.26,11,11,0,0,1-6.19.61,10.8,10.8,0,0,1-5.26-3.26A10.8,10.8,0,0,1,13.92,61.87Z"/><path class="cls-2" d="M20.11,58.14a11,11,0,0,1-.18,6.21,11,11,0,0,1-3.62-5.05,10.8,10.8,0,0,1,.19-6.19A10.8,10.8,0,0,1,20.11,58.14Z"/><path class="cls-2" d="M8.54,53a11,11,0,0,1,4.27,4.52,11,11,0,0,1-6.13-1A10.8,10.8,0,0,1,2.44,52,10.8,10.8,0,0,1,8.54,53Z"/><path class="cls-2" d="M15.49,51a11,11,0,0,1-1.78,6,11,11,0,0,1-2.19-5.82,10.8,10.8,0,0,1,1.78-5.93A10.8,10.8,0,0,1,15.49,51Z"/><path class="cls-2" d="M5.64,43.1a11,11,0,0,1,3,5.47A11,11,0,0,1,2.93,46,10.8,10.8,0,0,1,0,40.56,10.8,10.8,0,0,1,5.64,43.1Z"/><path class="cls-2" d="M12.87,43A11,11,0,0,1,9.6,48.26,11,11,0,0,1,9,42.07a10.8,10.8,0,0,1,3.26-5.26A10.8,10.8,0,0,1,12.87,43Z"/><path class="cls-2" d="M5.41,32.76a11,11,0,0,1,1.43,6A11,11,0,0,1,2,34.86a10.8,10.8,0,0,1-1.42-6A10.8,10.8,0,0,1,5.41,32.76Z"/><path class="cls-2" d="M12.42,34.5A11,11,0,0,1,7.9,38.77a11,11,0,0,1,1-6.13,10.8,10.8,0,0,1,4.51-4.24A10.8,10.8,0,0,1,12.42,34.5Z"/><path class="cls-2" d="M7.86,22.71a11,11,0,0,1-.18,6.21,11,11,0,0,1-3.62-5.05,10.8,10.8,0,0,1,.19-6.19A10.8,10.8,0,0,1,7.86,22.71Z"/><path class="cls-2" d="M14.18,26.21a11,11,0,0,1-5.47,3,11,11,0,0,1,2.56-5.66,10.8,10.8,0,0,1,5.45-2.93A10.8,10.8,0,0,1,14.18,26.21Z"/><path class="cls-2" d="M12.83,13.63a11,11,0,0,1-1.78,6,11,11,0,0,1-2.19-5.82,10.8,10.8,0,0,1,1.78-5.93A10.8,10.8,0,0,1,12.83,13.63Z"/><path class="cls-2" d="M18,18.65a11,11,0,0,1-6,1.43,11,11,0,0,1,3.94-4.81,10.8,10.8,0,0,1,6-1.42A10.8,10.8,0,0,1,18,18.65Z"/><path class="cls-2" d="M20,6.16a11,11,0,0,1-3.26,5.29,11,11,0,0,1-.61-6.19A10.8,10.8,0,0,1,19.36,0,10.8,10.8,0,0,1,20,6.16Z"/><path class="cls-2" d="M23.7,12.35a11,11,0,0,1-6.21-.18,11,11,0,0,1,5.05-3.62,10.8,10.8,0,0,1,6.19.19A10.8,10.8,0,0,1,23.7,12.35Z"/><path class="cls-2" d="M78.76,69a11,11,0,0,0-6,1.78A11,11,0,0,0,78.62,73a10.8,10.8,0,0,0,5.93-1.78A10.8,10.8,0,0,0,78.76,69Z"/><path class="cls-2" d="M73.74,63.81a11,11,0,0,0-1.43,6,11,11,0,0,0,4.81-3.94,10.8,10.8,0,0,0,1.42-6A10.8,10.8,0,0,0,73.74,63.81Z"/><path class="cls-2" d="M86.24,61.87a11,11,0,0,0-5.29,3.26,11,11,0,0,0,6.19.61,10.8,10.8,0,0,0,5.26-3.26A10.8,10.8,0,0,0,86.24,61.87Z"/><path class="cls-2" d="M80,58.14a11,11,0,0,0,.18,6.21,11,11,0,0,0,3.62-5.05,10.8,10.8,0,0,0-.19-6.19A10.8,10.8,0,0,0,80,58.14Z"/><path class="cls-2" d="M91.61,53a11,11,0,0,0-4.27,4.52,11,11,0,0,0,6.13-1A10.8,10.8,0,0,0,97.72,52,10.8,10.8,0,0,0,91.61,53Z"/><path class="cls-2" d="M84.67,51a11,11,0,0,0,1.78,6,11,11,0,0,0,2.19-5.82,10.8,10.8,0,0,0-1.78-5.93A10.8,10.8,0,0,0,84.67,51Z"/><path class="cls-2" d="M94.51,43.1a11,11,0,0,0-3,5.47A11,11,0,0,0,97.23,46a10.8,10.8,0,0,0,2.93-5.45A10.8,10.8,0,0,0,94.51,43.1Z"/><path class="cls-2" d="M87.29,43a11,11,0,0,0,3.26,5.29,11,11,0,0,0,.61-6.19,10.8,10.8,0,0,0-3.26-5.26A10.8,10.8,0,0,0,87.29,43Z"/><path class="cls-2" d="M94.75,32.76a11,11,0,0,0-1.43,6,11,11,0,0,0,4.81-3.94,10.8,10.8,0,0,0,1.42-6A10.8,10.8,0,0,0,94.75,32.76Z"/><path class="cls-2" d="M87.73,34.5a11,11,0,0,0,4.52,4.27,11,11,0,0,0-1-6.13,10.8,10.8,0,0,0-4.51-4.24A10.8,10.8,0,0,0,87.73,34.5Z"/><path class="cls-2" d="M92.29,22.71a11,11,0,0,0,.18,6.21,11,11,0,0,0,3.62-5.05,10.8,10.8,0,0,0-.19-6.19A10.8,10.8,0,0,0,92.29,22.71Z"/><path class="cls-2" d="M86,26.21a11,11,0,0,0,5.47,3,11,11,0,0,0-2.56-5.66,10.8,10.8,0,0,0-5.45-2.93A10.8,10.8,0,0,0,86,26.21Z"/><path class="cls-2" d="M87.32,13.63a11,11,0,0,0,1.78,6,11,11,0,0,0,2.19-5.82,10.8,10.8,0,0,0-1.78-5.93A10.8,10.8,0,0,0,87.32,13.63Z"/><path class="cls-2" d="M82.13,18.65a11,11,0,0,0,6,1.43,11,11,0,0,0-3.94-4.81,10.8,10.8,0,0,0-6-1.42A10.8,10.8,0,0,0,82.13,18.65Z"/><path class="cls-2" d="M80.18,6.16a11,11,0,0,0,3.26,5.29,11,11,0,0,0,.61-6.19A10.8,10.8,0,0,0,80.8,0,10.8,10.8,0,0,0,80.18,6.16Z"/><path class="cls-2" d="M76.45,12.35a11,11,0,0,0,6.21-.18,11,11,0,0,0-5.05-3.62,10.8,10.8,0,0,0-6.19.19A10.8,10.8,0,0,0,76.45,12.35Z"/></g></g></svg>