<svg xmlns="http://www.w3.org/2000/svg" viewBox="0 0 100.16 72.99"><defs><style>.cls-1{fill:#ff5729;}.cls-2{fill:#00585e;}</style></defs><title>loc3</title><g id="Layer_2" data-name="Layer 2"><g id="Layer_1-2" data-name="Layer 1"><path class="cls-1" d="M56.07,35.29a8.94,8.94,0,0,1,5.62,3.33,10.33,10.33,0,0,1,2.15,6.63,10.73,10.73,0,0,1-1,4.76,10.32,10.32,0,0,1-2.91,3.61,13.63,13.63,0,0,1-4.56,2.29,20.88,20.88,0,0,1-6,.81,19.37,19.37,0,0,1-7.53-1.37,14,14,0,0,1-5.46-4L40.56,46A10.18,10.18,0,0,0,44,48.89a11.22,11.22,0,0,0,5,1,8.58,8.58,0,0,0,5.2-1.34,4.84,4.84,0,0,0,1.79-4.14A5.28,5.28,0,0,0,54,39.94q-2.07-1.57-6.27-1.57H46.16v-5.6h1.73a8.34,8.34,0,0,0,5.37-1.54,4.85,4.85,0,0,0,1.9-3.95,3.92,3.92,0,0,0-1.57-3.41,6.88,6.88,0,0,0-4.09-1.12,9.08,9.08,0,0,0-4.62,1.18,9.25,9.25,0,0,0-3.33,3.3L36.87,22a9.08,9.08,0,0,1,2.24-2.32,15.68,15.68,0,0,1,3.16-1.79,19.67,19.67,0,0,1,3.83-1.18,21.33,21.33,0,0,1,4.25-.42,17.55,17.55,0,0,1,5.2.73,13.11,13.11,0,0,1,4.06,2,8.93,8.93,0,0,1,2.63,3.11,8.84,8.84,0,0,1,.92,4.06,10,10,0,0,1-.5,3.19,9.22,9.22,0,0,1-1.46,2.74,8.87,8.87,0,0,1-2.27,2.07A7.85,7.85,0,0,1,56.07,35.29Z"/><path class="cls-2" d="M21.39,69a11,11,0,0,1,6,1.78A11,11,0,0,1,21.53,73a10.8,10.8,0,0,1-5.93-1.78A10.8,10.8,0,0,1,21.39,69Z"/><path class="cls-2" d="M26.41,63.81a11,11,0,0,1,1.43,6A11,11,0,0,1,23,65.92a10.8,10.8,0,0,1-1.42-6A10.8,10.8,0,0,1,26.41,63.81Z"/><path class="cls-2" d="M13.92,61.87a11,11,0,0,1,5.29,3.26,11,11,0,0,1-6.19.61,10.8,10.8,0,0,1-5.26-3.26A10.8,10.8,0,0,1,13.92,61.87Z"/><path class="cls-2" d="M20.11,58.14a11,11,0,0,1-.18,6.21,11,11,0,0,1-3.62-5.05,10.8,10.8,0,0,1,.19-6.19A10.8,10.8,0,0,1,20.11,58.14Z"/><path class="cls-2" d="M8.54,53a11,11,0,0,1,4.27,4.52,11,11,0,0,1-6.13-1A10.8,10.8,0,0,1,2.44,52,10.8,10.8,0,0,1,8.54,53Z"/><path class="cls-2" d="M15.49,51a11,11,0,0,1-1.78,6,11,11,0,0,1-2.19-5.82,10.8,10.8,0,0,1,1.78-5.93A10.8,10.8,0,0,1,15.49,51Z"/><path class="cls-2" d="M5.64,43.1a11,11,0,0,1,3,5.47A11,11,0,0,1,2.93,46,10.8,10.8,0,0,1,0,40.56,10.8,10.8,0,0,1,5.64,43.1Z"/><path class="cls-2" d="M12.87,43A11,11,0,0,1,9.6,48.26,11,11,0,0,1,9,42.07a10.8,10.8,0,0,1,3.26-5.26A10.8,10.8,0,0,1,12.87,43Z"/><path class="cls-2" d="M5.41,32.76a11,11,0,0,1,1.43,6A11,11,0,0,1,2,34.86a10.8,10.8,0,0,1-1.42-6A10.8,10.8,0,0,1,5.41,32.76Z"/><path class="cls-2" d="M12.42,34.5A11,11,0,0,1,7.9,38.77a11,11,0,0,1,1-6.13,10.8,10.8,0,0,1,4.51-4.24A10.8,10.8,0,0,1,12.42,34.5Z"/><path class="cls-2" d="M7.86,22.71a11,11,0,0,1-.18,6.21,11,11,0,0,1-3.62-5.05,10.8,10.8,0,0,1,.19-6.19A10.8,10.8,0,0,1,7.86,22.71Z"/><path class="cls-2" d="M14.18,26.21a11,11,0,0,1-5.47,3,11,11,0,0,1,2.56-5.66,10.8,10.8,0,0,1,5.45-2.93A10.8,10.8,0,0,1,14.18,26.21Z"/><path class="cls-2" d="M12.83,13.63a11,11,0,0,1-1.78,6,11,11,0,0,1-2.19-5.82,10.8,10.8,0,0,1,1.78-5.93A10.8,10.8,0,0,1,12.83,13.63Z"/><path class="cls-2" d="M18,18.65a11,11,0,0,1-6,1.43,11,11,0,0,1,3.94-4.81,10.8,10.8,0,0,1,6-1.42A10.8,10.8,0,0,1,18,18.65Z"/><path class="cls-2" d="M20,6.16a11,11,0,0,1-3.26,5.29,11,11,0,0,1-.61-6.19A10.8,10.8,0,0,1,19.36,0,10.8,10.8,0,0,1,20,6.16Z"/><path class="cls-2" d="M23.7,12.35a11,11,0,0,1-6.21-.18,11,11,0,0,1,5.05-3.62,10.8,10.8,0,0,1,6.19.19A10.8,10.8,0,0,1,23.7,12.35Z"/><path class="cls-2" d="M78.76,69a11,11,0,0,0-6,1.78A11,11,0,0,0,78.62,73a10.8,10.8,0,0,0,5.93-1.78A10.8,10.8,0,0,0,78.76,69Z"/><path class="cls-2" d="M73.74,63.81a11,11,0,0,0-1.43,6,11,11,0,0,0,4.81-3.94,10.8,10.8,0,0,0,1.42-6A10.8,10.8,0,0,0,73.74,63.81Z"/><path class="cls-2" d="M86.24,61.87a11,11,0,0,0-5.29,3.26,11,11,0,0,0,6.19.61,10.8,10.8,0,0,0,5.26-3.26A10.8,10.8,0,0,0,86.24,61.87Z"/><path class="cls-2" d="M80,58.14a11,11,0,0,0,.18,6.21,11,11,0,0,0,3.62-5.05,10.8,10.8,0,0,0-.19-6.19A10.8,10.8,0,0,0,80,58.14Z"/><path class="cls-2" d="M91.61,53a11,11,0,0,0-4.27,4.52,11,11,0,0,0,6.13-1A10.8,10.8,0,0,0,97.72,52,10.8,10.8,0,0,0,91.61,53Z"/><path class="cls-2" d="M84.67,51a11,11,0,0,0,1.78,6,11,11,0,0,0,2.19-5.82,10.8,10.8,0,0,0-1.78-5.93A10.8,10.8,0,0,0,84.67,51Z"/><path class="cls-2" d="M94.51,43.1a11,11,0,0,0-3,5.47A11,11,0,0,0,97.23,46a10.8,10.8,0,0,0,2.93-5.45A10.8,10.8,0,0,0,94.51,43.1Z"/><path class="cls-2" d="M87.29,43a11,11,0,0,0,3.26,5.29,11,11,0,0,0,.61-6.19,10.8,10.8,0,0,0-3.26-5.26A10.8,10.8,0,0,0,87.29,43Z"/><path class="cls-2" d="M94.75,32.76a11,11,0,0,0-1.43,6,11,11,0,0,0,4.81-3.94,10.8,10.8,0,0,0,1.42-6A10.8,10.8,0,0,0,94.75,32.76Z"/><path class="cls-2" d="M87.73,34.5a11,11,0,0,0,4.52,4.27,11,11,0,0,0-1-6.13,10.8,10.8,0,0,0-4.51-4.24A10.8,10.8,0,0,0,87.73,34.5Z"/><path class="cls-2" d="M92.29,22.71a11,11,0,0,0,.18,6.21,11,11,0,0,0,3.62-5.05,10.8,10.8,0,0,0-.19-6.19A10.8,10.8,0,0,0,92.29,22.71Z"/><path class="cls-2" d="M86,26.21a11,11,0,0,0,5.47,3,11,11,0,0,0-2.56-5.66,10.8,10.8,0,0,0-5.45-2.93A10.8,10.8,0,0,0,86,26.21Z"/><path class="cls-2" d="M87.32,13.63a11,11,0,0,0,1.78,6,11,11,0,0,0,2.19-5.82,10.8,10.8,0,0,0-1.78-5.93A10.8,10.8,0,0,0,87.32,13.63Z"/><path class="cls-2" d="M82.13,18.65a11,11,0,0,0,6,1.43,11,11,0,0,0-3.94-4.81,10.8,10.8,0,0,0-6-1.42A10.8,10.8,0,0,0,82.13,18.65Z"/><path class="cls-2" d="M80.18,6.16a11,11,0,0,0,3.26,5.29,11,11,0,0,0,.61-6.19A10.8,10.8,0,0,0,80.8,0,10.8,10.8,0,0,0,80.18,6.16Z"/><path class="cls-2" d="M76.45,12.35a11,11,0,0,0,6.21-.18,11,11,0,0,0-5.05-3.62,10.8,10.8,0,0,0-6.19.19A10.8,10.8,0,0,0,76.45,12.35Z"/></g></g></svg>