<svg xmlns="http://www.w3.org/2000/svg" viewBox="0 0 110.57 112.28"><defs><style>.cls-1{isolation:isolate;}.cls-2,.cls-3{fill:#fff;}.cls-3{mix-blend-mode:multiply;}</style></defs><title>logo_white</title><g class="cls-1"><g id="Layer_2" data-name="Layer 2"><g id="Layer_1-2" data-name="Layer 1"><path class="cls-2" d="M49.42,74.81l.91,0-1.57,0Z"/><path class="cls-2" d="M51.33,74.76h.35l-1.34,0Z"/><path class="cls-2" d="M67.16,52.2l-2.55.16v8.16h2.55c.78,0,1.16-.48,1.16-1.29V53.32C68.32,52.53,67.94,52.15,67.16,52.2Z"/><path class="cls-2" d="M9.14,48.31l-1.68-.23c-.75-.1-1.16.39-1.16,1.5v21.9c0,1.15.41,1.6,1.16,1.5l1.68-.23c.75-.1,1.16-.64,1.16-1.75V50.05C10.31,49,9.9,48.41,9.14,48.31Z"/><path class="cls-2" d="M109.76,39.84a1.61,1.61,0,0,0-1.43-.29l-2.06.51q-1.72.42-3.44.81l-.46.1c-1.18.26-2.36.52-3.55.76q-2.89.61-5.77,1.12l-1.83.32q-2.82.48-5.63.89l-.81.12-.4.06c-1.41.19-2.82.38-4.23.54h0c-1.18.14-2.36.27-3.55.39s-2.37.24-3.56.34-2.45.2-3.68.28l-1.59.1h-.16L66.37,46,65.21,46l-1.94.08-1.37,0-1.3,0-1.59,0q-1.86,0-3.72,0t-3.72,0l-1.59,0-1.3,0-1.41,0L45.36,46,44.18,46,43,45.9l-.27,0-1.52-.1c-1.23-.08-2.47-.17-3.7-.28s-2.37-.21-3.56-.34q-3.89-.39-7.79-.93l-.39-.05-2.22-.33c-1.41-.21-2.82-.44-4.22-.68l-1.83-.32q-2.89-.51-5.77-1.12c-1.18-.24-2.37-.5-3.55-.76l-.48-.11L6,40.47l-1.75-.42-2.06-.51a1.63,1.63,0,0,0-1.43.29A2.4,2.4,0,0,0,0,41.72v37a3.31,3.31,0,0,0,1.08,2.49,1.33,1.33,0,0,0,1.15.29l2.41-.6L7,80.33l.17,0,2.13-.48,1.56-.34,1.29-.27c1-.2,2-.4,2.95-.59l2-.38L19,77.9l2.3-.39.1,0,2-.31,2.11-.31,1.41-.2q2.59-.35,5.17-.64l1.66-.18,1.66-.17,1.66-.15q4.25-.38,8.49-.57l1.92-.08,1.28,0,.65,0,.91,0,1,0h4l2.69,0,1.15,0,2.3.06q1.87,0,3.75.14l2.37.13,1.33.08q3.72.24,7.45.62l.94.1,1.22.13,1.58.18q2.26.27,4.53.59l1.21.17,1.36.2,2,.31q2.6.42,5.2.91l1.63.31q1.55.3,3.09.63l2.09.45,2.23.5.17,0,2.37.57,2.41.6a1.32,1.32,0,0,0,1.14-.3,3.29,3.29,0,0,0,1.1-2.49v-37A2.38,2.38,0,0,0,109.76,39.84ZM14,71.53c0,3.58-1.45,5-4.18,5.47l-3.25.55C3.89,78,2.44,77,2.44,73V48c0-4,1.45-5,4.18-4.53l3.25.54c2.73.45,4.18,1.89,4.18,5.47Zm14.22,2.21c0,.3-.15.45-.46.49q-5.2.7-10.39,1.54c-.29,0-.46-.06-.46-.37V45.66c0-.29.17-.42.46-.37l3,.47a.48.48,0,0,1,.46.51V71.11c2.76-.34,4.14-.51,6.91-.81.32,0,.46.15.46.47ZM40.87,48.9c-2.05,4.56-3.68,9.27-5.31,14v9.87a.56.56,0,0,1-.58.6l-2.79.32c-.38,0-.58-.11-.58-.46V63c-1.72-5.27-3.3-10.59-5.31-15.76-.17-.41,0-.62.46-.56l2.9.39a.73.73,0,0,1,.67.51c1.3,3.27,2,5.44,3.25,9.51a81.81,81.81,0,0,1,3.25-8.76A.56.56,0,0,1,37.5,48l2.9.27C40.84,48.28,41,48.53,40.87,48.9ZM57.76,71.59a.51.51,0,0,1-.58.56h-2.7a.51.51,0,0,1-.58-.57V58.48h-.2c-1,4.41-1.89,8.82-2.87,13.22a.62.62,0,0,1-.64.52l-1.42.05a.57.57,0,0,1-.64-.47c-1-4.47-2-9-2.87-13.47H45V71.93a.54.54,0,0,1-.58.58l-2.67.19c-.38,0-.58-.14-.58-.49V48.85c0-.35.2-.52.58-.49,1.53.12,2.3.18,3.83.27a.64.64,0,0,1,.64.53c1.13,4.94,2.15,9.91,3.22,14.87Q51,56.7,52.71,49.41a.59.59,0,0,1,.64-.5c1.53,0,2.3,0,3.83,0a.51.51,0,0,1,.58.56ZM72.27,60.13c0,3.13-1.45,4.73-4.18,4.62l-3.48-.14V72c0,.27-.15.43-.46.41-1.21-.07-1.81-.09-3-.14a.44.44,0,0,1-.46-.46V49.27a.44.44,0,0,1,.46-.46c2.79-.1,4.18-.19,7-.4s4.18.88,4.18,3.76Zm6.85,13.2c0,.27-.17.4-.46.37l-3-.35c-.32,0-.46-.21-.46-.47V48.18c0-.27.15-.44.46-.47l3-.35c.29,0,.46.1.46.37ZM93.66,54.15c0,.42-.17.68-.46.7l-2.9.2c-.32,0-.46-.21-.46-.61V51.37c0-1-.41-1.39-1.16-1.3l-1.51.18c-.78.09-1.16.6-1.16,1.53V69.27c0,1,.41,1.43,1.16,1.52l1.51.18c.75.09,1.16-.3,1.16-1.3V66.61c0-.4.15-.63.46-.61l2.9.2c.29,0,.46.29.46.7v4.26c0,3.48-1.48,4.43-4.18,4l-3.25-.48C83.5,74.31,82,72.92,82,69.81V51.24c0-3.11,1.48-4.5,4.21-4.9l3.25-.48c2.7-.41,4.18.54,4.18,4Zm14.51-1.25c0,.49-.15.8-.46.82l-3,.22c-.29,0-.46-.25-.46-.72v-3.5c0-1.11-.38-1.61-1.16-1.51l-1.39.19c-.73.1-1.16.68-1.16,1.76v6.12c2.76,1.32,4.14,2.05,6.91,3.64a2.14,2.14,0,0,1,.75,1.92V73c0,4-1.45,5-4.18,4.52L100.74,77c-2.7-.45-4.18-1.89-4.18-5.47V67.26c0-.47.17-.68.46-.66l3,.22c.32,0,.46.26.46.76V70.9c0,1.11.44,1.66,1.16,1.76l1.39.19c.75.1,1.16-.35,1.16-1.51V65.21c-2.75-1.66-4.13-2.45-6.88-3.91a1.72,1.72,0,0,1-.78-1.69V49.52c0-3.58,1.48-5,4.18-5.47l3.25-.54c2.73-.46,4.18.53,4.18,4.53Z"/><path class="cls-2" d="M73.07,85a.92.92,0,1,1-1.59.92l-3.1-5.37q-2.8-.19-5.61-.29L65,88.58a.91.91,0,0,1-.65,1.12.93.93,0,0,1-.24,0,.91.91,0,0,1-.89-.68l-2.38-8.87q-2.29-.06-4.58-.07V90a.92.92,0,0,1-1.83,0V80.11c-1.52,0-3,0-4.58.07L47.5,89.05a.91.91,0,0,1-.89.68.92.92,0,0,1-.89-1.15L48,80.24q-2.8.1-5.61.28l-3.1,5.38A.92.92,0,0,1,37.66,85l2.49-4.31q-6.48.47-13,1.34l.13.14.13.14.5.52q1.16,1.2,2.43,2.28l.35.3.66.54,0,0,.72.56q1,.78,2.09,1.49c.23.16.47.31.7.46l.14.09.64.39.48.28.29.17.53.3.9.48.83.41.08,0,.74.35h0l.84.36.77.31.17.07L42,92l1.09.38.8.26.06,0,.77.23.85.23.42.11c.59.15,1.18.28,1.78.4l.71.13c.51.1,1,.17,1.54.24h.07l.46.06h0l.74.08.84.07.28,0,.67,0,.35,0,.77,0h2l.77,0,.35,0,.67,0,.28,0,.84-.07.74-.08h0l.5-.07h.06c.52-.07,1-.15,1.54-.24l.71-.13,1.15-.25.7-.17.35-.09.87-.24.81-.24.89-.29,1-.34.73-.28A37.6,37.6,0,0,0,74,89.47l.57-.33.23-.14.84-.52.92-.6.86-.6.17-.12.76-.56c.29-.22.57-.44.85-.67l0,0,.66-.54.35-.3q1.27-1.09,2.43-2.28l.5-.52.13-.14.13-.14q-6.4-.87-12.79-1.34Z"/><path class="cls-2" d="M10.8,31.28A11.25,11.25,0,0,1,9,37.39a11.25,11.25,0,0,1-2.25-6,11.09,11.09,0,0,1,1.83-6.08A11.09,11.09,0,0,1,10.8,31.28Z"/><path class="cls-2" d="M16.13,36.43A11.25,11.25,0,0,1,9.92,37.9,11.25,11.25,0,0,1,14,33a11.09,11.09,0,0,1,6.19-1.46A11.09,11.09,0,0,1,16.13,36.43Z"/><path class="cls-2" d="M15.49,24.63A10.12,10.12,0,0,1,13,29.8a10.12,10.12,0,0,1-1.16-5.63A10,10,0,0,1,14.32,19,10,10,0,0,1,15.49,24.63Z"/><path class="cls-2" d="M19.51,30a10.12,10.12,0,0,1-5.73.43,10.12,10.12,0,0,1,4.29-3.82,10,10,0,0,1,5.7-.42A10,10,0,0,1,19.51,30Z"/><path class="cls-2" d="M20.43,19.36a9.11,9.11,0,0,1-2.87,4.3,9.11,9.11,0,0,1-.33-5.16,9,9,0,0,1,2.86-4.28A9,9,0,0,1,20.43,19.36Z"/><path class="cls-2" d="M23.35,24.61a9.11,9.11,0,0,1-5.16-.33,9.11,9.11,0,0,1,4.3-2.87,9,9,0,0,1,5.14.34A9,9,0,0,1,23.35,24.61Z"/><path class="cls-2" d="M25.22,15.37a8.2,8.2,0,0,1-3,3.53,8.2,8.2,0,0,1,.27-4.65,8.08,8.08,0,0,1,3-3.51A8.08,8.08,0,0,1,25.22,15.37Z"/><path class="cls-2" d="M27.24,20.38a8.2,8.2,0,0,1-4.57-.86,8.2,8.2,0,0,1,4.16-2.09,8.08,8.08,0,0,1,4.55.86A8.08,8.08,0,0,1,27.24,20.38Z"/><path class="cls-2" d="M30.3,12.08a7.38,7.38,0,0,1-3.1,2.82A7.38,7.38,0,0,1,28,10.78,7.28,7.28,0,0,1,31,8,7.28,7.28,0,0,1,30.3,12.08Z"/><path class="cls-2" d="M31.56,16.78a7.38,7.38,0,0,1-4-1.27,7.38,7.38,0,0,1,3.94-1.41,7.28,7.28,0,0,1,4,1.27A7.28,7.28,0,0,1,31.56,16.78Z"/><path class="cls-2" d="M35.65,9.57a6.64,6.64,0,0,1-3.07,2.18,6.64,6.64,0,0,1,1.12-3.6A6.55,6.55,0,0,1,36.76,6,6.55,6.55,0,0,1,35.65,9.57Z"/><path class="cls-2" d="M36.26,13.91a6.64,6.64,0,0,1-3.43-1.57,6.64,6.64,0,0,1,3.68-.83,6.55,6.55,0,0,1,3.41,1.57A6.55,6.55,0,0,1,36.26,13.91Z"/><path class="cls-2" d="M94.78,88.36a11.25,11.25,0,0,1,2.86-5.7,11.25,11.25,0,0,1,1.18,6.27A11.09,11.09,0,0,1,96,94.61,11.09,11.09,0,0,1,94.78,88.36Z"/><path class="cls-2" d="M90.42,82.36A11.25,11.25,0,0,1,96.79,82a11.25,11.25,0,0,1-4.84,4.16,11.09,11.09,0,0,1-6.34.36A11.09,11.09,0,0,1,90.42,82.36Z"/><path class="cls-2" d="M89,94.1a10.12,10.12,0,0,1,3.35-4.67,10.12,10.12,0,0,1,.17,5.74,10,10,0,0,1-3.34,4.64A10,10,0,0,1,89,94.1Z"/><path class="cls-2" d="M86,88.15a10.12,10.12,0,0,1,5.72.57,10.12,10.12,0,0,1-4.89,3,10,10,0,0,1-5.69-.57A10,10,0,0,1,86,88.15Z"/><path class="cls-2" d="M83.22,98.43a9.11,9.11,0,0,1,3.57-3.74,9.11,9.11,0,0,1-.57,5.14,9,9,0,0,1-3.56,3.72A9,9,0,0,1,83.22,98.43Z"/><path class="cls-2" d="M81.26,92.75a9.11,9.11,0,0,1,5,1.22A9.11,9.11,0,0,1,81.55,96a9,9,0,0,1-5-1.22A9,9,0,0,1,81.26,92.75Z"/><path class="cls-2" d="M77.82,101.53a8.2,8.2,0,0,1,3.6-2.95,8.2,8.2,0,0,1-1.07,4.53A8.08,8.08,0,0,1,76.76,106,8.08,8.08,0,0,1,77.82,101.53Z"/><path class="cls-2" d="M76.69,96.24A8.2,8.2,0,0,1,81,97.88a8.2,8.2,0,0,1-4.46,1.33,8.08,8.08,0,0,1-4.33-1.64A8.08,8.08,0,0,1,76.69,96.24Z"/><path class="cls-2" d="M72.24,103.89a7.38,7.38,0,0,1,3.54-2.24,7.38,7.38,0,0,1-1.46,3.93,7.28,7.28,0,0,1-3.53,2.22A7.28,7.28,0,0,1,72.24,103.89Z"/><path class="cls-2" d="M71.82,99A7.38,7.38,0,0,1,75.53,101a7.38,7.38,0,0,1-4.13.7,7.28,7.28,0,0,1-3.69-1.94A7.28,7.28,0,0,1,71.82,99Z"/><path class="cls-2" d="M66.54,105.42a6.64,6.64,0,0,1,3.41-1.61,6.64,6.64,0,0,1-1.73,3.35,6.55,6.55,0,0,1-3.39,1.6A6.55,6.55,0,0,1,66.54,105.42Z"/><path class="cls-2" d="M66.69,101a6.64,6.64,0,0,1,3.1,2.14,6.64,6.64,0,0,1-3.76.18,6.55,6.55,0,0,1-3.08-2.14A6.55,6.55,0,0,1,66.69,101Z"/><path class="cls-2" d="M99.81,31.28a11.25,11.25,0,0,0,1.83,6.11,11.25,11.25,0,0,0,2.25-6,11.09,11.09,0,0,0-1.83-6.08A11.09,11.09,0,0,0,99.81,31.28Z"/><path class="cls-2" d="M94.48,36.43a11.25,11.25,0,0,0,6.21,1.47,11.25,11.25,0,0,0-4-4.94,11.09,11.09,0,0,0-6.19-1.46A11.09,11.09,0,0,0,94.48,36.43Z"/><path class="cls-2" d="M95.12,24.63a10.12,10.12,0,0,0,2.49,5.18,10.12,10.12,0,0,0,1.16-5.63A10,10,0,0,0,96.29,19,10,10,0,0,0,95.12,24.63Z"/><path class="cls-2" d="M91.1,30a10.12,10.12,0,0,0,5.73.43,10.12,10.12,0,0,0-4.29-3.82,10,10,0,0,0-5.7-.42A10,10,0,0,0,91.1,30Z"/><path class="cls-2" d="M90.18,19.36A9.11,9.11,0,0,0,93,23.66a9.11,9.11,0,0,0,.33-5.16,9,9,0,0,0-2.86-4.28A9,9,0,0,0,90.18,19.36Z"/><path class="cls-2" d="M87.26,24.61a9.11,9.11,0,0,0,5.16-.33,9.11,9.11,0,0,0-4.3-2.87,9,9,0,0,0-5.14.34A9,9,0,0,0,87.26,24.61Z"/><path class="cls-2" d="M85.39,15.37a8.2,8.2,0,0,0,3,3.53,8.2,8.2,0,0,0-.27-4.65,8.08,8.08,0,0,0-3-3.51A8.08,8.08,0,0,0,85.39,15.37Z"/><path class="cls-2" d="M83.37,20.38a8.2,8.2,0,0,0,4.57-.86,8.2,8.2,0,0,0-4.16-2.09,8.08,8.08,0,0,0-4.55.86A8.08,8.08,0,0,0,83.37,20.38Z"/><path class="cls-2" d="M80.31,12.08a7.38,7.38,0,0,0,3.1,2.82,7.38,7.38,0,0,0-.75-4.12A7.28,7.28,0,0,0,79.57,8,7.28,7.28,0,0,0,80.31,12.08Z"/><path class="cls-2" d="M79.05,16.78a7.38,7.38,0,0,0,4-1.27A7.38,7.38,0,0,0,79.1,14.1a7.28,7.28,0,0,0-4,1.27A7.28,7.28,0,0,0,79.05,16.78Z"/><path class="cls-2" d="M75,9.57A6.64,6.64,0,0,0,78,11.75a6.64,6.64,0,0,0-1.12-3.6A6.55,6.55,0,0,0,73.85,6,6.55,6.55,0,0,0,75,9.57Z"/><path class="cls-2" d="M74.35,13.91a6.64,6.64,0,0,0,3.43-1.57,6.64,6.64,0,0,0-3.68-.83,6.55,6.55,0,0,0-3.41,1.57A6.55,6.55,0,0,0,74.35,13.91Z"/><path class="cls-2" d="M15.75,88.36a11.25,11.25,0,0,0-2.86-5.7,11.25,11.25,0,0,0-1.18,6.27,11.09,11.09,0,0,0,2.86,5.67A11.09,11.09,0,0,0,15.75,88.36Z"/><path class="cls-2" d="M20.11,82.36A11.25,11.25,0,0,0,13.74,82a11.25,11.25,0,0,0,4.84,4.16,11.09,11.09,0,0,0,6.34.36A11.09,11.09,0,0,0,20.11,82.36Z"/><path class="cls-2" d="M21.53,94.1a10.12,10.12,0,0,0-3.35-4.67A10.12,10.12,0,0,0,18,95.17a10,10,0,0,0,3.34,4.64A10,10,0,0,0,21.53,94.1Z"/><path class="cls-2" d="M24.56,88.15a10.12,10.12,0,0,0-5.72.57,10.12,10.12,0,0,0,4.89,3,10,10,0,0,0,5.69-.57A10,10,0,0,0,24.56,88.15Z"/><path class="cls-2" d="M27.31,98.43a9.11,9.11,0,0,0-3.57-3.74,9.11,9.11,0,0,0,.57,5.14,9,9,0,0,0,3.56,3.72A9,9,0,0,0,27.31,98.43Z"/><path class="cls-2" d="M29.27,92.75a9.11,9.11,0,0,0-5,1.22A9.11,9.11,0,0,0,29,96a9,9,0,0,0,5-1.22A9,9,0,0,0,29.27,92.75Z"/><path class="cls-2" d="M32.72,101.53a8.2,8.2,0,0,0-3.6-2.95,8.2,8.2,0,0,0,1.07,4.53A8.08,8.08,0,0,0,33.78,106,8.08,8.08,0,0,0,32.72,101.53Z"/><path class="cls-2" d="M33.84,96.24a8.2,8.2,0,0,0-4.35,1.64,8.2,8.2,0,0,0,4.46,1.33,8.08,8.08,0,0,0,4.33-1.64A8.08,8.08,0,0,0,33.84,96.24Z"/><path class="cls-2" d="M38.29,103.89a7.38,7.38,0,0,0-3.54-2.24,7.38,7.38,0,0,0,1.46,3.93,7.28,7.28,0,0,0,3.53,2.22A7.28,7.28,0,0,0,38.29,103.89Z"/><path class="cls-2" d="M38.72,99A7.38,7.38,0,0,0,35,101a7.38,7.38,0,0,0,4.13.7,7.28,7.28,0,0,0,3.69-1.94A7.28,7.28,0,0,0,38.72,99Z"/><path class="cls-2" d="M44,105.42a6.64,6.64,0,0,0-3.41-1.61,6.64,6.64,0,0,0,1.73,3.35,6.55,6.55,0,0,0,3.39,1.6A6.55,6.55,0,0,0,44,105.42Z"/><path class="cls-2" d="M43.84,101a6.64,6.64,0,0,0-3.1,2.14,6.64,6.64,0,0,0,3.76.18,6.55,6.55,0,0,0,3.08-2.14A6.55,6.55,0,0,0,43.84,101Z"/><path class="cls-2" d="M62.4,7.13a7.13,7.13,0,0,0-7.13,7.13,7.13,7.13,0,0,0-7.13-7.13A7.13,7.13,0,0,0,55.27,0,7.13,7.13,0,0,0,62.4,7.13Z"/><path class="cls-2" d="M62.4,105.14a7.13,7.13,0,0,0-7.13,7.13,7.13,7.13,0,0,0-7.13-7.13A7.13,7.13,0,0,0,55.27,98,7.13,7.13,0,0,0,62.4,105.14Z"/><path class="cls-3" d="M24.58,78.86h0Z"/><path class="cls-3" d="M24.83,82.11l.17.2h0Z"/><path class="cls-3" d="M85.56,82.32l.16-.19-.16.19Z"/><path class="cls-3" d="M86,78.86h0Z"/><path class="cls-2" d="M71.16,8.35a3.87,3.87,0,0,0-3.87,3.87,3.87,3.87,0,0,0-3.87-3.87,3.87,3.87,0,0,0,3.87-3.87A3.87,3.87,0,0,0,71.16,8.35Z"/><path class="cls-2" d="M47.12,8.35a3.87,3.87,0,0,0-3.87,3.87,3.87,3.87,0,0,0-3.87-3.87,3.87,3.87,0,0,0,3.87-3.87A3.87,3.87,0,0,0,47.12,8.35Z"/><path class="cls-2" d="M53.6,25.06c-.55,0-.82.07-1.37.14a1,1,0,0,0-.95,1.07V36.93a.87.87,0,0,0,.95,1l1.37,0a.82.82,0,0,0,.95-.93V26A.79.79,0,0,0,53.6,25.06Z"/><path class="cls-2" d="M78.33,33.05a32.67,32.67,0,0,1,6.52,9.25q2.85-.4,5.7-.88l-.28-.64L90,40.21,89.92,40l-.24-.5c-.14-.3-.3-.6-.46-.9S89,38.2,88.91,38c-.47-.87-1-1.72-1.51-2.55L87,34.79c-.18-.26-.36-.53-.55-.79s-.32-.45-.49-.67c-.41-.55-.84-1.1-1.28-1.63l-.48-.56-.61-.69-.62-.67-.64-.66-.66-.64-.6-.56L81,27.87q-.65-.59-1.32-1.14c-.26-.22-.52-.43-.79-.64l-.68-.53-.1-.07c-.46-.34-.92-.67-1.39-1l-.06,0L76,24l-.46-.29-.57-.35L74.27,23l-.79-.44-.72-.38q-.79-.41-1.6-.78l-.45-.2q-1.06-.47-2.15-.88l-.47-.17-.62-.22-.74-.24-.24-.07-.67-.2-.67-.18-.47-.12c-.63-.16-1.27-.31-1.91-.43L62,18.53c-.59-.11-1.18-.2-1.78-.28l-.42,0-.65-.07-1-.09h0L57.31,18h-.23l-.55,0H54l-.55,0h-.23l-.91.06h0l-1,.09-.69.08-.38,0c-.6.08-1.2.17-1.78.28l-.77.14-.26.05-.53.11-.34.08-.76.18-.53.14-.62.17-.65.19c-.52.16-1,.32-1.53.5l-.62.23q-1.05.39-2.08.85l-.45.2c-.82.38-1.63.79-2.42,1.22l-.68.38c-.57.32-1.13.67-1.68,1l-.69.46-.06,0-.69.48-.74.54-.73.56c-.29.23-.58.46-.86.7l-.55.47-.69.61-.07.06-.6.56-.66.64-.64.66-.62.67-.61.69-.48.56c-.44.53-.87,1.07-1.28,1.63-.17.22-.33.44-.49.67s-.37.52-.55.79l-.44.66c-.53.83-1,1.68-1.51,2.55q-.17.3-.32.61c-.16.3-.31.6-.46.9l-.24.5-.09.19-.26.57-.28.64q2.85.48,5.7.88a32.46,32.46,0,0,1,6.49-9.23.92.92,0,1,1,1.3,1.29,30.81,30.81,0,0,0-5.88,8.19,209.71,209.71,0,0,0,55.3,0A30.77,30.77,0,0,0,77,34.35a.92.92,0,0,1,1.29-1.3ZM45.78,31.84c0,1.85-1.18,2.92-3.41,3L39.53,35v4.88a.31.31,0,0,1-.38.35L36.69,40a.38.38,0,0,1-.38-.4V27.21a.56.56,0,0,1,.38-.52c2.27-.9,3.41-1.35,5.68-2.15s3.41.2,3.41,2.27ZM57.6,37.57c0,2.24-1.18,3.51-3.41,3.49-1.06,0-1.59,0-2.65-.06a3.25,3.25,0,0,1-3.41-3.59V26.25a3.81,3.81,0,0,1,3.41-4.08,23.78,23.78,0,0,1,2.65-.24c2.22-.1,3.41,1.31,3.41,3.55ZM69.19,40a.36.36,0,0,1-.38.42c-3.39.26-5.08.39-8.47.53-.24,0-.38-.11-.38-.38V22.7c0-.25.14-.37.38-.33,1,.17,1.48.28,2.46.52a.46.46,0,0,1,.38.49V37.67l5.63-.2c.26,0,.38.11.38.32Zm5.11-.39a.38.38,0,0,1-.38.4l-2.46.2a.31.31,0,0,1-.38-.35V26c0-.24.12-.34.38-.24l2.46,1a.56.56,0,0,1,.38.52Z"/><path class="cls-2" d="M41.61,27.76l-2.08.68v4.47l2.08-.3c.64-.09.95-.4.95-.84V28.28C42.56,27.76,42.25,27.56,41.61,27.76Z"/></g></g></g></svg>