<svg xmlns="http://www.w3.org/2000/svg" viewBox="0 0 94.63 93"><defs><style>.cls-1{isolation:isolate;}.cls-2{fill:#fff;}.cls-3{fill:#009494;}.cls-4,.cls-7{fill:#454445;}.cls-5{fill:#00585e;}.cls-6{fill:#ff5729;}.cls-7{mix-blend-mode:multiply;}</style></defs><title>Asset 1</title><g class="cls-1"><g id="Layer_2" data-name="Layer 2"><g id="Layer_1-2" data-name="Layer 1"><path class="cls-2" d="M72.6,63.76l1.12.17q-.47.71-1,1.39h0l0,0-.52.69-.57.7-.56.64-.08.1-.51.56-.11.11-.41.43q-1,1-2,1.89l-.29.25-.55.45,0,0-.71.55-.63.46-.14.1-.71.49-.76.5-.7.43-.19.11-.47.27A31.15,31.15,0,0,1,58.84,76l-.6.23-.79.28-.74.24-.67.2-.72.2-.29.08-.58.14-1,.21-.59.11c-.42.08-.85.14-1.28.2h-.05l-.41.05h0l-.61.07-.7.06-.23,0-.56,0h-.29l-.63,0H46.49l-.63,0h-.29l-.56,0-.23,0-.7-.06-.62-.07h0l-.38-.05H43c-.43-.06-.86-.12-1.28-.2l-.59-.11c-.5-.1-1-.21-1.48-.33l-.35-.09-.7-.19L38,76.75l-.05,0-.66-.22-.9-.32L35.78,76l-.14-.05L35,75.67l-.69-.3h0l-.62-.29-.07,0-.69-.34-.75-.4L31.73,74l-.24-.14-.39-.23-.53-.33-.12-.08-.58-.38q-.89-.59-1.73-1.23l-.59-.47,0,0L27,70.73l-.29-.25q-1-.9-2-1.89l-.41-.43L24.15,68l-.51-.56-.08-.1L23,66.75l-.57-.7-.52-.69,0,0h0c-.34-.46-.67-.92-1-1.39l1.74-.26,1.17-.16Q26,63.22,28.09,63l1.38-.15,1.37-.14,1.38-.13q3.52-.31,7-.48L40.85,62l1.06,0,.54,0,.76,0,.83,0h3.28l2.23,0h.95l1.91,0c1,0,2.07.07,3.1.12l2,.11,1.1.07q3.08.2,6.17.52l.78.08,1,.11,1.31.15q1.88.22,3.75.49Z"/><path class="cls-2" d="M21,36.32c-1.16-.17-2.33-.36-3.5-.56.17-.49.37-1,.57-1.45l.23-.53.21-.48.08-.16.2-.41c.12-.25.25-.5.38-.75l.27-.5c.39-.72.81-1.43,1.25-2.11l.36-.55.46-.65c.13-.19.26-.37.4-.56.34-.46.7-.91,1.06-1.35l.39-.46.5-.57.52-.56.53-.54.54-.53.5-.47.06-.05.57-.5.46-.39.71-.58.61-.46L29,20.7l.58-.4.05,0,.57-.38c.46-.29.92-.58,1.39-.84l.57-.32c.65-.36,1.33-.7,2-1l.37-.16q.85-.38,1.72-.7l.52-.19c.42-.15.84-.29,1.27-.42l.54-.16.51-.14.44-.12.63-.15.28-.07.44-.09.22,0,.63-.12c.49-.09,1-.16,1.48-.23l.31,0,.58-.07.79-.07h0l.75,0h.19l.45,0h2.08l.45,0H49l.75,0h0l.79.07.54.06.35,0c.49.07,1,.14,1.47.23l.61.12c.53.1,1.06.22,1.58.36l.39.1.55.15.56.17.2.06.61.2.51.18.39.14q.9.33,1.78.73l.37.16q.67.31,1.33.65l.6.32L63,19l.56.33.47.29.38.24.55.36.05,0c.39.26.77.54,1.15.82l.08.06.57.44.65.53q.56.46,1.09.95l.06.05.5.47.54.53.53.54.52.56.5.57.39.46c.37.44.72.89,1.06,1.35.14.18.27.37.4.56l.46.65.36.55c.44.69.86,1.39,1.25,2.11l.27.5c.13.25.26.5.38.75l.2.41.08.16.21.48.23.53c.2.48.39,1,.57,1.45q-2.33.4-4.66.73l-.67.1-.33,0-.55.07-3,.38h0L65,37.41q-1.48.15-3,.28c-1,.09-2,.16-3,.23L57.66,38h-.13l-1,.06-1,0-1.6.07-1.14,0-1.08,0-1.32,0-3.08,0-3.08,0-1.32,0-1.08,0-1.17,0-1.58-.07-1,0-1-.05h-.22l-1.26-.08c-1-.07-2-.14-3.07-.23s-2-.17-3-.28q-3-.3-5.9-.7l-.55-.07-.32,0-.68-.1Z"/><path class="cls-2" d="M93.1,34.56V65.21a2.72,2.72,0,0,1-.91,2.06,1.09,1.09,0,0,1-.94.25l-2-.5-2-.47-.14,0-1.84-.41-1.73-.37L81,65.2l-1.35-.26q-2.15-.41-4.3-.76l-1.64-.26-1.12-.17-1-.14q-1.88-.27-3.75-.49L66.53,63l-1-.11-.78-.08q-3.08-.32-6.17-.52l-1.1-.07-2-.11Q54,62,52.4,62l-1.91,0h-.95l-2.23,0H44l-.83,0-.76,0-.54,0-1.06,0-1.59.07q-3.52.16-7,.48l-1.38.13-1.37.14L28.09,63q-2.14.24-4.28.53l-1.17.16-1.75.26-1.64.26h-.08l-1.91.32-1.56.28L14,65.12l-2.44.49-1.07.23-1.29.28-1.76.4-.14,0-2,.47-2,.5a1.1,1.1,0,0,1-1-.24,2.74,2.74,0,0,1-.89-2.06V34.56A2,2,0,0,1,2.18,33a1.35,1.35,0,0,1,1.19-.24l1.71.42,1.45.35,1.39.32.4.09c1,.22,2,.43,2.94.63q2.39.5,4.78.93l1.51.27c1.17.2,2.33.39,3.5.56l1.84.27.32,0q3.23.45,6.46.77,1.48.15,3,.28c1,.09,2,.17,3.07.23l1.26.08h.22l1,.05,1,0,1.58.07,1.17,0,1.08,0,1.32,0,3.08,0,3.08,0,1.32,0,1.08,0,1.14,0,1.6-.07,1,0,1-.06h.13L59,37.92c1-.07,2-.14,3-.23s2-.17,3-.28,2-.21,2.94-.32h0c1.17-.14,2.33-.29,3.5-.45l.33,0,.67-.1q2.33-.33,4.66-.73l1.51-.27q2.39-.43,4.78-.93c1-.2,2-.41,2.94-.63l.38-.09,2.85-.67,1.71-.42a1.33,1.33,0,0,1,1.18.24A2,2,0,0,1,93.1,34.56Z"/><path class="cls-2" d="M42.45,62l.76,0-1.3,0Z"/><path class="cls-2" d="M44,61.93h.29l-1.11,0Z"/><path class="cls-3" d="M3.54,39.79c0-3.31,1.2-4.13,3.46-3.75l2.69.45c2.26.38,3.46,1.57,3.46,4.53V59.25c0,3-1.2,4.16-3.46,4.53L7,64.23c-2.26.38-3.46-.43-3.46-3.74ZM9.09,60.26c.63-.08,1-.53,1-1.45V41.46c0-.88-.34-1.36-1-1.45L7.7,39.82c-.63-.08-1,.32-1,1.24V59.21c0,1,.34,1.33,1,1.24Z"/><path class="cls-3" d="M18.83,58.9c2.29-.28,3.43-.42,5.72-.67.26,0,.38.12.38.39v2.47c0,.25-.12.37-.38.41q-4.31.58-8.61,1.27c-.24,0-.38,0-.38-.31V37.82c0-.24.14-.35.38-.31l2.5.39a.4.4,0,0,1,.38.42Z"/><path class="cls-3" d="M35,40c.36,0,.53.24.38.54-1.7,3.77-3,7.68-4.4,11.59v8.17a.47.47,0,0,1-.48.49L28.18,61c-.31,0-.48-.09-.48-.38V52.18c-1.42-4.36-2.73-8.77-4.4-13.05-.14-.34,0-.51.38-.46l2.4.32a.61.61,0,0,1,.55.42c1.08,2.71,1.62,4.5,2.69,7.88A67.76,67.76,0,0,1,32,40a.47.47,0,0,1,.55-.3Z"/><path class="cls-3" d="M48.88,40.51a.42.42,0,0,1,.48.46V59.3a.42.42,0,0,1-.48.46H46.64a.43.43,0,0,1-.48-.47V48.44H46c-.79,3.65-1.57,7.3-2.38,11a.51.51,0,0,1-.53.43l-1.18,0a.47.47,0,0,1-.53-.39c-.86-3.7-1.63-7.43-2.38-11.16h-.17V59.58a.45.45,0,0,1-.48.48l-2.21.16c-.31,0-.48-.11-.48-.4V40.46c0-.29.17-.43.48-.4,1.27.1,1.9.15,3.17.22a.53.53,0,0,1,.53.44c.94,4.09,1.78,8.21,2.67,12.32q1.3-6.06,2.67-12.1a.49.49,0,0,1,.53-.41C47,40.53,47.61,40.53,48.88,40.51Z"/><path class="cls-3" d="M51.76,40.81a.36.36,0,0,1,.38-.38c2.31-.09,3.46-.15,5.77-.33s3.46.73,3.46,3.12V49.8c0,2.59-1.2,3.92-3.46,3.83L55,53.52v6.1c0,.23-.12.35-.38.34l-2.5-.11a.36.36,0,0,1-.38-.38Zm5.39,9.32c.65,0,1-.4,1-1.07v-4.9c0-.65-.31-1-1-.93L55,43.38v6.76Z"/><path class="cls-3" d="M66.67,39.23c.24,0,.38.08.38.31V60.74c0,.22-.14.33-.38.31l-2.5-.29c-.26,0-.38-.17-.38-.39V39.91c0-.22.12-.36.38-.39Z"/><path class="cls-3" d="M79.1,44.85c0,.34-.14.56-.38.58l-2.4.16c-.26,0-.38-.17-.38-.5V42.55c0-.8-.34-1.15-1-1.08l-1.25.15c-.65.08-1,.5-1,1.26V57.38c0,.79.34,1.19,1,1.26l1.25.15c.62.08,1-.25,1-1.07V55.17c0-.33.12-.52.38-.5l2.4.16c.24,0,.38.24.38.58v3.53c0,2.88-1.23,3.67-3.46,3.33l-2.69-.4c-2.26-.33-3.49-1.48-3.49-4.05V42.44c0-2.58,1.23-3.73,3.49-4.05l2.69-.4c2.24-.34,3.46.45,3.46,3.33Z"/><path class="cls-3" d="M87.65,36c2.26-.38,3.46.44,3.46,3.75v4c0,.4-.12.66-.38.68l-2.5.18c-.24,0-.38-.21-.38-.6v-2.9c0-.92-.31-1.34-1-1.25l-1.15.15c-.6.08-1,.57-1,1.46v5.07c2.29,1.09,3.43,1.7,5.72,3a1.78,1.78,0,0,1,.62,1.59v9.28c0,3.31-1.2,4.13-3.46,3.74L85,63.78c-2.24-.37-3.46-1.57-3.46-4.53V55.71c0-.39.14-.56.38-.54l2.5.18c.26,0,.38.22.38.63v2.75c0,.92.36,1.38,1,1.46l1.15.15c.62.08,1-.29,1-1.25V54c-2.28-1.38-3.42-2-5.7-3.24a1.42,1.42,0,0,1-.65-1.4V41c0-3,1.23-4.16,3.46-4.53Z"/><path class="cls-4" d="M93.37,31.8a2.85,2.85,0,0,0-2.48-.52Q84.48,32.91,78.05,34a33.17,33.17,0,0,0-61.48,0Q10.14,32.9,3.72,31.28a2.87,2.87,0,0,0-2.49.52A3.45,3.45,0,0,0,0,34.56V65.21a4.26,4.26,0,0,0,1.47,3.25l.05,0a2.6,2.6,0,0,0,2.2.5h0q8.21-2.1,16.46-3.4a33.14,33.14,0,0,0,54.24,0q8.24,1.3,16.46,3.4h0a2.55,2.55,0,0,0,2.2-.51l0,0a4.25,4.25,0,0,0,1.49-3.25V34.56A3.45,3.45,0,0,0,93.37,31.8Zm-75,2,.21-.48.08-.16.2-.41c.12-.25.25-.5.38-.75l.27-.5c.39-.72.81-1.43,1.25-2.11l.36-.55.46-.65c.13-.19.26-.37.4-.56.34-.46.7-.91,1.06-1.35l.39-.46.5-.57.52-.56.53-.54.54-.53.5-.47.06-.05.57-.5.46-.39.71-.58.61-.46L29,20.7l.58-.4.05,0,.57-.38c.46-.29.92-.58,1.39-.84l.57-.32c.65-.36,1.33-.7,2-1l.37-.16q.85-.38,1.72-.7l.52-.19c.42-.15.84-.29,1.27-.42l.54-.16.51-.14.44-.12.63-.15.28-.07.44-.09.22,0,.63-.12c.49-.09,1-.16,1.48-.23l.31,0,.58-.07.79-.07h0l.75,0h.19l.45,0h2.08l.45,0H49l.75,0h0l.79.07.54.06.35,0c.5.07,1,.14,1.47.23l.61.12c.53.1,1.06.22,1.58.36l.39.1.55.15.56.17.2.06.61.2.51.18.39.14q.9.33,1.78.73l.37.16q.67.31,1.33.65l.6.32L63,19l.56.33.47.29.38.24.55.36.05,0c.39.26.77.54,1.15.82l.08.06.57.44.65.53q.56.46,1.09.95l.06.05.5.47.54.53.53.54.52.56c.17.19.34.38.5.57s.27.3.39.46c.37.44.72.89,1.06,1.35.14.18.27.37.4.56l.46.65.36.55c.44.69.86,1.39,1.25,2.11l.27.5c.13.25.26.5.38.75l.2.41.08.16.21.48.23.53q-2.36.4-4.73.73a27.06,27.06,0,0,0-5.4-7.67.76.76,0,0,0-1.07,1.08,25.48,25.48,0,0,1,4.89,6.8,173.7,173.7,0,0,1-45.8,0,25.52,25.52,0,0,1,4.87-6.79A.76.76,0,0,0,28.2,27.4,26.89,26.89,0,0,0,22.83,35q-2.36-.33-4.73-.73ZM72.72,65.36l-.52.69-.57.7-.56.64-.08.1-.51.56-.11.11-.41.43q-1,1-2,1.89l-.29.25-.55.45,0,0-.71.55-.63.46-.14.1-.71.49-.76.5-.7.43-.19.11-.47.27A31.15,31.15,0,0,1,58.84,76l-.6.23-.79.28-.74.24-.67.2-.72.2-.29.08-.58.14-1,.21-.59.11c-.42.08-.85.14-1.28.2h-.05l-.41.05h0l-.61.07-.7.06-.23,0-.56,0h-.29l-.63,0H46.49l-.63,0h-.29l-.56,0-.23,0-.7-.06-.62-.07h0l-.38-.05H43c-.43-.06-.86-.12-1.28-.2l-.59-.11c-.5-.1-1-.21-1.48-.33l-.35-.09-.7-.19L38,76.75l-.05,0-.66-.22-.9-.32L35.78,76l-.14-.05L35,75.67l-.69-.3h0l-.62-.29-.07,0-.69-.34-.75-.4L31.73,74l-.24-.14-.39-.23-.53-.33-.12-.08-.58-.38q-.89-.59-1.73-1.23l-.59-.47,0,0L27,70.73l-.29-.25q-1-.9-2-1.89l-.41-.43L24.15,68l-.51-.56-.08-.1L23,66.75l-.57-.7-.52-.69,0,0h0q3.22-.48,6.43-.83L27,65.77a.76.76,0,0,0,1.07,1.08l2.61-2.61q2.9-.28,5.81-.46l-3.81,6.6a.76.76,0,1,0,1.32.76l4.31-7.47c1.23-.07,2.46-.12,3.69-.15l-2.64,9.84a.76.76,0,0,0,.54.93l.2,0a.76.76,0,0,0,.73-.56l2.75-10.28c1,0,2,0,3,0V74.52a.76.76,0,0,0,1.52,0V63.44c1,0,2,0,3,0L53.9,73.76a.76.76,0,0,0,.73.56l.2,0a.75.75,0,0,0,.54-.93l-2.64-9.84q1.85.06,3.69.16l4.31,7.46A.76.76,0,0,0,62,70.38l-3.81-6.6q2.91.19,5.82.47l2.59,2.59a.76.76,0,0,0,1.07-1.08l-1.27-1.27q3.15.35,6.28.82h0Zm20.39-.15a2.72,2.72,0,0,1-.91,2.06,1.09,1.09,0,0,1-.94.25l-2-.5-2-.47-.14,0-1.84-.41-1.73-.37L81,65.2l-1.35-.26q-2.15-.41-4.3-.76l-1.64-.26-1.12-.17-1-.14q-1.88-.27-3.75-.49L66.53,63l-1-.11-.78-.08q-3.08-.32-6.17-.52l-1.1-.07-2-.11c-1-.05-2.07-.09-3.1-.12l-1.91,0h-.95l-2.23,0H44l-.83,0-.76,0-.54,0-1.06,0-1.59.07q-3.52.16-7,.48l-1.38.13-1.37.14L28.09,63q-2.14.24-4.28.53l-1.17.16-1.74.26h0l-1.64.26h-.08l-1.91.32-1.56.28L14,65.12l-2.44.49-1.07.23-1.29.28-1.76.4-.14,0-2,.47-2,.5a1.1,1.1,0,0,1-1-.24,2.74,2.74,0,0,1-.89-2.06V34.56A2,2,0,0,1,2.18,33a1.35,1.35,0,0,1,1.19-.24l1.71.42,1.45.35,1.39.32.4.09,2.94.63q2.39.5,4.78.93l1.51.27c1.17.2,2.33.39,3.5.56l1.17.17.68.1.32,0,.55.07q3,.4,5.9.7,1.48.15,3,.28c1,.09,2,.17,3.07.23l1.26.08h.22l1,.05,1,0,1.58.07,1.17,0,1.08,0,1.32,0,3.08,0,3.08,0,1.32,0,1.08,0,1.14,0,1.6-.07,1,0,1-.06h.13L59,37.92c1-.07,2-.14,3-.23s2-.17,3-.28l2.94-.32h0l3-.38.55-.07.33,0,.67-.1q2.33-.33,4.66-.73l1.51-.27q2.39-.43,4.78-.93l2.94-.63.38-.09,2.85-.67,1.71-.42a1.33,1.33,0,0,1,1.18.24,2,2,0,0,1,.67,1.56Z"/><path class="cls-5" d="M10.46,25.91A9.32,9.32,0,0,1,8.94,31,9.32,9.32,0,0,1,7.08,26,9.19,9.19,0,0,1,8.6,21,9.19,9.19,0,0,1,10.46,25.91Z"/><path class="cls-5" d="M14.88,30.17a9.32,9.32,0,0,1-5.14,1.22,9.32,9.32,0,0,1,3.35-4.09,9.19,9.19,0,0,1,5.12-1.21A9.19,9.19,0,0,1,14.88,30.17Z"/><path class="cls-5" d="M14.35,20.4a8.38,8.38,0,0,1-2.06,4.29,8.38,8.38,0,0,1-1-4.66,8.27,8.27,0,0,1,2.06-4.27A8.27,8.27,0,0,1,14.35,20.4Z"/><path class="cls-5" d="M17.68,24.81a8.38,8.38,0,0,1-4.74.36A8.38,8.38,0,0,1,16.49,22a8.27,8.27,0,0,1,4.72-.35A8.27,8.27,0,0,1,17.68,24.81Z"/><path class="cls-5" d="M18.44,16a7.55,7.55,0,0,1-2.37,3.56,7.55,7.55,0,0,1-.27-4.27,7.44,7.44,0,0,1,2.37-3.54A7.44,7.44,0,0,1,18.44,16Z"/><path class="cls-5" d="M20.86,20.39a7.55,7.55,0,0,1-4.27-.27,7.55,7.55,0,0,1,3.56-2.37A7.44,7.44,0,0,1,24.4,18,7.44,7.44,0,0,1,20.86,20.39Z"/><path class="cls-5" d="M22.4,12.73a6.79,6.79,0,0,1-2.51,2.92,6.79,6.79,0,0,1,.22-3.85,6.7,6.7,0,0,1,2.5-2.91A6.7,6.7,0,0,1,22.4,12.73Z"/><path class="cls-5" d="M24.08,16.88a6.79,6.79,0,0,1-3.79-.71,6.79,6.79,0,0,1,3.44-1.73,6.7,6.7,0,0,1,3.77.72A6.7,6.7,0,0,1,24.08,16.88Z"/><path class="cls-5" d="M26.61,10A6.11,6.11,0,0,1,24,12.34a6.11,6.11,0,0,1,.62-3.41,6,6,0,0,1,2.56-2.32A6,6,0,0,1,26.61,10Z"/><path class="cls-5" d="M27.66,13.9a6.11,6.11,0,0,1-3.31-1.05,6.11,6.11,0,0,1,3.27-1.17,6,6,0,0,1,3.29,1.05A6,6,0,0,1,27.66,13.9Z"/><path class="cls-5" d="M31,7.93A5.5,5.5,0,0,1,28.5,9.73a5.5,5.5,0,0,1,.93-3A5.42,5.42,0,0,1,32,5,5.42,5.42,0,0,1,31,7.93Z"/><path class="cls-5" d="M31.55,11.52a5.5,5.5,0,0,1-2.84-1.3,5.5,5.5,0,0,1,3-.68,5.42,5.42,0,0,1,2.82,1.3A5.42,5.42,0,0,1,31.55,11.52Z"/><path class="cls-5" d="M80,73.19a9.32,9.32,0,0,1,2.37-4.72,9.32,9.32,0,0,1,1,5.2A9.19,9.19,0,0,1,81,78.36,9.19,9.19,0,0,1,80,73.19Z"/><path class="cls-5" d="M76.41,68.22a9.32,9.32,0,0,1,5.28-.31,9.32,9.32,0,0,1-4,3.45,9.19,9.19,0,0,1-5.25.3A9.19,9.19,0,0,1,76.41,68.22Z"/><path class="cls-5" d="M75.24,77.94A8.38,8.38,0,0,1,78,74.08a8.38,8.38,0,0,1,.14,4.76,8.27,8.27,0,0,1-2.77,3.84A8.27,8.27,0,0,1,75.24,77.94Z"/><path class="cls-5" d="M72.73,73a8.38,8.38,0,0,1,4.73.47,8.38,8.38,0,0,1-4,2.5,8.27,8.27,0,0,1-4.71-.47A8.27,8.27,0,0,1,72.73,73Z"/><path class="cls-5" d="M70.45,81.53a7.55,7.55,0,0,1,3-3.1,7.55,7.55,0,0,1-.47,4.26A7.44,7.44,0,0,1,70,85.77,7.44,7.44,0,0,1,70.45,81.53Z"/><path class="cls-5" d="M68.83,76.82a7.55,7.55,0,0,1,4.16,1,7.55,7.55,0,0,1-3.92,1.72,7.44,7.44,0,0,1-4.14-1A7.44,7.44,0,0,1,68.83,76.82Z"/><path class="cls-5" d="M66,84.09a6.79,6.79,0,0,1,3-2.44,6.79,6.79,0,0,1-.89,3.75,6.7,6.7,0,0,1-3,2.43A6.7,6.7,0,0,1,66,84.09Z"/><path class="cls-5" d="M65,79.71a6.79,6.79,0,0,1,3.61,1.36A6.79,6.79,0,0,1,65,82.18a6.7,6.7,0,0,1-3.59-1.36A6.7,6.7,0,0,1,65,79.71Z"/><path class="cls-5" d="M61.36,86a6.11,6.11,0,0,1,2.93-1.86,6.11,6.11,0,0,1-1.21,3.25,6,6,0,0,1-2.92,1.84A6,6,0,0,1,61.36,86Z"/><path class="cls-5" d="M61,82a6.11,6.11,0,0,1,3.07,1.61,6.11,6.11,0,0,1-3.42.58,6,6,0,0,1-3.06-1.61A6,6,0,0,1,61,82Z"/><path class="cls-5" d="M56.63,87.32A5.5,5.5,0,0,1,59.45,86,5.5,5.5,0,0,1,58,88.76a5.42,5.42,0,0,1-2.81,1.33A5.42,5.42,0,0,1,56.63,87.32Z"/><path class="cls-5" d="M56.76,83.7a5.5,5.5,0,0,1,2.57,1.78,5.5,5.5,0,0,1-3.12.15,5.42,5.42,0,0,1-2.55-1.77A5.42,5.42,0,0,1,56.76,83.7Z"/><path class="cls-5" d="M84.19,25.91A9.32,9.32,0,0,0,85.71,31,9.32,9.32,0,0,0,87.58,26a9.19,9.19,0,0,0-1.52-5A9.19,9.19,0,0,0,84.19,25.91Z"/><path class="cls-5" d="M79.77,30.17a9.32,9.32,0,0,0,5.14,1.22,9.32,9.32,0,0,0-3.35-4.09,9.19,9.19,0,0,0-5.12-1.21A9.19,9.19,0,0,0,79.77,30.17Z"/><path class="cls-5" d="M80.31,20.4a8.38,8.38,0,0,0,2.06,4.29,8.38,8.38,0,0,0,1-4.66,8.27,8.27,0,0,0-2.06-4.27A8.27,8.27,0,0,0,80.31,20.4Z"/><path class="cls-5" d="M77,24.81a8.38,8.38,0,0,0,4.74.36A8.38,8.38,0,0,0,78.17,22a8.27,8.27,0,0,0-4.72-.35A8.27,8.27,0,0,0,77,24.81Z"/><path class="cls-5" d="M76.21,16a7.55,7.55,0,0,0,2.37,3.56,7.55,7.55,0,0,0,.27-4.27,7.44,7.44,0,0,0-2.37-3.54A7.44,7.44,0,0,0,76.21,16Z"/><path class="cls-5" d="M73.8,20.39a7.55,7.55,0,0,0,4.27-.27,7.55,7.55,0,0,0-3.56-2.37,7.44,7.44,0,0,0-4.25.28A7.44,7.44,0,0,0,73.8,20.39Z"/><path class="cls-5" d="M72.25,12.73a6.79,6.79,0,0,0,2.51,2.92,6.79,6.79,0,0,0-.22-3.85A6.7,6.7,0,0,0,72,8.9,6.7,6.7,0,0,0,72.25,12.73Z"/><path class="cls-5" d="M70.57,16.88a6.79,6.79,0,0,0,3.79-.71,6.79,6.79,0,0,0-3.44-1.73,6.7,6.7,0,0,0-3.77.72A6.7,6.7,0,0,0,70.57,16.88Z"/><path class="cls-5" d="M68,10a6.11,6.11,0,0,0,2.56,2.34A6.11,6.11,0,0,0,70,8.93a6,6,0,0,0-2.56-2.32A6,6,0,0,0,68,10Z"/><path class="cls-5" d="M67,13.9a6.11,6.11,0,0,0,3.31-1.05A6.11,6.11,0,0,0,67,11.68a6,6,0,0,0-3.29,1.05A6,6,0,0,0,67,13.9Z"/><path class="cls-5" d="M63.61,7.93a5.5,5.5,0,0,0,2.55,1.81,5.5,5.5,0,0,0-.93-3A5.42,5.42,0,0,0,62.69,5,5.42,5.42,0,0,0,63.61,7.93Z"/><path class="cls-5" d="M63.1,11.52a5.5,5.5,0,0,0,2.84-1.3,5.5,5.5,0,0,0-3-.68,5.42,5.42,0,0,0-2.82,1.3A5.42,5.42,0,0,0,63.1,11.52Z"/><path class="cls-5" d="M14.57,73.19a9.32,9.32,0,0,0-2.37-4.72,9.32,9.32,0,0,0-1,5.2,9.19,9.19,0,0,0,2.37,4.7A9.19,9.19,0,0,0,14.57,73.19Z"/><path class="cls-5" d="M18.18,68.22a9.32,9.32,0,0,0-5.28-.31,9.32,9.32,0,0,0,4,3.45,9.19,9.19,0,0,0,5.25.3A9.19,9.19,0,0,0,18.18,68.22Z"/><path class="cls-5" d="M19.35,77.94a8.38,8.38,0,0,0-2.77-3.87,8.38,8.38,0,0,0-.14,4.76,8.27,8.27,0,0,0,2.77,3.84A8.27,8.27,0,0,0,19.35,77.94Z"/><path class="cls-5" d="M21.86,73a8.38,8.38,0,0,0-4.73.47,8.38,8.38,0,0,0,4,2.5,8.27,8.27,0,0,0,4.71-.47A8.27,8.27,0,0,0,21.86,73Z"/><path class="cls-5" d="M24.14,81.53a7.55,7.55,0,0,0-3-3.1,7.55,7.55,0,0,0,.47,4.26,7.44,7.44,0,0,0,2.95,3.08A7.44,7.44,0,0,0,24.14,81.53Z"/><path class="cls-5" d="M25.76,76.82a7.55,7.55,0,0,0-4.16,1,7.55,7.55,0,0,0,3.92,1.72,7.44,7.44,0,0,0,4.14-1A7.44,7.44,0,0,0,25.76,76.82Z"/><path class="cls-5" d="M28.62,84.09a6.79,6.79,0,0,0-3-2.44,6.79,6.79,0,0,0,.89,3.75,6.7,6.7,0,0,0,3,2.43A6.7,6.7,0,0,0,28.62,84.09Z"/><path class="cls-5" d="M29.55,79.71a6.79,6.79,0,0,0-3.61,1.36,6.79,6.79,0,0,0,3.69,1.11,6.7,6.7,0,0,0,3.59-1.36A6.7,6.7,0,0,0,29.55,79.71Z"/><path class="cls-5" d="M33.23,86a6.11,6.11,0,0,0-2.93-1.86,6.11,6.11,0,0,0,1.21,3.25,6,6,0,0,0,2.92,1.84A6,6,0,0,0,33.23,86Z"/><path class="cls-5" d="M33.59,82a6.11,6.11,0,0,0-3.07,1.61,6.11,6.11,0,0,0,3.42.58A6,6,0,0,0,37,82.62,6,6,0,0,0,33.59,82Z"/><path class="cls-5" d="M38,87.32A5.5,5.5,0,0,0,35.14,86a5.5,5.5,0,0,0,1.43,2.77,5.42,5.42,0,0,0,2.81,1.33A5.42,5.42,0,0,0,38,87.32Z"/><path class="cls-5" d="M37.83,83.7a5.5,5.5,0,0,0-2.57,1.78,5.5,5.5,0,0,0,3.12.15,5.42,5.42,0,0,0,2.55-1.77A5.42,5.42,0,0,0,37.83,83.7Z"/><path class="cls-6" d="M53.2,5.91a5.91,5.91,0,0,0-5.91,5.91,5.91,5.91,0,0,0-5.91-5.91A5.91,5.91,0,0,0,47.3,0,5.91,5.91,0,0,0,53.2,5.91Z"/><path class="cls-6" d="M53.2,87.09A5.91,5.91,0,0,0,47.3,93a5.91,5.91,0,0,0-5.91-5.91,5.91,5.91,0,0,0,5.91-5.91A5.91,5.91,0,0,0,53.2,87.09Z"/><path class="cls-7" d="M74.43,65.58c-.63.9-1.32,1.77-2,2.6l-1.81-.25a172,172,0,0,0-46.55,0l-1.81.25q-1.08-1.25-2-2.6l1.69-.26a172.82,172.82,0,0,1,50.86,0Z"/><path class="cls-3" d="M60.46,6.92a3.21,3.21,0,0,0-3.21,3.21A3.21,3.21,0,0,0,54,6.92a3.21,3.21,0,0,0,3.21-3.21A3.21,3.21,0,0,0,60.46,6.92Z"/><path class="cls-3" d="M40.54,6.92a3.21,3.21,0,0,0-3.21,3.21,3.21,3.21,0,0,0-3.21-3.21,3.21,3.21,0,0,0,3.21-3.21A3.21,3.21,0,0,0,40.54,6.92Z"/><path class="cls-6" d="M31.6,22.54a.47.47,0,0,1,.31-.43c1.88-.74,2.82-1.12,4.7-1.78s2.82.17,2.82,1.88v4.16c0,1.53-1,2.42-2.82,2.5L34.26,29v4a.26.26,0,0,1-.31.29l-2-.16a.32.32,0,0,1-.31-.33ZM36,27c.53-.07.78-.33.78-.69V23.43c0-.43-.25-.6-.78-.43l-1.72.56v3.71Z"/><path class="cls-6" d="M41.39,21.74a3.15,3.15,0,0,1,2.82-3.38,19.7,19.7,0,0,1,2.19-.2c1.84-.08,2.82,1.08,2.82,2.94v10A2.56,2.56,0,0,1,46.41,34l-2.19,0a2.69,2.69,0,0,1-2.82-3Zm4.52,9.69a.68.68,0,0,0,.78-.77V21.5a.65.65,0,0,0-.78-.74l-1.14.12a.82.82,0,0,0-.78.89v8.83a.72.72,0,0,0,.78.81Z"/><path class="cls-6" d="M53.85,31.2,58.51,31c.22,0,.31.09.31.26v1.84a.3.3,0,0,1-.31.35c-2.8.22-4.21.32-7,.44-.2,0-.31-.09-.31-.32V18.8c0-.2.12-.31.31-.27.81.14,1.22.23,2,.43a.38.38,0,0,1,.31.41Z"/><path class="cls-6" d="M62.74,22.11a.47.47,0,0,1,.31.43V32.82a.32.32,0,0,1-.31.33l-2,.16a.26.26,0,0,1-.31-.29V21.51c0-.2.1-.28.31-.2Z"/></g></g></g></svg>