<svg xmlns="http://www.w3.org/2000/svg" viewBox="0 0 1106 273.49"><defs><style>.cls-1{fill:#3b3c3c;}.cls-2{fill:#231f20;}.cls-3{fill:#aeb439;}.cls-4{fill:#ccd93e;}.cls-5{fill:#e5eaa5;}.cls-6{fill:#b7bc3f;}.cls-7{fill:#d7e263;}.cls-8{fill:#eef2c0;}</style></defs><title>lsac</title><g id="Layer_2" data-name="Layer 2"><g id="Logo_with_undertext" data-name="Logo with undertext"><path class="cls-1" d="M299.06,211.05V6h30V180.82H442.79v30.23Z"/><path class="cls-1" d="M637.9,148.67a56,56,0,0,1-7,27.89,64.17,64.17,0,0,1-19.24,21.16,92.88,92.88,0,0,1-29,13.33,134.81,134.81,0,0,1-36.27,4.67,96.77,96.77,0,0,1-23.5-2.91,113.15,113.15,0,0,1-22.67-8.32,110.16,110.16,0,0,1-20.75-13.3A108.32,108.32,0,0,1,462,173.4l21.44-20.06a141.82,141.82,0,0,0,9.89,10.58A77,77,0,0,0,507,174.37a81.16,81.16,0,0,0,17.59,8,70.59,70.59,0,0,0,21.85,3.16,113.64,113.64,0,0,0,22.26-2.19,71.25,71.25,0,0,0,19.51-6.7,40.57,40.57,0,0,0,13.74-11.49,26.89,26.89,0,0,0,5.22-16.56q0-11.77-5.36-18.06a30.67,30.67,0,0,0-13.88-9.17,72.44,72.44,0,0,0-19.51-3.42q-11-.55-22-.55-37.1,0-56.34-13.19T470.82,64.31a54.74,54.74,0,0,1,5.63-24,65.47,65.47,0,0,1,15.66-20.61A77.53,77.53,0,0,1,516,5.36,83.59,83.59,0,0,1,546.39,0a131,131,0,0,1,43.69,7.15q20.33,7.15,38.75,25.28l-18.69,22a185.93,185.93,0,0,0-15.53-11.27,83,83,0,0,0-14.7-7.56,73.25,73.25,0,0,0-15.53-4.12,119.88,119.88,0,0,0-18-1.24A48.7,48.7,0,0,0,529.9,33a45.55,45.55,0,0,0-13.47,7.42,35.27,35.27,0,0,0-9.07,10.85A26.84,26.84,0,0,0,504.07,64,21.42,21.42,0,0,0,506,73a18.33,18.33,0,0,0,6.87,7.56,40.3,40.3,0,0,0,13.33,5.22q8.38,1.93,21.57,1.92,26.93,0,44.38,4.12t27.62,12A41.1,41.1,0,0,1,633.92,123,77.67,77.67,0,0,1,637.9,148.67Z"/><path class="cls-1" d="M740.13,2.47h33l98.66,208.58H838.23l-13.47-30H762.39A144,144,0,0,0,737.52,183,98,98,0,0,0,719,188a51.49,51.49,0,0,0-12.37,6.6q-4.68,3.58-6.32,6.87l-5.22,9.62H662.63l88.76-183.3Zm71.18,148.4L766.51,64.31l-45.34,98.11q5.49-4.67,18.14-8.11t34.08-3.44Z"/><path class="cls-1" d="M1055.88,55A85.1,85.1,0,0,0,1029,36.82a82.86,82.86,0,0,0-33-6.6A87.34,87.34,0,0,0,964.1,36,75.58,75.58,0,0,0,938.4,52.31a76.56,76.56,0,0,0-17,25A79.5,79.5,0,0,0,915.18,109a71.38,71.38,0,0,0,6.6,30.59,74.92,74.92,0,0,0,17.86,24.28,84.78,84.78,0,0,0,25.83,15.91,82.93,82.93,0,0,0,30.78,5.76,79.59,79.59,0,0,0,36.82-8.58,84.47,84.47,0,0,0,28.31-23.29l18.41,25a113.4,113.4,0,0,1-37.24,27.21,114.76,114.76,0,0,1-90,1.37,109.34,109.34,0,0,1-66.78-101.68,98.87,98.87,0,0,1,8.93-41.91,105.44,105.44,0,0,1,24.18-33.53A114.1,114.1,0,0,1,996.25,0a109.42,109.42,0,0,1,43.56,8.66,111.63,111.63,0,0,1,35.31,23.77Z"/><path class="cls-2" d="M.25,264.31V237H3.83v24.42H17.41v2.87Z"/><path class="cls-2" d="M20.08,238.3a1.92,1.92,0,0,1,.59-1.56,2.39,2.39,0,0,1,2.93,0,1.9,1.9,0,0,1,.61,1.55,1.92,1.92,0,0,1-.61,1.56,2.34,2.34,0,0,1-2.93,0A2,2,0,0,1,20.08,238.3Zm3.79,26H20.38V243.85h3.49Z"/><path class="cls-2" d="M48.44,243.85v2l-4.27.45A6.38,6.38,0,0,1,45.22,248a5.87,5.87,0,0,1,.46,2.38,5.76,5.76,0,0,1-2.32,4.8A10.15,10.15,0,0,1,37,256.93a11.86,11.86,0,0,1-1.94-.15q-2.23,1-2.23,2.63a1.31,1.31,0,0,0,.78,1.24,6.33,6.33,0,0,0,2.67.4h4.08a10,10,0,0,1,5.76,1.4,4.65,4.65,0,0,1,2,4.07,5.66,5.66,0,0,1-3.07,5.18q-3.07,1.78-9,1.78a13.48,13.48,0,0,1-7-1.49,4.69,4.69,0,0,1-2.45-4.22A4.44,4.44,0,0,1,28,264.55a7.13,7.13,0,0,1,3.79-1.85,3.58,3.58,0,0,1-1.48-1.1,2.69,2.69,0,0,1-.6-1.74,3,3,0,0,1,.67-2,6.91,6.91,0,0,1,2.13-1.62,6.08,6.08,0,0,1-2.92-2.22,6,6,0,0,1-1.13-3.58,6.25,6.25,0,0,1,2.27-5.18,10.08,10.08,0,0,1,6.44-1.82,13.12,13.12,0,0,1,3.26.37ZM30,267.74a2.73,2.73,0,0,0,1.58,2.52,9.64,9.64,0,0,0,4.53.86A14,14,0,0,0,42.66,270a3.53,3.53,0,0,0,2.12-3.16,2.41,2.41,0,0,0-1.16-2.31,10,10,0,0,0-4.36-.64H35.07a6,6,0,0,0-3.71,1A3.42,3.42,0,0,0,30,267.74Zm1.89-17.34a3.92,3.92,0,0,0,1.37,3.25,5.92,5.92,0,0,0,3.81,1.1q5.12,0,5.12-4.41,0-4.61-5.18-4.61a5.53,5.53,0,0,0-3.79,1.18A4.42,4.42,0,0,0,31.94,250.4Z"/><path class="cls-2" d="M65.64,264.31,65,261.4h-.17a9.53,9.53,0,0,1-3.44,2.6,11.69,11.69,0,0,1-4.28.68,8.35,8.35,0,0,1-5.38-1.57,5.4,5.4,0,0,1-1.95-4.46q0-6.2,11.18-6.5l3.92-.11v-1.27a4.8,4.8,0,0,0-1.17-3.56,5.18,5.18,0,0,0-3.74-1.15,16.78,16.78,0,0,0-6.53,1.57l-1.07-2.37A17.81,17.81,0,0,1,56.06,244a18.11,18.11,0,0,1,4.07-.47q4.13,0,6.12,1.62t2,5.21v14Zm-7.89-2.19a7.66,7.66,0,0,0,5.13-1.59,5.52,5.52,0,0,0,1.86-4.44v-1.85l-3.49.13a14.08,14.08,0,0,0-6,1.15,3.37,3.37,0,0,0-1.84,3.16,3,3,0,0,0,1.15,2.56A5.17,5.17,0,0,0,57.75,262.12Z"/><path class="cls-2" d="M101.08,257a6.43,6.43,0,0,1-2.95,5.62,14,14,0,0,1-8,2,22.33,22.33,0,0,1-8.42-1.25v-3.06a25.29,25.29,0,0,0,8.55,1.53,9.8,9.8,0,0,0,5.39-1.2,3.81,3.81,0,0,0,1.81-3.35,3.93,3.93,0,0,0-.64-2.32,5.8,5.8,0,0,0-2.15-1.67,32.14,32.14,0,0,0-4.58-1.74A15,15,0,0,1,84,248.38a6.64,6.64,0,0,1-1.84-4.87,5.83,5.83,0,0,1,2.67-5,12.13,12.13,0,0,1,7.07-1.87,23.16,23.16,0,0,1,8.44,1.49l-1.12,2.76a21.15,21.15,0,0,0-7.41-1.42,7.85,7.85,0,0,0-4.44,1.08,3.43,3.43,0,0,0-1.6,3,4.19,4.19,0,0,0,.59,2.32,5.31,5.31,0,0,0,2,1.66,26.33,26.33,0,0,0,4.28,1.67q4.84,1.53,6.66,3.28A6,6,0,0,1,101.08,257Z"/><path class="cls-2" d="M112.58,262.12a12.77,12.77,0,0,0,1.79-.12,13.13,13.13,0,0,0,1.37-.25v2.37a7,7,0,0,1-1.67.4,14,14,0,0,1-2,.16q-6.69,0-6.69-6.25V246.25h-3.31v-1.49l3.31-1.29,1.47-4.37h2v4.74h6.7v2.41h-6.7v12a3.84,3.84,0,0,0,1,2.84A3.66,3.66,0,0,0,112.58,262.12Z"/><path class="cls-2" d="M121.91,243.85v13.27a5,5,0,0,0,1.28,3.73,5.64,5.64,0,0,0,4,1.23q3.62,0,5.29-1.76t1.67-5.73V243.85h3.49v20.46h-2.88l-.51-2.74h-.19a6.78,6.78,0,0,1-3,2.31,11.11,11.11,0,0,1-4.35.8q-4.21,0-6.31-1.77t-2.09-5.68V243.85Z"/><path class="cls-2" d="M159.07,261.56h-.19q-2.42,3.12-7.24,3.12a9.07,9.07,0,0,1-7-2.74q-2.52-2.74-2.52-7.8t2.53-7.86a9,9,0,0,1,7-2.8,8.82,8.82,0,0,1,7.2,3h.27L159,245l-.08-1.44v-8.33h3.49v29h-2.84Zm-7,.52q3.58,0,5.19-1.73t1.61-5.57v-.65q0-4.35-1.63-6.21T152,246.07a5.58,5.58,0,0,0-4.71,2.12,9.62,9.62,0,0,0-1.63,6q0,3.92,1.62,5.92A5.77,5.77,0,0,0,152.08,262.09Z"/><path class="cls-2" d="M177.81,264.68a11.35,11.35,0,0,1-8.07-2.76,10,10,0,0,1-3-7.67,11,11,0,0,1,2.75-7.86,9.66,9.66,0,0,1,7.38-2.91,9.27,9.27,0,0,1,6.86,2.53,9,9,0,0,1,2.53,6.67v2h-15.9a6.8,6.8,0,0,0,7.54,7.34,20.62,20.62,0,0,0,7.37-1.38v2.76a20.2,20.2,0,0,1-3.51,1A22,22,0,0,1,177.81,264.68Zm-.95-18.61a6.09,6.09,0,0,0-4.43,1.61,7,7,0,0,0-1.95,4.44h12.06a6.29,6.29,0,0,0-1.47-4.49A5.52,5.52,0,0,0,176.86,246.07Z"/><path class="cls-2" d="M206.31,264.31V251.07a5,5,0,0,0-1.28-3.73,5.64,5.64,0,0,0-4-1.23q-3.62,0-5.31,1.74T194,253.57v10.74h-3.49V243.85h2.84l.57,2.8h.17a6.94,6.94,0,0,1,3-2.34,10.84,10.84,0,0,1,4.32-.83q4.17,0,6.27,1.78t2.1,5.7v13.35Z"/><path class="cls-2" d="M222.72,262.12a12.77,12.77,0,0,0,1.79-.12,13.13,13.13,0,0,0,1.37-.25v2.37a7,7,0,0,1-1.67.4,14,14,0,0,1-2,.16q-6.69,0-6.69-6.25V246.25h-3.31v-1.49l3.31-1.29,1.47-4.37h2v4.74h6.7v2.41H219v12a3.84,3.84,0,0,0,1,2.84A3.66,3.66,0,0,0,222.72,262.12Zm-6,10.17a20.2,20.2,0,0,0,1.13-2.93,19.66,19.66,0,0,0,.68-2.73H222V267a12,12,0,0,1-1.26,2.75,16.1,16.1,0,0,1-2.19,3h-1.89Z"/><path class="cls-2" d="M228.46,238.3a1.92,1.92,0,0,1,.59-1.56,2.39,2.39,0,0,1,2.93,0,1.9,1.9,0,0,1,.61,1.55,1.92,1.92,0,0,1-.61,1.56,2.34,2.34,0,0,1-2.93,0A2,2,0,0,1,228.46,238.3Zm3.79,26h-3.5V243.85h3.5Z"/><path class="cls-2" d="M241.43,264.31h-3.49v-29h3.49Z"/><path class="cls-2" d="M267,254.06q0,5-2.84,7.81a10.69,10.69,0,0,1-7.85,2.81,11.44,11.44,0,0,1-5.49-1.29,8.94,8.94,0,0,1-3.71-3.7,11.66,11.66,0,0,1-1.31-5.64q0-5,2.82-7.79t7.83-2.79A9.85,9.85,0,0,1,267,254.06Zm-17.58,0a8.91,8.91,0,0,0,1.77,6,7.64,7.64,0,0,0,10.41,0,8.87,8.87,0,0,0,1.78-6,8.73,8.73,0,0,0-1.78-5.93,6.62,6.62,0,0,0-5.25-2,6.51,6.51,0,0,0-5.18,2Q249.46,250.1,249.46,254.06Z"/><path class="cls-2" d="M282,243.47a15.39,15.39,0,0,1,2.76.23l-.48,2.87a13.4,13.4,0,0,0-2.53-.28,6.48,6.48,0,0,0-4.79,2,6.86,6.86,0,0,0-2,5v11h-3.5V243.85h2.88l.4,3.79h.17a9.46,9.46,0,0,1,3.09-3.08A7.61,7.61,0,0,1,282,243.47Z"/><path class="cls-2" d="M312.5,261.56h-.19q-2.42,3.12-7.24,3.12a9.07,9.07,0,0,1-7-2.74q-2.52-2.74-2.52-7.8t2.53-7.86a9,9,0,0,1,7-2.8,8.82,8.82,0,0,1,7.2,3h.27l-.15-1.48-.08-1.44v-8.33h3.49v29H313Zm-7,.52q3.58,0,5.19-1.73t1.61-5.57v-.65q0-4.35-1.63-6.21t-5.21-1.86a5.58,5.58,0,0,0-4.71,2.12,9.62,9.62,0,0,0-1.63,6q0,3.92,1.62,5.92A5.77,5.77,0,0,0,305.51,262.09Z"/><path class="cls-2" d="M321.19,238.3a1.92,1.92,0,0,1,.59-1.56,2.39,2.39,0,0,1,2.93,0,1.9,1.9,0,0,1,.61,1.55,1.92,1.92,0,0,1-.61,1.56,2.19,2.19,0,0,1-1.45.51,2.16,2.16,0,0,1-1.47-.51A2,2,0,0,1,321.19,238.3Zm3.79,26h-3.5V243.85H325Z"/><path class="cls-2" d="M346.46,264.31V251.07a5,5,0,0,0-1.28-3.73,5.64,5.64,0,0,0-4-1.23q-3.62,0-5.31,1.74t-1.68,5.73v10.74h-3.5V243.85h2.84l.57,2.8h.17a6.94,6.94,0,0,1,3-2.34,10.84,10.84,0,0,1,4.32-.83q4.17,0,6.27,1.78T350,251v13.35Z"/><path class="cls-2" d="M369,264.31h-3.58V237h17.16v2.82H369v10h12.76v2.82H369Z"/><path class="cls-2" d="M399.6,264.31l-.69-2.91h-.17a9.53,9.53,0,0,1-3.44,2.6,11.69,11.69,0,0,1-4.28.68,8.35,8.35,0,0,1-5.38-1.57,5.4,5.4,0,0,1-1.95-4.46q0-6.2,11.18-6.5l3.92-.11v-1.27a4.8,4.8,0,0,0-1.17-3.56,5.18,5.18,0,0,0-3.74-1.15,16.78,16.78,0,0,0-6.53,1.57l-1.07-2.37A17.81,17.81,0,0,1,390,244a18.11,18.11,0,0,1,4.07-.47q4.13,0,6.12,1.62t2,5.21v14Zm-7.89-2.19a7.66,7.66,0,0,0,5.13-1.59,5.52,5.52,0,0,0,1.86-4.44v-1.85l-3.5.13a14.08,14.08,0,0,0-6,1.15,3.37,3.37,0,0,0-1.84,3.16,3,3,0,0,0,1.15,2.56A5.17,5.17,0,0,0,391.71,262.12Z"/><path class="cls-2" d="M416.89,264.68q-5,0-7.76-2.73t-2.75-7.74q0-5.13,2.79-7.94t7.95-2.8a17.69,17.69,0,0,1,3.33.32,12,12,0,0,1,2.61.75L422,247.17a18.24,18.24,0,0,0-2.53-.68,12.73,12.73,0,0,0-2.42-.27q-7,0-7,8a8.68,8.68,0,0,0,1.72,5.79,6.3,6.3,0,0,0,5.08,2,17.24,17.24,0,0,0,5.92-1.1v2.74A14,14,0,0,1,416.89,264.68Z"/><path class="cls-2" d="M429.75,243.85v13.27a5,5,0,0,0,1.28,3.73,5.64,5.64,0,0,0,4,1.23q3.62,0,5.3-1.76T442,254.6V243.85h3.5v20.46h-2.88l-.51-2.74h-.19a6.78,6.78,0,0,1-3,2.31,11.11,11.11,0,0,1-4.35.8q-4.21,0-6.31-1.77t-2.09-5.68V243.85Z"/><path class="cls-2" d="M454.7,264.31h-3.5v-29h3.5Z"/><path class="cls-2" d="M467.84,262.12a12.77,12.77,0,0,0,1.79-.12,13.12,13.12,0,0,0,1.37-.25v2.37a7,7,0,0,1-1.67.4,14,14,0,0,1-2,.16q-6.69,0-6.69-6.25V246.25h-3.31v-1.49l3.31-1.29,1.47-4.37h2v4.74h6.7v2.41h-6.7v12a3.84,3.84,0,0,0,1,2.84A3.66,3.66,0,0,0,467.84,262.12Z"/><path class="cls-2" d="M488.07,264.31l-.69-2.91h-.17a9.53,9.53,0,0,1-3.44,2.6,11.69,11.69,0,0,1-4.28.68,8.35,8.35,0,0,1-5.38-1.57,5.4,5.4,0,0,1-1.95-4.46q0-6.2,11.18-6.5l3.92-.11v-1.27a4.8,4.8,0,0,0-1.17-3.56,5.18,5.18,0,0,0-3.74-1.15,16.78,16.78,0,0,0-6.53,1.57l-1.07-2.37a17.81,17.81,0,0,1,3.74-1.29,18.11,18.11,0,0,1,4.07-.47q4.13,0,6.12,1.62t2,5.21v14Zm-7.89-2.19a7.66,7.66,0,0,0,5.13-1.59,5.52,5.52,0,0,0,1.86-4.44v-1.85l-3.5.13a14.08,14.08,0,0,0-6,1.15,3.37,3.37,0,0,0-1.84,3.16,3,3,0,0,0,1.15,2.56A5.17,5.17,0,0,0,480.18,262.12Z"/><path class="cls-2" d="M503.59,262.12a12.77,12.77,0,0,0,1.79-.12,13.14,13.14,0,0,0,1.37-.25v2.37a7.05,7.05,0,0,1-1.67.4,14,14,0,0,1-2,.16q-6.69,0-6.69-6.25V246.25h-3.31v-1.49l3.31-1.29,1.47-4.37h2v4.74h6.7v2.41h-6.7v12a3.84,3.84,0,0,0,1,2.84A3.66,3.66,0,0,0,503.59,262.12Z"/><path class="cls-2" d="M519.38,264.68a11.35,11.35,0,0,1-8.07-2.76,10,10,0,0,1-3-7.67,11,11,0,0,1,2.75-7.86,9.66,9.66,0,0,1,7.38-2.91,9.27,9.27,0,0,1,6.86,2.53,9,9,0,0,1,2.53,6.67v2H512a6.8,6.8,0,0,0,7.54,7.34,20.62,20.62,0,0,0,7.37-1.38v2.76a20.2,20.2,0,0,1-3.51,1A22,22,0,0,1,519.38,264.68Zm-.95-18.61a6.09,6.09,0,0,0-4.43,1.61,7,7,0,0,0-1.95,4.44h12.06a6.29,6.29,0,0,0-1.47-4.49A5.52,5.52,0,0,0,518.44,246.07Z"/><path class="cls-2" d="M546.29,264.31l-.69-2.91h-.17A9.53,9.53,0,0,1,542,264a11.69,11.69,0,0,1-4.28.68,8.35,8.35,0,0,1-5.38-1.57,5.4,5.4,0,0,1-1.95-4.46q0-6.2,11.18-6.5l3.92-.11v-1.27a4.8,4.8,0,0,0-1.17-3.56,5.18,5.18,0,0,0-3.74-1.15,16.78,16.78,0,0,0-6.53,1.57L533,245.27A17.81,17.81,0,0,1,536.7,244a18.11,18.11,0,0,1,4.07-.47q4.13,0,6.12,1.62t2,5.21v14Zm-7.89-2.19a7.66,7.66,0,0,0,5.13-1.59,5.52,5.52,0,0,0,1.86-4.44v-1.85l-3.5.13a14.08,14.08,0,0,0-6,1.15,3.37,3.37,0,0,0-1.84,3.16,3,3,0,0,0,1.15,2.56A5.17,5.17,0,0,0,538.4,262.12Z"/><path class="cls-2" d="M579.54,261.56h-.19q-2.42,3.12-7.24,3.12a9.07,9.07,0,0,1-7-2.74q-2.52-2.74-2.52-7.8t2.53-7.86a9,9,0,0,1,7-2.8,8.82,8.82,0,0,1,7.2,3h.27l-.15-1.48-.08-1.44v-8.33h3.5v29H580Zm-7,.52q3.58,0,5.19-1.73t1.61-5.57v-.65q0-4.35-1.63-6.21t-5.21-1.86a5.58,5.58,0,0,0-4.71,2.12,9.62,9.62,0,0,0-1.63,6q0,3.92,1.62,5.92A5.77,5.77,0,0,0,572.55,262.09Z"/><path class="cls-2" d="M598.28,264.68a11.36,11.36,0,0,1-8.07-2.76,10,10,0,0,1-3-7.67,11,11,0,0,1,2.75-7.86,9.66,9.66,0,0,1,7.38-2.91,9.27,9.27,0,0,1,6.86,2.53,9,9,0,0,1,2.53,6.67v2H590.87A6.8,6.8,0,0,0,598.4,262a20.62,20.62,0,0,0,7.37-1.38v2.76a20.21,20.21,0,0,1-3.51,1A22,22,0,0,1,598.28,264.68Zm-.95-18.61a6.09,6.09,0,0,0-4.43,1.61,7,7,0,0,0-1.95,4.44H603a6.29,6.29,0,0,0-1.47-4.49A5.52,5.52,0,0,0,597.33,246.07Z"/><path class="cls-2" d="M640.34,264.31l-3.83-8.68H624.18l-3.79,8.68h-3.62l12.17-27.41h3L644,264.31Zm-4.95-11.54-3.58-8.46a41.44,41.44,0,0,1-1.43-3.94,32.49,32.49,0,0,1-1.33,3.94l-3.62,8.46Z"/><path class="cls-2" d="M649.31,243.85v13.27a5,5,0,0,0,1.28,3.73,5.64,5.64,0,0,0,4,1.23q3.62,0,5.29-1.76t1.67-5.73V243.85h3.49v20.46H662.2l-.51-2.74h-.19a6.78,6.78,0,0,1-3,2.31,11.11,11.11,0,0,1-4.35.8q-4.21,0-6.31-1.77t-2.09-5.68V243.85Z"/><path class="cls-2" d="M678.22,262.12A12.77,12.77,0,0,0,680,262a13.13,13.13,0,0,0,1.37-.25v2.37a7,7,0,0,1-1.67.4,14,14,0,0,1-2,.16q-6.69,0-6.69-6.25V246.25h-3.31v-1.49l3.31-1.29,1.47-4.37h2v4.74h6.7v2.41h-6.7v12a3.84,3.84,0,0,0,1,2.84A3.66,3.66,0,0,0,678.22,262.12Z"/><path class="cls-2" d="M704.18,254.06q0,5-2.84,7.81a10.69,10.69,0,0,1-7.85,2.81,11.43,11.43,0,0,1-5.49-1.29,8.94,8.94,0,0,1-3.71-3.7,11.66,11.66,0,0,1-1.31-5.64q0-5,2.82-7.79t7.83-2.79a9.85,9.85,0,0,1,10.55,10.59Zm-17.58,0a8.91,8.91,0,0,0,1.77,6,7.64,7.64,0,0,0,10.41,0,8.87,8.87,0,0,0,1.78-6,8.73,8.73,0,0,0-1.78-5.93,6.62,6.62,0,0,0-5.25-2,6.51,6.51,0,0,0-5.18,2Q686.6,250.1,686.6,254.06Z"/><path class="cls-2" d="M738,264.31V251a5.1,5.1,0,0,0-1.18-3.67,4.88,4.88,0,0,0-3.66-1.22,6.32,6.32,0,0,0-4.82,1.66q-1.56,1.66-1.56,5.12v11.43h-3.49V251a5.1,5.1,0,0,0-1.18-3.67,4.92,4.92,0,0,0-3.68-1.22q-3.28,0-4.81,1.75t-1.53,5.72v10.74h-3.49V243.85h2.84l.57,2.8h.17a6.59,6.59,0,0,1,2.79-2.33,9.43,9.43,0,0,1,4-.84q5.41,0,7.07,3.47h.17a7.06,7.06,0,0,1,3-2.54,10.26,10.26,0,0,1,4.46-.93q3.92,0,5.86,1.78t1.95,5.7v13.35Z"/><path class="cls-2" d="M761.15,264.31l-.69-2.91h-.17a9.53,9.53,0,0,1-3.44,2.6,11.69,11.69,0,0,1-4.28.68,8.35,8.35,0,0,1-5.38-1.57,5.4,5.4,0,0,1-1.95-4.46q0-6.2,11.18-6.5l3.92-.11v-1.27a4.8,4.8,0,0,0-1.17-3.56,5.18,5.18,0,0,0-3.74-1.15,16.78,16.78,0,0,0-6.53,1.57l-1.07-2.37a17.8,17.8,0,0,1,3.74-1.29,18.11,18.11,0,0,1,4.07-.47q4.13,0,6.12,1.62t2,5.21v14Zm-7.89-2.19a7.66,7.66,0,0,0,5.13-1.59,5.52,5.52,0,0,0,1.86-4.44v-1.85l-3.5.13a14.08,14.08,0,0,0-6,1.15,3.37,3.37,0,0,0-1.84,3.16,3,3,0,0,0,1.15,2.56A5.17,5.17,0,0,0,753.26,262.12Z"/><path class="cls-2" d="M776.67,262.12a12.76,12.76,0,0,0,1.79-.12,13.12,13.12,0,0,0,1.37-.25v2.37a7,7,0,0,1-1.67.4,14,14,0,0,1-2,.16q-6.69,0-6.69-6.25V246.25h-3.31v-1.49l3.31-1.29,1.47-4.37h2v4.74h6.7v2.41H773v12a3.84,3.84,0,0,0,1,2.84A3.66,3.66,0,0,0,776.67,262.12Z"/><path class="cls-2" d="M782.42,238.3a1.92,1.92,0,0,1,.59-1.56,2.39,2.39,0,0,1,2.93,0,1.9,1.9,0,0,1,.61,1.55,1.92,1.92,0,0,1-.61,1.56,2.34,2.34,0,0,1-2.93,0A2,2,0,0,1,782.42,238.3Zm3.79,26h-3.49V243.85h3.49Z"/><path class="cls-2" d="M801.12,264.68q-5,0-7.76-2.73t-2.75-7.74q0-5.13,2.79-7.94t7.95-2.8a17.69,17.69,0,0,1,3.33.32,12,12,0,0,1,2.61.75l-1.07,2.63a18.25,18.25,0,0,0-2.53-.68,12.73,12.73,0,0,0-2.42-.27q-7,0-7,8A8.68,8.68,0,0,0,796,260a6.3,6.3,0,0,0,5.08,2,17.24,17.24,0,0,0,5.92-1.1v2.74A14,14,0,0,1,801.12,264.68Z"/><path class="cls-2" d="M824.89,264.31l-.69-2.91H824a9.53,9.53,0,0,1-3.44,2.6,11.69,11.69,0,0,1-4.28.68,8.35,8.35,0,0,1-5.38-1.57,5.4,5.4,0,0,1-1.95-4.46q0-6.2,11.18-6.5l3.92-.11v-1.27a4.8,4.8,0,0,0-1.17-3.56,5.18,5.18,0,0,0-3.74-1.15,16.78,16.78,0,0,0-6.53,1.57l-1.07-2.37A17.81,17.81,0,0,1,815.3,244a18.11,18.11,0,0,1,4.07-.47q4.13,0,6.12,1.62t2,5.21v14ZM819,241.14a7.31,7.31,0,0,1-4.59-1.28,5,5,0,0,1-1.83-3.72h2.19a2.82,2.82,0,0,0,.56,1.44,2.46,2.46,0,0,0,1.2.77,9.4,9.4,0,0,0,2.56.24,6.37,6.37,0,0,0,3.14-.6,2.51,2.51,0,0,0,1.22-1.85h2.19a4.94,4.94,0,0,1-2,3.68A7.56,7.56,0,0,1,819,241.14Zm-2,21a7.66,7.66,0,0,0,5.13-1.59,5.52,5.52,0,0,0,1.86-4.44v-1.85l-3.49.13a14.08,14.08,0,0,0-6,1.15,3.37,3.37,0,0,0-1.84,3.16,3,3,0,0,0,1.15,2.56A5.17,5.17,0,0,0,817,262.12Z"/><path class="cls-2" d="M857.31,258.73a4.94,4.94,0,0,1-2.4,4.4,12.38,12.38,0,0,1-6.74,1.55,16.24,16.24,0,0,1-7.16-1.29v-2.87a18.73,18.73,0,0,0,3.57,1.18,16.69,16.69,0,0,0,3.67.43,9.23,9.23,0,0,0,4.21-.77,2.51,2.51,0,0,0,1.47-2.36,2.48,2.48,0,0,0-1.17-2,19.33,19.33,0,0,0-4.56-2,26.17,26.17,0,0,1-4.58-1.86,5.93,5.93,0,0,1-2-1.8,4.29,4.29,0,0,1-.66-2.41,4.46,4.46,0,0,1,2.29-3.95,11.73,11.73,0,0,1,6.29-1.45,20.46,20.46,0,0,1,7.28,1.35l-1.24,2.52a18.52,18.52,0,0,0-6.29-1.27,8,8,0,0,0-3.75.69,2.11,2.11,0,0,0-1.26,1.9,2.14,2.14,0,0,0,.47,1.4,4.62,4.62,0,0,0,1.53,1.1,36.71,36.71,0,0,0,4,1.51,15.73,15.73,0,0,1,5.55,2.67A4.42,4.42,0,0,1,857.31,258.73ZM845,272.3a20.22,20.22,0,0,0,1.13-2.93,19.68,19.68,0,0,0,.68-2.73h3.54V267a12,12,0,0,1-1.26,2.75,16.1,16.1,0,0,1-2.19,3H845Z"/><path class="cls-2" d="M861,238.3a1.92,1.92,0,0,1,.59-1.56,2.39,2.39,0,0,1,2.93,0,1.9,1.9,0,0,1,.61,1.55,1.92,1.92,0,0,1-.61,1.56,2.19,2.19,0,0,1-1.45.51,2.16,2.16,0,0,1-1.47-.51A2,2,0,0,1,861,238.3Zm3.79,26h-3.49V243.85h3.49Z"/><path class="cls-2" d="M893.64,239.46a10.7,10.7,0,0,0-8,3,11.21,11.21,0,0,0-2.94,8.2q0,5.36,2.83,8.28t8.07,2.92a30.84,30.84,0,0,0,7.35-1v2.78a25.27,25.27,0,0,1-7.89,1.06q-6.8,0-10.5-3.66t-3.69-10.4a14.87,14.87,0,0,1,1.78-7.39,12,12,0,0,1,5.14-4.89,17.15,17.15,0,0,1,7.91-1.72,21.16,21.16,0,0,1,8.46,1.57l-1.52,2.73A18,18,0,0,0,893.64,239.46Z"/><path class="cls-2" d="M919.6,264.31l-.69-2.91h-.17a9.53,9.53,0,0,1-3.44,2.6,11.69,11.69,0,0,1-4.28.68,8.35,8.35,0,0,1-5.38-1.57,5.4,5.4,0,0,1-1.95-4.46q0-6.2,11.18-6.5l3.92-.11v-1.27a4.8,4.8,0,0,0-1.17-3.56,5.18,5.18,0,0,0-3.74-1.15,16.78,16.78,0,0,0-6.53,1.57l-1.07-2.37A17.8,17.8,0,0,1,910,244a18.11,18.11,0,0,1,4.07-.47q4.13,0,6.12,1.62t2,5.21v14Zm-7.89-2.19a7.66,7.66,0,0,0,5.13-1.59,5.52,5.52,0,0,0,1.86-4.44v-1.85l-3.49.13a14.08,14.08,0,0,0-6,1.15,3.37,3.37,0,0,0-1.84,3.16,3,3,0,0,0,1.15,2.56A5.17,5.17,0,0,0,911.7,262.12Z"/><path class="cls-2" d="M931.16,264.31h-3.5v-29h3.5Z"/><path class="cls-2" d="M946.06,264.68q-5,0-7.76-2.73t-2.75-7.74q0-5.13,2.79-7.94t7.95-2.8a17.69,17.69,0,0,1,3.33.32,12,12,0,0,1,2.61.75l-1.07,2.63a18.24,18.24,0,0,0-2.53-.68,12.73,12.73,0,0,0-2.42-.27q-7,0-7,8A8.68,8.68,0,0,0,940.9,260a6.3,6.3,0,0,0,5.08,2,17.24,17.24,0,0,0,5.92-1.1v2.74A14,14,0,0,1,946.06,264.68Z"/><path class="cls-2" d="M958.93,243.85v13.27a5,5,0,0,0,1.28,3.73,5.64,5.64,0,0,0,4,1.23q3.62,0,5.3-1.76t1.67-5.73V243.85h3.5v20.46h-2.88l-.51-2.74h-.19a6.78,6.78,0,0,1-3,2.31,11.11,11.11,0,0,1-4.35.8q-4.21,0-6.31-1.77t-2.09-5.68V243.85Z"/><path class="cls-2" d="M983.88,264.31h-3.5v-29h3.5Z"/><path class="cls-2" d="M1003.75,264.31l-.69-2.91h-.17a9.53,9.53,0,0,1-3.44,2.6,11.69,11.69,0,0,1-4.28.68,8.35,8.35,0,0,1-5.38-1.57,5.4,5.4,0,0,1-1.95-4.46q0-6.2,11.18-6.5l3.92-.11v-1.27a4.8,4.8,0,0,0-1.17-3.56,5.18,5.18,0,0,0-3.74-1.15,16.78,16.78,0,0,0-6.53,1.57l-1.07-2.37a17.8,17.8,0,0,1,3.74-1.29,18.11,18.11,0,0,1,4.07-.47q4.13,0,6.12,1.62t2,5.21v14Zm-7.89-2.19a7.66,7.66,0,0,0,5.13-1.59,5.52,5.52,0,0,0,1.86-4.44v-1.85l-3.49.13a14.08,14.08,0,0,0-6,1.15,3.37,3.37,0,0,0-1.84,3.16,3,3,0,0,0,1.15,2.56A5.17,5.17,0,0,0,995.86,262.12Z"/><path class="cls-2" d="M1019.27,262.12a12.77,12.77,0,0,0,1.79-.12,13.13,13.13,0,0,0,1.37-.25v2.37a7,7,0,0,1-1.67.4,14,14,0,0,1-2,.16q-6.69,0-6.69-6.25V246.25h-3.31v-1.49l3.31-1.29,1.47-4.37h2v4.74h6.7v2.41h-6.7v12a3.84,3.84,0,0,0,1,2.84A3.66,3.66,0,0,0,1019.27,262.12Z"/><path class="cls-2" d="M1045.23,254.06q0,5-2.84,7.81a10.69,10.69,0,0,1-7.85,2.81,11.44,11.44,0,0,1-5.49-1.29,8.94,8.94,0,0,1-3.71-3.7,11.66,11.66,0,0,1-1.31-5.64q0-5,2.82-7.79t7.83-2.79a9.85,9.85,0,0,1,10.55,10.59Zm-17.58,0a8.91,8.91,0,0,0,1.77,6,7.64,7.64,0,0,0,10.41,0,8.87,8.87,0,0,0,1.78-6,8.73,8.73,0,0,0-1.78-5.93,6.62,6.62,0,0,0-5.25-2,6.51,6.51,0,0,0-5.18,2Q1027.65,250.1,1027.65,254.06Z"/><path class="cls-2" d="M1063.82,264.31l-.69-2.91H1063a9.53,9.53,0,0,1-3.44,2.6,11.69,11.69,0,0,1-4.28.68,8.35,8.35,0,0,1-5.38-1.57,5.4,5.4,0,0,1-1.95-4.46q0-6.2,11.18-6.5L1063,252v-1.27a4.8,4.8,0,0,0-1.17-3.56,5.18,5.18,0,0,0-3.74-1.15,16.78,16.78,0,0,0-6.53,1.57l-1.07-2.37a17.81,17.81,0,0,1,3.74-1.29,18.11,18.11,0,0,1,4.07-.47q4.13,0,6.12,1.62t2,5.21v14Zm-7.89-2.19a7.66,7.66,0,0,0,5.13-1.59,5.52,5.52,0,0,0,1.86-4.44v-1.85l-3.5.13a14.08,14.08,0,0,0-6,1.15,3.37,3.37,0,0,0-1.84,3.16,3,3,0,0,0,1.15,2.56A5.17,5.17,0,0,0,1055.93,262.12Z"/><path class="cls-2" d="M1082.42,243.47a15.39,15.39,0,0,1,2.76.23l-.48,2.87a13.4,13.4,0,0,0-2.53-.28,6.48,6.48,0,0,0-4.79,2,6.86,6.86,0,0,0-2,5v11h-3.49V243.85h2.88l.4,3.79h.17a9.46,9.46,0,0,1,3.09-3.08A7.61,7.61,0,0,1,1082.42,243.47Z"/><path class="cls-2" d="M1097.51,264.68a11.35,11.35,0,0,1-8.07-2.76,10,10,0,0,1-3-7.67,11,11,0,0,1,2.75-7.86,9.66,9.66,0,0,1,7.38-2.91,9.27,9.27,0,0,1,6.86,2.53,9,9,0,0,1,2.53,6.67v2h-15.9a6.8,6.8,0,0,0,7.54,7.34,20.62,20.62,0,0,0,7.37-1.38v2.76a20.2,20.2,0,0,1-3.51,1A22,22,0,0,1,1097.51,264.68Zm-.95-18.61a6.09,6.09,0,0,0-4.43,1.61,7,7,0,0,0-1.95,4.44h12.06a6.29,6.29,0,0,0-1.47-4.49A5.52,5.52,0,0,0,1096.57,246.07Z"/><rect class="cls-3" x="129.04" y="6.74" width="150.55" height="53.77"/><rect class="cls-4" x="64.52" y="82.01" width="215.07" height="53.77"/><rect class="cls-5" y="157.29" width="279.59" height="53.77"/><path class="cls-6" d="M129,60.51V6.74H279.59S176.83,23.86,129,60.51Z"/><path class="cls-7" d="M64.52,135.78V82H215.07S112.31,99.14,64.52,135.78Z"/><path class="cls-8" d="M0,211.05V157.29H150.55S47.79,174.41,0,211.05Z"/></g></g></svg>