<?xml version="1.0" encoding="utf-8"?>
<!-- Generator: Adobe Illustrator 22.0.1, SVG Export Plug-In . SVG Version: 6.00 Build 0)  -->
<svg version="1.1" id="Layer_1" xmlns="http://www.w3.org/2000/svg" xmlns:xlink="http://www.w3.org/1999/xlink" x="0px" y="0px"
	 viewBox="0 0 167.7 174" style="enable-background:new 0 0 167.7 174;" xml:space="preserve">
<style type="text/css">
	.st0{fill:#F05930;}
	.st1{fill:#00585E;}
	.st2{fill:#009494;}
</style>
<g>
	<g>
		<path class="st0" d="M125,62.8l-5.5-1.6c-0.2-0.1-0.4-0.3-0.4-0.5v-1.8c0.4-0.3,0.9-0.7,1.3-1c1.9-1.9,3-4.4,3-7.1v-2.5l0.5-1.1
			c0.6-1.2,0.9-2.5,0.9-3.8v-6.8c0-0.7-0.6-1.3-1.3-1.3h-12.8c-4.6,0-8.4,3.8-8.4,8.4v0.1c0,1.1,0.3,2.2,0.7,3.1l0.7,1.4v2.2
			c0,3.4,1.7,6.5,4.3,8.4l0,1.9c0,0.3,0,0.4-1.1,0.7l-2.7,0.8l-7.7-2.8c0-0.4-0.1-0.7-0.4-1l-2.5-2.6v-4.4c0.3-0.2,0.5-0.4,0.8-0.7
			c3.1-2.9,4.9-7,4.9-11.3v-3.5c0.9-2,1.4-4.2,1.4-6.4V15.3c0-0.7-0.6-1.3-1.3-1.3H79.6c-7,0-12.7,5.7-12.7,12.7v2.8
			c0,2.2,0.5,4.4,1.4,6.4v3c0,5,2.2,9.4,5.7,12.4v4.5l-2.5,2.6c-0.3,0.3-0.4,0.6-0.4,1l-8.2,3c-0.6,0.2-1.1,0.5-1.6,0.9l-1.3-0.6
			c3.8-1.7,5-4,5.1-4.1c0.2-0.4,0.2-0.8,0-1.2c-1-1.9-1.1-5.4-1.2-8.2c0-0.9-0.1-1.8-0.1-2.6c-0.5-6.4-5.3-11.1-11.2-11.1
			s-10.8,4.8-11.2,11.1c-0.1,0.8-0.1,1.7-0.1,2.6c-0.1,2.8-0.2,6.3-1.2,8.2c-0.2,0.4-0.2,0.8,0,1.2c0.1,0.1,1.3,2.4,5.1,4.1
			l-3.6,1.8c-1.9,1-3.1,2.9-3.1,5v9.8c0,0.7,0.6,1.3,1.3,1.3s1.3-0.6,1.3-1.3v-9.8c0-1.1,0.6-2.1,1.6-2.6l4.4-2.2l1.5,1.5
			c1.1,1,2.5,1.5,3.8,1.5c1.4,0,2.8-0.5,3.8-1.5l1.5-1.5l1.4,0.7c-0.7,1.1-1.1,2.4-1.1,3.7v10.2c0,0.7,0.6,1.3,1.3,1.3
			s1.3-0.6,1.3-1.3V68.9c0-1.8,1.1-3.5,2.9-4.1l8.6-3.1l3.6,5.4c0.5,0.7,1.2,1.1,2,1.2c0.1,0,0.2,0,0.3,0c0.7,0,1.4-0.3,1.9-0.8
			l2.2-2.2v13.8c0,0.7,0.6,1.3,1.3,1.3s1.3-0.6,1.3-1.3V65.3l2.2,2.2c0.5,0.5,1.2,0.8,1.9,0.8c0.1,0,0.2,0,0.3,0
			c0.8-0.1,1.6-0.5,2-1.2l3.6-5.4l8.6,3.1c1.7,0.6,2.9,2.3,2.9,4.1v10.2c0,0.7,0.6,1.3,1.3,1.3s1.3-0.6,1.3-1.3V68.9
			c0-1.8-0.7-3.6-2-4.8l0.3-0.1c0.3-0.1,0.8-0.2,1.2-0.4l3.4,3.4v12.2c0,0.7,0.6,1.3,1.3,1.3c0.7,0,1.3-0.6,1.3-1.3V66.9l3.4-3.4
			c0.2,0.1,0.4,0.2,0.6,0.2l5.5,1.6c1.2,0.4,2.1,1.5,2.1,2.8v11c0,0.7,0.6,1.3,1.3,1.3c0.7,0,1.3-0.6,1.3-1.3v-11
			C129.1,65.7,127.4,63.4,125,62.8z M58.3,60.4l0-1.6c1.5-1.1,2.8-2.6,3.5-4.3c0.2,1.1,0.4,2.2,0.8,3.2C62,58.3,60.8,59.5,58.3,60.4
			z M44.1,46.6c0.2-2.4,1.1-4.6,2.7-6.2c1.6-1.6,3.7-2.5,5.9-2.5c2.2,0,4.3,0.9,5.9,2.5c1.6,1.6,2.5,3.8,2.7,6.2
			c0.1,0.7,0.1,1.6,0.1,2.5c0,0.1,0,0.2,0,0.2c-1.4-2.2-3.7-3.9-6.5-4.8c-2.7-0.9-4.9-0.8-5-0.8c-0.3,0-0.7,0.2-0.9,0.4l-2.4,2.5
			c-0.5,0.5-0.5,1.4,0,1.9c0.5,0.5,1.4,0.5,1.9,0l2-2.1c1.7,0.1,7.2,0.7,9.4,5.4c-0.5,3.5-3.5,6.1-7.1,6.1c-4,0-7.2-3.2-7.2-7.2
			c0-0.7-0.6-1.3-1.3-1.3c-0.1,0-0.1,0-0.2,0c0-0.1,0-0.2,0-0.3C44,48.2,44.1,47.3,44.1,46.6z M42.9,57.7c0.4-0.9,0.6-2,0.8-3.2
			c0.7,1.8,2,3.2,3.5,4.3v1.6C44.6,59.5,43.4,58.3,42.9,57.7z M50.7,64l-1.2-1.2c0.2-0.4,0.3-0.8,0.3-1.3v-1.4
			c0.9,0.3,1.9,0.4,2.9,0.4c1,0,2-0.2,2.9-0.4l0,1.4c0,0.5,0.1,0.9,0.3,1.3L54.7,64C53.6,65.1,51.8,65.1,50.7,64z M71,38.9v-3.3
			c0-0.2,0-0.4-0.1-0.6c-0.9-1.8-1.3-3.6-1.3-5.6v-2.8c0-5.5,4.5-10,10-10h18.5v12.8c0,1.9-0.4,3.8-1.3,5.6
			c-0.1,0.2-0.1,0.4-0.1,0.6v3.8c0,3.6-1.4,6.9-4.1,9.4c-0.3,0.3-0.7,0.6-1,0.9c0,0,0,0,0,0c-2.5,1.9-5.5,2.8-8.6,2.6
			C76.3,51.8,71,46,71,38.9z M82.8,54.9c0.3,0,0.7,0,1,0c2.5,0,5-0.6,7.2-1.8v2.4l-7.2,4.9l-7.2-4.9v-2.5
			C78.6,54.1,80.6,54.7,82.8,54.9z M78.5,65.6C78.5,65.6,78.5,65.6,78.5,65.6c-0.1,0-0.1,0-0.1,0l-4.1-6.2l1.3-1.4l6.3,4.3
			L78.5,65.6z M89.4,65.6C89.4,65.6,89.4,65.6,89.4,65.6c-0.1,0-0.1,0-0.1,0l-3.3-3.3l6.3-4.3l1.3,1.4L89.4,65.6z M106.4,50.4v-2.5
			c0-0.2,0-0.4-0.1-0.6l-0.8-1.6c-0.3-0.6-0.5-1.3-0.5-1.9v-0.1c0-3.2,2.6-5.8,5.8-5.8h11.4v5.5c0,0.9-0.2,1.8-0.6,2.6l-0.7,1.3
			c-0.1,0.2-0.1,0.4-0.1,0.6v2.8c0,2-0.8,3.8-2.2,5.1c-1.4,1.4-3.3,2.1-5.2,2C109.5,57.8,106.4,54.4,106.4,50.4z M113.3,60.6
			c0.1,0,0.2,0,0.3,0c1,0,2-0.2,2.9-0.4v0.5c0,0.3,0,0.5,0.1,0.8l-3,3l-3-3c0.1-0.2,0.1-0.5,0.1-0.8l0-0.6
			C111.5,60.4,112.4,60.5,113.3,60.6z"/>
		<g>
			<g>
				<g>
					<g>
						<g>
							<path class="st1" d="M27.7,89.3c4.2-0.1,7.7,2.3,7.7,2.3s-3.3,2.7-7.5,2.8s-7.7-2.3-7.7-2.3S23.5,89.4,27.7,89.3z"/>
							<path class="st1" d="M34.2,82.5c2.2,3.6,1.9,7.8,1.9,7.8s-4-1.5-6.2-5.1S28,77.5,28,77.5S31.9,79,34.2,82.5z"/>
						</g>
					</g>
					<g>
						<g>
							<path class="st1" d="M18,80c4.1,0.9,6.8,4.2,6.8,4.2s-3.9,1.7-8,0.8S10,80.8,10,80.8S13.9,79.1,18,80z"/>
							<path class="st1" d="M26,75.2c1.2,4-0.2,8-0.2,8s-3.5-2.5-4.7-6.5c-1.2-4,0.2-8,0.2-8S24.8,71.2,26,75.2z"/>
						</g>
					</g>
					<g>
						<g>
							<path class="st1" d="M11.1,68.6c3.7,2,5.5,5.8,5.5,5.8s-4.2,0.7-7.9-1.3s-5.5-5.8-5.5-5.8S7.3,66.6,11.1,68.6z"/>
							<path class="st1" d="M20,66c0.1,4.2-2.3,7.7-2.3,7.7s-2.7-3.3-2.8-7.5s2.3-7.7,2.3-7.7S19.9,61.8,20,66z"/>
						</g>
					</g>
					<g>
						<g>
							<path class="st1" d="M7.3,55.7c3.1,2.9,3.8,7.1,3.8,7.1s-4.3-0.5-7.3-3.3S0,52.5,0,52.5S4.2,52.9,7.3,55.7z"/>
							<path class="st1" d="M16.6,55.6c-0.9,4.1-4.2,6.8-4.2,6.8s-1.7-3.9-0.8-8s4.2-6.8,4.2-6.8S17.6,51.5,16.6,55.6z"/>
						</g>
					</g>
					<g>
						<g>
							<path class="st1" d="M7,42.4c2.2,3.6,1.9,7.8,1.9,7.8s-4-1.5-6.2-5.1c-2.2-3.6-1.8-7.8-1.8-7.8S4.8,38.8,7,42.4z"/>
							<path class="st1" d="M16.1,44.6c-2,3.7-5.8,5.5-5.8,5.5s-0.7-4.2,1.3-7.9s5.8-5.5,5.8-5.5S18,40.9,16.1,44.6z"/>
						</g>
					</g>
					<g>
						<g>
							<path class="st1" d="M10.2,29.4c1.2,4-0.2,8-0.2,8s-3.5-2.5-4.7-6.5s0.2-8,0.2-8S8.9,25.4,10.2,29.4z"/>
							<path class="st1" d="M18.3,33.9c-2.9,3.1-7.1,3.8-7.1,3.8s0.5-4.3,3.3-7.3s7.1-3.8,7.1-3.8S21.2,30.8,18.3,33.9z"/>
						</g>
					</g>
					<g>
						<g>
							<path class="st1" d="M16.6,17.6c0.1,4.2-2.3,7.7-2.3,7.7s-2.7-3.3-2.8-7.5s2.3-7.7,2.3-7.7S16.5,13.4,16.6,17.6z"/>
							<path class="st1" d="M23.3,24.1c-3.6,2.2-7.8,1.9-7.8,1.9s1.5-4,5.1-6.2s7.8-1.8,7.8-1.8S26.9,21.9,23.3,24.1z"/>
						</g>
					</g>
					<g>
						<g>
							<path class="st1" d="M25.8,8c-0.9,4.1-4.2,6.8-4.2,6.8s-1.7-3.9-0.8-8C21.8,2.7,25,0,25,0S26.8,3.9,25.8,8z"/>
							<path class="st1" d="M30.7,16c-4,1.2-8-0.2-8-0.2s2.5-3.5,6.5-4.7s8,0.2,8,0.2S34.7,14.7,30.7,16z"/>
						</g>
					</g>
				</g>
				<g>
					<g>
						<g>
							<path class="st1" d="M140,89.3c-4.2-0.1-7.7,2.3-7.7,2.3s3.3,2.7,7.5,2.8c4.2,0.1,7.7-2.3,7.7-2.3S144.2,89.4,140,89.3z"/>
							<path class="st1" d="M133.5,82.5c-2.2,3.6-1.9,7.8-1.9,7.8s4-1.5,6.2-5.1s1.8-7.8,1.8-7.8S135.8,79,133.5,82.5z"/>
						</g>
					</g>
					<g>
						<g>
							<path class="st1" d="M149.7,80c-4.1,0.9-6.8,4.2-6.8,4.2s3.9,1.7,8,0.8s6.8-4.2,6.8-4.2S153.8,79.1,149.7,80z"/>
							<path class="st1" d="M141.7,75.2c-1.2,4,0.2,8,0.2,8s3.5-2.5,4.7-6.5c1.2-4-0.2-8-0.2-8S142.9,71.2,141.7,75.2z"/>
						</g>
					</g>
					<g>
						<g>
							<path class="st1" d="M156.7,68.6c-3.7,2-5.5,5.8-5.5,5.8s4.2,0.7,7.9-1.3s5.5-5.8,5.5-5.8S160.4,66.6,156.7,68.6z"/>
							<path class="st1" d="M147.7,66c-0.1,4.2,2.3,7.7,2.3,7.7s2.7-3.3,2.8-7.5s-2.3-7.7-2.3-7.7S147.8,61.8,147.7,66z"/>
						</g>
					</g>
					<g>
						<g>
							<path class="st1" d="M160.4,55.7c-3.1,2.9-3.8,7.1-3.8,7.1s4.3-0.5,7.3-3.3c3.1-2.9,3.8-7.1,3.8-7.1S163.5,52.9,160.4,55.7z"
								/>
							<path class="st1" d="M151.1,55.6c0.9,4.1,4.2,6.8,4.2,6.8s1.7-3.9,0.8-8c-0.9-4.1-4.2-6.8-4.2-6.8S150.1,51.5,151.1,55.6z"/>
						</g>
					</g>
					<g>
						<g>
							<path class="st1" d="M160.7,42.4c-2.2,3.6-1.9,7.8-1.9,7.8s4-1.5,6.2-5.1c2.2-3.6,1.8-7.8,1.8-7.8S162.9,38.8,160.7,42.4z"/>
							<path class="st1" d="M151.6,44.6c2,3.7,5.8,5.5,5.8,5.5s0.7-4.2-1.3-7.9s-5.8-5.5-5.8-5.5S149.7,40.9,151.6,44.6z"/>
						</g>
					</g>
					<g>
						<g>
							<path class="st1" d="M157.5,29.4c-1.2,4,0.2,8,0.2,8s3.5-2.5,4.7-6.5c1.2-4-0.2-8-0.2-8S158.8,25.4,157.5,29.4z"/>
							<path class="st1" d="M149.4,33.9c2.9,3.1,7.1,3.8,7.1,3.8s-0.5-4.3-3.3-7.3s-7.1-3.8-7.1-3.8S146.5,30.8,149.4,33.9z"/>
						</g>
					</g>
					<g>
						<g>
							<path class="st1" d="M151.1,17.6c-0.1,4.2,2.3,7.7,2.3,7.7s2.7-3.3,2.8-7.5s-2.3-7.7-2.3-7.7S151.3,13.4,151.1,17.6z"/>
							<path class="st1" d="M144.4,24.1c3.6,2.2,7.8,1.9,7.8,1.9s-1.5-4-5.1-6.2s-7.8-1.8-7.8-1.8S140.8,21.9,144.4,24.1z"/>
						</g>
					</g>
					<g>
						<g>
							<path class="st1" d="M141.9,8c0.9,4.1,4.2,6.8,4.2,6.8s1.7-3.9,0.8-8S142.7,0,142.7,0S140.9,3.9,141.9,8z"/>
							<path class="st1" d="M137,16c4,1.2,8-0.2,8-0.2s-2.5-3.5-6.5-4.7c-4-1.2-8,0.2-8,0.2S133,14.7,137,16z"/>
						</g>
					</g>
				</g>
			</g>
		</g>
	</g>
	<g>
		<g>
			<path class="st2" d="M53.2,132.8c0.5,0.1,1,0.3,1.4,0.5c0.4,0.3,0.8,0.6,1.1,1c0.3,0.4,0.5,0.8,0.7,1.3c0.2,0.5,0.3,1,0.3,1.6
				c0,0.8-0.1,1.5-0.4,2.1c-0.3,0.6-0.7,1.2-1.3,1.6c-0.5,0.4-1.2,0.8-2,1c-0.8,0.2-1.6,0.4-2.6,0.4c-1.3,0-2.4-0.2-3.3-0.7
				c-1-0.4-1.7-1.1-2.3-1.9l1.7-1.9c0.4,0.6,0.9,1.1,1.6,1.5c0.6,0.3,1.4,0.5,2.4,0.5c1.1,0,1.9-0.2,2.5-0.7
				c0.6-0.5,0.9-1.2,0.9-2.1c0-1-0.3-1.7-1-2.3c-0.7-0.5-1.6-0.8-2.9-0.8h-0.7v-2.2h0.8c1.1,0,2-0.3,2.6-0.8c0.6-0.5,0.9-1.2,0.9-2
				c0-0.8-0.3-1.4-0.8-1.8c-0.5-0.4-1.2-0.6-2.1-0.6c-0.9,0-1.6,0.2-2.3,0.5c-0.7,0.4-1.2,0.9-1.5,1.6L45,127c0.2-0.4,0.5-0.8,1-1.1
				s0.9-0.6,1.4-0.8c0.5-0.2,1.1-0.4,1.7-0.6c0.6-0.1,1.2-0.2,1.8-0.2c0.8,0,1.6,0.1,2.2,0.3c0.7,0.2,1.3,0.5,1.8,0.9
				c0.5,0.4,0.9,0.8,1.1,1.4c0.3,0.6,0.4,1.2,0.4,1.8c0,0.5-0.1,1-0.2,1.4c-0.2,0.5-0.4,0.9-0.6,1.2c-0.3,0.4-0.6,0.7-1,0.9
				C54.1,132.6,53.7,132.7,53.2,132.8z"/>
			<path class="st2" d="M58.7,138.7c0-0.7,0.1-1.3,0.2-2c0.1-0.6,0.3-1.2,0.6-1.7c0.3-0.5,0.7-1,1.2-1.5c0.5-0.5,1.2-0.9,2-1.4
				c0.6-0.3,1.1-0.6,1.7-0.9c0.5-0.3,1-0.5,1.4-0.8c0.4-0.3,0.7-0.5,0.9-0.8c0.2-0.3,0.4-0.6,0.4-1c0-0.5-0.2-1-0.7-1.4
				c-0.5-0.4-1.1-0.6-2-0.6c-0.4,0-0.9,0.1-1.2,0.2s-0.7,0.3-1,0.5c-0.3,0.2-0.6,0.4-0.8,0.6c-0.2,0.2-0.4,0.5-0.6,0.7l-1.8-2
				c0.2-0.2,0.4-0.4,0.8-0.7c0.4-0.3,0.8-0.5,1.3-0.8s1.1-0.5,1.7-0.6s1.4-0.3,2.1-0.3c0.8,0,1.5,0.1,2.2,0.3
				c0.6,0.2,1.2,0.5,1.6,0.9c0.4,0.4,0.8,0.8,1,1.3c0.2,0.5,0.3,1.1,0.3,1.6c0,0.6-0.1,1.2-0.4,1.7s-0.6,0.9-0.9,1.3
				c-0.4,0.4-0.8,0.7-1.2,0.9c-0.4,0.3-0.8,0.5-1.2,0.7c-0.4,0.2-0.7,0.4-1.2,0.6c-0.4,0.2-0.9,0.5-1.3,0.8
				c-0.4,0.3-0.8,0.6-1.1,0.9c-0.3,0.3-0.6,0.7-0.7,1.1h8.3v2.5H58.7z"/>
			<path class="st2" d="M85.5,131.4c0,1.1-0.2,2.1-0.5,3c-0.3,0.9-0.8,1.7-1.3,2.4c-0.6,0.7-1.3,1.2-2,1.6c-0.8,0.4-1.6,0.6-2.5,0.6
				s-1.8-0.2-2.5-0.6c-0.8-0.4-1.5-0.9-2-1.6c-0.6-0.7-1-1.5-1.3-2.4c-0.3-0.9-0.5-1.9-0.5-3c0-1.1,0.2-2.1,0.5-3
				c0.3-0.9,0.8-1.7,1.3-2.4c0.6-0.7,1.2-1.2,2-1.6c0.8-0.4,1.6-0.6,2.5-0.6s1.8,0.2,2.5,0.6c0.8,0.4,1.5,0.9,2,1.6
				c0.6,0.7,1,1.5,1.3,2.4C85.3,129.3,85.5,130.3,85.5,131.4z M82.7,131.4c0-0.8-0.1-1.4-0.3-2c-0.2-0.6-0.4-1.2-0.8-1.6
				c-0.3-0.5-0.7-0.8-1.2-1c-0.4-0.2-0.9-0.4-1.4-0.4c-0.5,0-1,0.1-1.5,0.4c-0.4,0.2-0.8,0.6-1.1,1c-0.3,0.4-0.6,1-0.8,1.6
				c-0.2,0.6-0.3,1.3-0.3,2s0.1,1.4,0.3,2c0.2,0.6,0.4,1.1,0.8,1.6c0.3,0.4,0.7,0.8,1.1,1c0.4,0.2,0.9,0.4,1.5,0.4
				c0.5,0,1-0.1,1.4-0.4c0.4-0.2,0.8-0.6,1.2-1c0.3-0.4,0.6-1,0.8-1.6C82.6,132.8,82.7,132.1,82.7,131.4z"/>
			<path class="st2" d="M99.9,139c-0.9,0-1.7-0.2-2.5-0.5c-0.8-0.4-1.4-0.8-1.9-1.5c-0.6-0.6-1-1.3-1.3-2.2
				c-0.3-0.8-0.5-1.7-0.5-2.7c0-0.9,0.1-1.8,0.4-2.6c0.3-0.8,0.7-1.5,1.2-2.1c0.5-0.6,1.1-1.1,1.8-1.5s1.5-0.5,2.3-0.5
				c1,0,2,0.3,2.8,0.8c0.8,0.5,1.4,1.2,1.9,1.9v-7.7h2.8v15c0,0.3,0.1,0.5,0.2,0.7c0.1,0.1,0.3,0.2,0.6,0.2v2.3
				c-0.3,0-0.5,0.1-0.7,0.1c-0.2,0-0.3,0-0.4,0c-0.6,0-1-0.1-1.4-0.4s-0.5-0.7-0.6-1.1l0-1c-0.5,0.8-1.1,1.5-2,1.9
				C101.9,138.7,100.9,139,99.9,139z M100.6,136.6c0.4,0,0.8-0.1,1.2-0.2s0.8-0.3,1.1-0.5c0.3-0.2,0.6-0.5,0.9-0.8
				c0.2-0.3,0.4-0.7,0.5-1v-3.4c-0.2-0.4-0.4-0.8-0.6-1.2c-0.3-0.3-0.6-0.6-0.9-0.9c-0.3-0.3-0.7-0.4-1.1-0.6
				c-0.4-0.1-0.8-0.2-1.2-0.2c-0.6,0-1.1,0.1-1.5,0.4c-0.5,0.3-0.9,0.6-1.2,1c-0.3,0.4-0.6,0.9-0.8,1.4c-0.2,0.5-0.3,1.1-0.3,1.7
				c0,0.6,0.1,1.2,0.3,1.7c0.2,0.5,0.5,1,0.9,1.4c0.4,0.4,0.8,0.7,1.3,1S100,136.6,100.6,136.6z"/>
			<path class="st2" d="M116.4,139c-1,0-1.9-0.2-2.8-0.5c-0.8-0.4-1.5-0.8-2.1-1.5c-0.6-0.6-1.1-1.3-1.4-2.2
				c-0.3-0.8-0.5-1.7-0.5-2.6c0-0.9,0.2-1.8,0.5-2.6c0.3-0.8,0.8-1.5,1.4-2.2c0.6-0.6,1.3-1.1,2.1-1.5c0.8-0.4,1.8-0.5,2.8-0.5
				c1,0,1.9,0.2,2.8,0.5c0.8,0.4,1.5,0.9,2.1,1.5c0.6,0.6,1,1.3,1.3,2.1c0.3,0.8,0.5,1.7,0.5,2.5c0,0.2,0,0.4,0,0.6
				c0,0.2,0,0.3-0.1,0.4h-10.5c0,0.6,0.2,1.1,0.4,1.6s0.5,0.9,0.9,1.2c0.4,0.3,0.8,0.6,1.2,0.8c0.5,0.2,0.9,0.3,1.4,0.3
				c0.4,0,0.7,0,1.1-0.1s0.7-0.2,1-0.4c0.3-0.2,0.6-0.4,0.8-0.6c0.2-0.3,0.4-0.5,0.6-0.8l2.3,0.7c-0.4,1-1.2,1.8-2.2,2.4
				S117.8,139,116.4,139z M120.4,131.2c0-0.5-0.2-1.1-0.4-1.5s-0.5-0.9-0.9-1.2s-0.8-0.6-1.2-0.8s-1-0.3-1.5-0.3s-1,0.1-1.5,0.3
				c-0.5,0.2-0.9,0.4-1.2,0.8s-0.6,0.7-0.9,1.2s-0.3,1-0.4,1.5H120.4z"/>
			<path class="st2" d="M25.8,169c-1.1,0-2-0.3-2.8-0.8c-0.8-0.5-1.4-1.2-1.9-2v7.8h-2.8v-18.4h2.4v2.4c0.5-0.8,1.1-1.4,1.9-1.9
				c0.8-0.5,1.7-0.7,2.7-0.7c0.9,0,1.7,0.2,2.5,0.5c0.8,0.4,1.4,0.9,1.9,1.5c0.6,0.6,1,1.3,1.3,2.2c0.3,0.8,0.5,1.7,0.5,2.6
				c0,1-0.1,1.8-0.4,2.7c-0.3,0.8-0.7,1.5-1.2,2.2c-0.5,0.6-1.1,1.1-1.8,1.5C27.4,168.8,26.7,169,25.8,169z M24.9,166.6
				c0.6,0,1.1-0.1,1.6-0.4c0.5-0.3,0.9-0.6,1.2-1c0.3-0.4,0.6-0.9,0.8-1.4c0.2-0.5,0.3-1.1,0.3-1.6c0-0.6-0.1-1.2-0.3-1.7
				c-0.2-0.5-0.5-1-0.8-1.4c-0.4-0.4-0.8-0.7-1.3-0.9s-1-0.4-1.6-0.4c-0.4,0-0.7,0.1-1.1,0.2c-0.4,0.1-0.7,0.3-1.1,0.5
				c-0.3,0.2-0.6,0.5-0.9,0.8c-0.3,0.3-0.4,0.6-0.5,1v3.4c0.2,0.4,0.4,0.8,0.7,1.1c0.3,0.4,0.6,0.7,0.9,0.9c0.3,0.3,0.7,0.5,1.1,0.6
				C24.1,166.5,24.5,166.6,24.9,166.6z"/>
			<path class="st2" d="M37.6,169c-0.6,0-1.2-0.1-1.8-0.3s-1-0.5-1.4-0.9c-0.4-0.4-0.7-0.8-0.9-1.3c-0.2-0.5-0.3-1-0.3-1.6
				c0-0.6,0.1-1.2,0.4-1.7c0.3-0.5,0.6-0.9,1.1-1.3c0.5-0.4,1.1-0.6,1.8-0.8c0.7-0.2,1.4-0.3,2.2-0.3c0.6,0,1.2,0.1,1.8,0.2
				s1.1,0.3,1.6,0.4v-0.9c0-1-0.3-1.7-0.8-2.3c-0.6-0.5-1.3-0.8-2.4-0.8c-0.7,0-1.4,0.1-2.1,0.4c-0.7,0.3-1.4,0.6-2.1,1.1l-0.8-1.8
				c1.7-1.1,3.4-1.7,5.3-1.7c1.8,0,3.2,0.5,4.2,1.4s1.5,2.2,1.5,4v4.7c0,0.6,0.2,0.9,0.7,0.9v2.3c-0.3,0-0.5,0.1-0.7,0.1
				s-0.4,0-0.6,0c-0.5,0-0.9-0.1-1.2-0.4c-0.3-0.3-0.5-0.6-0.5-1l-0.1-0.8c-0.6,0.8-1.3,1.4-2.2,1.8C39.5,168.8,38.5,169,37.6,169z
				 M38.3,166.9c0.7,0,1.3-0.1,1.9-0.4c0.6-0.2,1.1-0.6,1.4-1c0.4-0.3,0.5-0.6,0.5-0.9v-1.7c-0.5-0.2-1-0.3-1.5-0.4s-1-0.2-1.5-0.2
				c-1,0-1.8,0.2-2.4,0.6s-0.9,1-0.9,1.7c0,0.7,0.2,1.2,0.7,1.6C36.9,166.7,37.6,166.9,38.3,166.9z"/>
			<path class="st2" d="M55.5,158c-1.1,0-2,0.3-2.8,0.7c-0.8,0.5-1.4,1.1-1.8,2v8h-2.8v-13.1h2.5v2.9c0.5-0.9,1-1.6,1.8-2.2
				c0.7-0.5,1.5-0.8,2.3-0.9c0.2,0,0.3,0,0.4,0s0.2,0,0.3,0V158z"/>
			<path class="st2" d="M64.8,168c-0.3,0.2-0.8,0.4-1.4,0.6c-0.6,0.2-1.3,0.3-2,0.3c-0.4,0-0.8-0.1-1.2-0.2c-0.4-0.1-0.7-0.3-1-0.5
				s-0.5-0.5-0.7-0.9s-0.3-0.8-0.3-1.4v-8.2h-1.7v-2.1h1.7v-4.3H61v4.3h2.8v2.1H61v7.3c0,0.5,0.2,0.8,0.4,1c0.3,0.2,0.6,0.3,1,0.3
				c0.4,0,0.8-0.1,1.1-0.2c0.3-0.1,0.6-0.2,0.8-0.3L64.8,168z"/>
			<path class="st2" d="M66.7,153.5v-3h2.8v3H66.7z M66.7,168.7v-13.1h2.8v13.1H66.7z"/>
			<path class="st2" d="M71.9,162.2c0-0.9,0.2-1.8,0.5-2.6c0.3-0.8,0.8-1.5,1.4-2.1s1.3-1.1,2.1-1.5s1.8-0.5,2.8-0.5
				c1.3,0,2.5,0.3,3.5,0.9c1,0.6,1.7,1.4,2.2,2.4l-2.7,0.8c-0.3-0.5-0.7-1-1.3-1.3s-1.1-0.5-1.8-0.5c-0.5,0-1.1,0.1-1.5,0.3
				c-0.5,0.2-0.9,0.5-1.2,0.9c-0.4,0.4-0.6,0.9-0.8,1.4c-0.2,0.5-0.3,1.1-0.3,1.8c0,0.6,0.1,1.2,0.3,1.8c0.2,0.5,0.5,1,0.8,1.4
				c0.4,0.4,0.8,0.7,1.3,0.9s1,0.3,1.5,0.3c0.3,0,0.7,0,1-0.1c0.3-0.1,0.6-0.2,0.9-0.4c0.3-0.2,0.5-0.4,0.7-0.6
				c0.2-0.2,0.4-0.5,0.5-0.7l2.7,0.8c-0.4,1-1.2,1.8-2.2,2.4c-1,0.6-2.2,0.9-3.6,0.9c-1,0-1.9-0.2-2.8-0.5c-0.8-0.4-1.5-0.9-2.1-1.5
				s-1.1-1.3-1.4-2.2C72.1,163.9,71.9,163.1,71.9,162.2z"/>
			<path class="st2" d="M86.7,153.5v-3h2.8v3H86.7z M86.7,168.7v-13.1h2.8v13.1H86.7z"/>
			<path class="st2" d="M100.2,169c-1.1,0-2-0.3-2.8-0.8c-0.8-0.5-1.4-1.2-1.9-2v7.8h-2.8v-18.4h2.4v2.4c0.5-0.8,1.1-1.4,1.9-1.9
				c0.8-0.5,1.7-0.7,2.7-0.7c0.9,0,1.7,0.2,2.5,0.5c0.8,0.4,1.4,0.9,1.9,1.5c0.6,0.6,1,1.3,1.3,2.2c0.3,0.8,0.5,1.7,0.5,2.6
				c0,1-0.1,1.8-0.4,2.7c-0.3,0.8-0.7,1.5-1.2,2.2c-0.5,0.6-1.1,1.1-1.8,1.5C101.8,168.8,101.1,169,100.2,169z M99.3,166.6
				c0.6,0,1.1-0.1,1.6-0.4c0.5-0.3,0.9-0.6,1.2-1c0.3-0.4,0.6-0.9,0.8-1.4c0.2-0.5,0.3-1.1,0.3-1.6c0-0.6-0.1-1.2-0.3-1.7
				c-0.2-0.5-0.5-1-0.8-1.4c-0.4-0.4-0.8-0.7-1.3-0.9s-1-0.4-1.6-0.4c-0.4,0-0.7,0.1-1.1,0.2c-0.4,0.1-0.7,0.3-1.1,0.5
				c-0.3,0.2-0.6,0.5-0.9,0.8c-0.3,0.3-0.4,0.6-0.5,1v3.4c0.2,0.4,0.4,0.8,0.7,1.1c0.3,0.4,0.6,0.7,0.9,0.9c0.3,0.3,0.7,0.5,1.1,0.6
				C98.5,166.5,98.9,166.6,99.3,166.6z"/>
			<path class="st2" d="M112,169c-0.6,0-1.2-0.1-1.8-0.3s-1-0.5-1.4-0.9c-0.4-0.4-0.7-0.8-0.9-1.3c-0.2-0.5-0.3-1-0.3-1.6
				c0-0.6,0.1-1.2,0.4-1.7c0.3-0.5,0.6-0.9,1.1-1.3c0.5-0.4,1.1-0.6,1.8-0.8c0.7-0.2,1.4-0.3,2.2-0.3c0.6,0,1.2,0.1,1.8,0.2
				s1.1,0.3,1.6,0.4v-0.9c0-1-0.3-1.7-0.8-2.3c-0.6-0.5-1.3-0.8-2.4-0.8c-0.7,0-1.4,0.1-2.1,0.4c-0.7,0.3-1.4,0.6-2.1,1.1l-0.8-1.8
				c1.7-1.1,3.4-1.7,5.3-1.7c1.8,0,3.2,0.5,4.2,1.4s1.5,2.2,1.5,4v4.7c0,0.6,0.2,0.9,0.7,0.9v2.3c-0.3,0-0.5,0.1-0.7,0.1
				s-0.4,0-0.6,0c-0.5,0-0.9-0.1-1.2-0.4c-0.3-0.3-0.5-0.6-0.5-1l-0.1-0.8c-0.6,0.8-1.3,1.4-2.2,1.8C113.9,168.8,112.9,169,112,169z
				 M112.7,166.9c0.7,0,1.3-0.1,1.9-0.4c0.6-0.2,1.1-0.6,1.4-1c0.4-0.3,0.5-0.6,0.5-0.9v-1.7c-0.5-0.2-1-0.3-1.5-0.4s-1-0.2-1.5-0.2
				c-1,0-1.8,0.2-2.4,0.6s-0.9,1-0.9,1.7c0,0.7,0.2,1.2,0.7,1.6C111.3,166.7,112,166.9,112.7,166.9z"/>
			<path class="st2" d="M134.3,168.7h-2.8v-7.3c0-1.2-0.2-2.1-0.6-2.7c-0.4-0.6-1-0.8-1.7-0.8c-0.4,0-0.8,0.1-1.2,0.2
				c-0.4,0.2-0.8,0.4-1.1,0.6c-0.3,0.3-0.7,0.6-0.9,1s-0.5,0.8-0.6,1.2v7.8h-2.8v-13.1h2.5v2.6c0.5-0.9,1.2-1.6,2.2-2.1
				c1-0.5,2-0.8,3.2-0.8c0.8,0,1.4,0.1,1.9,0.4s0.9,0.7,1.2,1.2c0.3,0.5,0.5,1.1,0.6,1.7s0.2,1.3,0.2,2V168.7z"/>
			<path class="st2" d="M144.7,168c-0.3,0.2-0.8,0.4-1.4,0.6c-0.6,0.2-1.3,0.3-2,0.3c-0.4,0-0.8-0.1-1.2-0.2c-0.4-0.1-0.7-0.3-1-0.5
				c-0.3-0.2-0.5-0.5-0.7-0.9c-0.2-0.4-0.3-0.8-0.3-1.4v-8.2h-1.7v-2.1h1.7v-4.3h2.8v4.3h2.8v2.1h-2.8v7.3c0,0.5,0.2,0.8,0.4,1
				c0.3,0.2,0.6,0.3,1,0.3c0.4,0,0.8-0.1,1.1-0.2c0.3-0.1,0.6-0.2,0.8-0.3L144.7,168z M140.2,174l0.6-1.9h-0.8v-2.2h2.4v2.2
				l-0.9,1.9H140.2z"/>
			<path class="st2" d="M146.6,153.5v-3h2.8v3H146.6z M146.6,168.7v-13.1h2.8v13.1H146.6z"/>
		</g>
	</g>
</g>
</svg>
