<svg xmlns="http://www.w3.org/2000/svg" viewBox="0 0 149.13 74.2"><defs><style>.cls-1,.cls-2{fill:#fff;}.cls-2{font-size:25px;font-family:Raleway-Light, Raleway;}.cls-3{letter-spacing:-0.01em;}.cls-4{letter-spacing:-0.02em;}.cls-5{letter-spacing:-0.03em;}.cls-6{letter-spacing:-0.02em;}.cls-7{letter-spacing:-0.03em;}</style></defs><title>pwdby</title><g id="Layer_2" data-name="Layer 2"><g id="Layer_1-2" data-name="Layer 1"><path class="cls-1" d="M50.41,73.61V47.89h3.76V69.82H68.45v3.79Z"/><path class="cls-1" d="M92.94,65.79a7,7,0,0,1-.88,3.5,8.05,8.05,0,0,1-2.41,2.66A11.66,11.66,0,0,1,86,73.61a16.92,16.92,0,0,1-4.55.59,12.14,12.14,0,0,1-2.95-.37,14.18,14.18,0,0,1-2.85-1,13.83,13.83,0,0,1-2.6-1.67,13.6,13.6,0,0,1-2.19-2.23l2.69-2.52A17.76,17.76,0,0,0,74.8,67.7,9.65,9.65,0,0,0,76.5,69a10.19,10.19,0,0,0,2.21,1,8.86,8.86,0,0,0,2.74.4,14.28,14.28,0,0,0,2.79-.27,8.94,8.94,0,0,0,2.45-.84,5.09,5.09,0,0,0,1.72-1.44,3.88,3.88,0,0,0,0-4.35,3.85,3.85,0,0,0-1.74-1.15,9.07,9.07,0,0,0-2.45-.43q-1.38-.07-2.76-.07-4.66,0-7.07-1.66a5.65,5.65,0,0,1-2.41-5,6.87,6.87,0,0,1,.71-3,8.21,8.21,0,0,1,2-2.59,9.73,9.73,0,0,1,3-1.79,10.5,10.5,0,0,1,3.81-.67,16.44,16.44,0,0,1,5.48.9A13.24,13.24,0,0,1,91.8,51.2L89.45,54a23.38,23.38,0,0,0-1.95-1.41,10.44,10.44,0,0,0-1.85-.95,9.2,9.2,0,0,0-1.95-.52,15.07,15.07,0,0,0-2.26-.16,6.11,6.11,0,0,0-2.07.35,5.72,5.72,0,0,0-1.69.93,4.43,4.43,0,0,0-1.14,1.36,3.37,3.37,0,0,0-.41,1.6,2.69,2.69,0,0,0,.24,1.12,2.3,2.3,0,0,0,.86.95,5.06,5.06,0,0,0,1.67.66,12.44,12.44,0,0,0,2.71.24,24.86,24.86,0,0,1,5.57.52,9.06,9.06,0,0,1,3.47,1.5,5.16,5.16,0,0,1,1.78,2.41A9.75,9.75,0,0,1,92.94,65.79Z"/><path class="cls-1" d="M105.77,47.44h4.14l12.38,26.18h-4.21l-1.69-3.76h-7.83a18,18,0,0,0-3.12.24,12.3,12.3,0,0,0-2.33.62,6.47,6.47,0,0,0-1.55.83,2.67,2.67,0,0,0-.79.86l-.66,1.21H96l11.14-23Zm8.93,18.62L109.08,55.2l-5.69,12.31a6.05,6.05,0,0,1,2.28-1,16.94,16.94,0,0,1,4.28-.43Z"/><path class="cls-1" d="M145.39,54A10.68,10.68,0,0,0,142,51.75a10.39,10.39,0,0,0-4.14-.83,11,11,0,0,0-4,.72,9.49,9.49,0,0,0-3.22,2,9.61,9.61,0,0,0-2.14,3.13,10,10,0,0,0-.78,4,9,9,0,0,0,.83,3.84,9.4,9.4,0,0,0,2.24,3,10.64,10.64,0,0,0,3.24,2,10.41,10.41,0,0,0,3.86.72,10,10,0,0,0,4.62-1.08,10.6,10.6,0,0,0,3.55-2.92l2.31,3.14A14.24,14.24,0,0,1,143.72,73a14.4,14.4,0,0,1-11.29.17,13.52,13.52,0,0,1-7.31-7.33A13.83,13.83,0,0,1,124,60.37a12.41,12.41,0,0,1,1.12-5.26,13.23,13.23,0,0,1,3-4.21,14.32,14.32,0,0,1,9.71-3.78,13.73,13.73,0,0,1,5.47,1.09,14,14,0,0,1,4.43,3Z"/><rect class="cls-1" x="29.08" y="47.97" width="18.89" height="6.75"/><rect class="cls-1" x="20.98" y="57.42" width="26.99" height="6.75"/><rect class="cls-1" x="12.88" y="66.87" width="35.09" height="6.75"/><path class="cls-1" d="M29.08,54.72V48H48S35.08,50.12,29.08,54.72Z"/><path class="cls-1" d="M21,64.17V57.42H39.87S27,59.57,21,64.17Z"/><path class="cls-1" d="M12.88,73.61V66.87H31.78S18.88,69,12.88,73.61Z"/><text class="cls-2" transform="translate(13.2 21.37)"><tspan class="cls-3">P</tspan><tspan class="cls-4" x="15.3" y="0">ow</tspan><tspan x="49.3" y="0">e</tspan><tspan class="cls-5" x="63.88" y="0">r</tspan><tspan x="71.75" y="0">ed </tspan><tspan class="cls-6" x="108.12" y="0">b</tspan><tspan class="cls-7" x="122.97" y="0">y</tspan></text></g></g></svg>