<?xml version="1.0" encoding="utf-8"?>
<!-- Generator: Adobe Illustrator 22.0.1, SVG Export Plug-In . SVG Version: 6.00 Build 0)  -->
<svg version="1.1" id="Layer_1" xmlns="http://www.w3.org/2000/svg" xmlns:xlink="http://www.w3.org/1999/xlink" x="0px" y="0px"
	 viewBox="0 0 211.7 211.9" style="enable-background:new 0 0 211.7 211.9;" xml:space="preserve">
<style type="text/css">
	.st0{fill:#454445;}
	.st1{fill:#00585E;}
	.st2{fill:#009493;}
	.st3{fill:none;stroke:#454445;stroke-width:7;stroke-linecap:round;stroke-linejoin:round;stroke-miterlimit:10;}
	.st4{fill:#FF5729;}
</style>
<g>
	<g>
		<g>
			<path class="st0" d="M2.2,101.6c0,0-0.1,0-0.1,0c-1.2-0.1-2.1-1.1-2-2.3C1.4,76.6,9.9,55.4,24.5,38c0.8-0.9,2.1-1,3-0.3
				c0.9,0.8,1,2.1,0.3,3c-14,16.7-22.1,37-23.5,58.8C4.3,100.7,3.3,101.6,2.2,101.6z"/>
			<path class="st1" d="M29.7,178.7c-0.6,0-1.2-0.2-1.6-0.7c-13.3-14.3-22.3-31.9-26.2-50.9c-0.2-1.2,0.5-2.3,1.7-2.6
				c1.2-0.2,2.3,0.5,2.6,1.7c3.7,18.2,12.4,35.1,25.1,48.8c0.8,0.9,0.8,2.2-0.1,3.1C30.7,178.5,30.2,178.7,29.7,178.7z"/>
			<path class="st2" d="M105.8,211.9c-6.6,0-13.2-0.6-19.7-1.8c-1.2-0.2-1.9-1.4-1.7-2.5c0.2-1.2,1.4-1.9,2.5-1.7
				c6.2,1.2,12.5,1.8,18.9,1.8c29.1,0,56.9-12.5,76.1-34.3c0.8-0.9,2.2-1,3.1-0.2c0.9,0.8,1,2.2,0.2,3.1
				C165,198.9,136.1,211.9,105.8,211.9z"/>
			<path class="st0" d="M209,118.7c-0.1,0-0.1,0-0.2,0c-1.2-0.1-2.1-1.2-1.9-2.4c0.3-3.4,0.5-6.9,0.5-10.4c0-18.6-5-36.7-14.6-52.5
				c-0.6-1-0.3-2.4,0.7-3c1-0.6,2.4-0.3,3,0.7c10,16.5,15.2,35.4,15.2,54.8c0,3.6-0.2,7.3-0.5,10.8C211,117.9,210.1,118.7,209,118.7
				z"/>
			<path class="st2" d="M156.5,17.6c-0.4,0-0.7-0.1-1.1-0.3c-15.1-8.5-32.3-13-49.7-13c-3.4,0-6.8,0.2-10.1,0.5
				c-1.2,0.1-2.2-0.8-2.4-1.9c-0.1-1.2,0.8-2.2,1.9-2.4c3.5-0.3,7-0.5,10.5-0.5c18.2,0,36.1,4.7,51.8,13.5c1,0.6,1.4,1.9,0.8,2.9
				C158,17.2,157.3,17.6,156.5,17.6z"/>
			<path class="st2" d="M20.3,70.3c-0.3,0-0.6-0.1-0.9-0.2c-1.1-0.5-1.6-1.8-1.1-2.9c15.3-34.6,49.6-56.9,87.4-56.9
				c5.4,0,10.9,0.5,16.2,1.4c1.2,0.2,2,1.3,1.8,2.5c-0.2,1.2-1.3,2-2.5,1.8c-5.1-0.9-10.3-1.3-15.5-1.3C69.7,14.7,36.9,36,22.3,69
				C21.9,69.9,21.1,70.3,20.3,70.3z"/>
			<path class="st0" d="M78.3,197.4c-0.2,0-0.4,0-0.6-0.1C42.2,186.5,16,155.7,11,118.9c-0.2-1.2,0.7-2.3,1.9-2.4
				c1.2-0.2,2.3,0.7,2.4,1.9c4.7,35.1,29.7,64.5,63.6,74.9c1.1,0.4,1.8,1.6,1.4,2.7C80.1,196.8,79.3,197.4,78.3,197.4z"/>
			<path class="st1" d="M129.5,198.5c-1,0-1.8-0.6-2.1-1.6c-0.3-1.2,0.4-2.3,1.5-2.6c36.1-9.5,63.2-40.7,67.5-77.8
				c0.1-1.2,1.2-2,2.4-1.9c1.2,0.1,2,1.2,1.9,2.4c-2.2,19.3-10.1,37.2-22.9,51.9c-12.7,14.5-29.2,24.8-47.7,29.6
				C129.9,198.5,129.7,198.5,129.5,198.5z"/>
			<path class="st1" d="M196.8,87c-1,0-1.9-0.7-2.1-1.7C188.1,56.9,168,33.1,141,21.8c-1.1-0.5-1.6-1.7-1.2-2.8
				c0.5-1.1,1.7-1.6,2.8-1.2C171,29.7,192,54.5,198.9,84.4c0.3,1.2-0.5,2.3-1.6,2.6C197.1,87,196.9,87,196.8,87z"/>
			<path class="st1" d="M21.9,101.6c-0.1,0-0.1,0-0.2,0c-1.2-0.1-2.1-1.1-2-2.3c2-25.8,15.4-49.2,36.7-64c1-0.7,2.3-0.4,3,0.5
				c0.7,1,0.4,2.3-0.5,3C38.7,52.9,26,75,24.1,99.6C24,100.7,23.1,101.6,21.9,101.6z"/>
			<path class="st2" d="M105.8,192.2c-39.5,0-73.9-26.7-83.6-65c-0.3-1.2,0.4-2.3,1.6-2.6c1.2-0.3,2.3,0.4,2.6,1.6
				c9.2,36.3,41.9,61.7,79.4,61.7c13.4,0,26.7-3.3,38.4-9.6c1.1-0.6,2.4-0.2,2.9,0.9c0.6,1.1,0.2,2.4-0.9,2.9
				C133.8,188.7,119.9,192.2,105.8,192.2z"/>
			<path class="st0" d="M165.3,167.4c-0.6,0-1.1-0.2-1.5-0.6c-0.8-0.8-0.8-2.2,0-3.1c15.4-15.5,23.9-36,23.9-57.8
				c0-1.2,1-2.2,2.2-2.2s2.2,1,2.2,2.2c0,23-8.9,44.6-25.1,60.8C166.4,167.2,165.9,167.4,165.3,167.4z"/>
			<path class="st2" d="M189,96.4c-1.1,0-2-0.8-2.1-1.9c-1.9-13.5-7.1-26.3-15.3-37.3c-0.7-1-0.5-2.3,0.5-3c1-0.7,2.3-0.5,3,0.5
				c8.5,11.5,14.1,25.1,16.1,39.3c0.2,1.2-0.7,2.3-1.8,2.4C189.2,96.4,189.1,96.4,189,96.4z"/>
			<path class="st3" d="M173.4,56"/>
			<path class="st0" d="M162.4,46c-0.5,0-1-0.2-1.5-0.6c-15.1-13.8-34.7-21.4-55.2-21.4c-8.3,0-16.5,1.2-24.4,3.7
				c-1.1,0.4-2.4-0.3-2.7-1.4c-0.4-1.1,0.3-2.4,1.4-2.7c8.3-2.6,16.9-3.9,25.6-3.9c21.6,0,42.2,8,58.1,22.5c0.9,0.8,0.9,2.2,0.1,3.1
				C163.6,45.8,163,46,162.4,46z"/>
		</g>
	</g>
	<g>
		<g>
			<g>
				<path class="st4" d="M155.7,76.3c-0.3-2.6-1.5-4.9-3.6-6.5c-5.6-4.5-11.2-8.9-16.8-13.4L122,45.8c-3.4-2.6-4.6-5.5-4-9.5
					c0.3-2.8-1-4.3-1.8-5c-0.8-0.7-2.7-1.7-5.6-0.8c-4.8,1.5-8.4,4.4-10.5,8.4c-1.4,2.8-3.3,3.9-6.5,3.8c-9.5-0.4-15,5.7-18.2,10.4
					c-4.4,6.2-6.5,13.3-8,19.9c-1.6,6.6-2.5,13.7-2.8,21.6c-0.2,3.3-0.2,6.6-0.2,9.8c0,2.1,0,4.2-0.1,7v14.3c0,2.3,1.9,4.2,4.2,4.2
					H135c2.3,0,4.2-1.9,4.2-4.2l0-10.3c0.1-0.7,0.6-6.7-4-11.3c-3.4-3.4-7.1-6.6-7.1-6.6c0,0-0.1-0.1-0.1-0.1
					c-1.5-1.2-2.8-2.6-3.9-4.1l-3.2-4.1c1.1-0.1,2.2-0.3,3.3-0.5c1.8-0.4,3.3-0.2,4.6,0.6c1.5,1,3.1,1.8,4.7,2.7
					c5.2,2.7,11.7,1.4,15.4-3.1l4.6-5.6C155.2,81.4,156,78.9,155.7,76.3z M147.1,78.1l-4.7,5.6c-1.3,1.5-3.5,1.9-5.2,1
					c-1.3-0.7-2.7-1.4-4-2.3c-3.2-2.1-7.1-2.7-11.1-1.7c-3.1,0.8-5.9,0.1-8.8-2.1l-2.3-1.9c-1.6-1.3-4-1.2-5.5,0.2
					c-1.5,1.5-1.7,3.8-0.4,5.5l12.3,16c1.5,2,3.3,3.8,5.2,5.4c0.4,0.4,3.6,3.2,6.6,6.2c1.8,1.8,1.6,4.4,1.6,4.9v6.6H72.6V111
					c0.1-2.2,0.1-4.3,0.1-6.5c0-3.1,0-6.2,0.2-9.5c0.3-7.5,1.1-14,2.6-20.1c1.4-5.8,3.1-11.9,6.7-17c3.5-5.1,6.6-7,11-6.8
					c6.5,0.1,11.4-2.7,14.2-8.4c0.5-1,1.2-1.9,2.1-2.6c0.5,4.7,3,8.9,7.3,12.2l13.2,10.5c5.6,4.5,11.2,8.9,16.9,13.4
					c0.4,0.3,0.5,0.6,0.5,0.9C147.4,77.4,147.4,77.7,147.1,78.1z"/>
			</g>
		</g>
		<g>
			<g>
				<path class="st4" d="M147,157.2l-8.3-16.6c-0.7-1.4-2.1-2.3-3.7-2.3H68.4c-1.6,0-3,0.9-3.7,2.3l-8.3,16.6
					c-0.6,1.3-0.6,2.8,0.2,4c0.8,1.2,2.1,2,3.5,2h83.2c1.4,0,2.8-0.7,3.5-2C147.6,160,147.6,158.5,147,157.2z M66.9,154.9l4.2-8.3
					h61.4l4.2,8.3H66.9z"/>
			</g>
		</g>
	</g>
</g>
</svg>
