<?xml version="1.0" encoding="utf-8"?>
<!-- Generator: Adobe Illustrator 22.0.1, SVG Export Plug-In . SVG Version: 6.00 Build 0)  -->
<svg version="1.1" id="Layer_1" xmlns="http://www.w3.org/2000/svg" xmlns:xlink="http://www.w3.org/1999/xlink" x="0px" y="0px"
	 viewBox="0 0 167.7 174" style="enable-background:new 0 0 167.7 174;" xml:space="preserve">
<style type="text/css">
	.st0{fill:#F05930;}
	.st1{fill:#00585E;}
	.st2{fill:#009494;}
</style>
<g>
	<g>
		<g>
			<g>
				<g>
					<path class="st0" d="M77.6,77.3c-0.9,0-1.6,0.7-1.6,1.6c0,0.9,0.7,1.6,1.6,1.6s1.6-0.7,1.6-1.6C79.2,78,78.5,77.3,77.6,77.3z"
						/>
				</g>
			</g>
			<g>
				<g>
					<path class="st0" d="M87,61.7h-1.6V50.8c0-0.9-0.7-1.6-1.6-1.6h-3.1c-0.9,0-1.6,0.7-1.6,1.6c0,0.9,0.7,1.6,1.6,1.6h1.6v9.4
						h-1.6c-0.9,0-1.6,0.7-1.6,1.6c0,0.9,0.7,1.6,1.6,1.6H87c0.9,0,1.6-0.7,1.6-1.6C88.5,62.4,87.8,61.7,87,61.7z"/>
				</g>
			</g>
			<g>
				<g>
					<path class="st0" d="M61.5,71.1c0.9,0,1.6-0.7,1.6-1.6v-6.2c0-0.9-0.7-1.6-1.6-1.6h-6.2c-0.9,0-1.6,0.7-1.6,1.6
						c0,0.9,0.7,1.6,1.6,1.6H60V68h-4.7c-0.9,0-1.6,0.7-1.6,1.6v6.2c0,0.9,0.7,1.6,1.6,1.6h6.2c0.9,0,1.6-0.7,1.6-1.6
						s-0.7-1.6-1.6-1.6h-4.7v-3.1H61.5z"/>
				</g>
			</g>
			<g>
				<g>
					<path class="st0" d="M112.4,64.9h-6.2c-0.9,0-1.6,0.7-1.6,1.6c0,0.9,0.7,1.6,1.6,1.6h4.7v3.1h-4.7c-0.9,0-1.6,0.7-1.6,1.6
						c0,0.9,0.7,1.6,1.6,1.6h4.7v3.1h-4.7c-0.9,0-1.6,0.7-1.6,1.6c0,0.9,0.7,1.6,1.6,1.6h6.2c0.9,0,1.6-0.7,1.6-1.6V66.4
						C114,65.6,113.3,64.9,112.4,64.9z"/>
				</g>
			</g>
			<g>
				<g>
					<path class="st0" d="M122.3,58.6H97.9V44.1c0-0.9-0.7-1.6-1.6-1.6h-25c-0.9,0-1.6,0.7-1.6,1.6v8.3H45.5c-0.9,0-1.6,0.7-1.6,1.6
						v31.7c0,0.9,0.7,1.6,1.6,1.6h25.9h25h25.9c0.9,0,1.6-0.7,1.6-1.6V60.2C123.8,59.3,123.1,58.6,122.3,58.6z M69.8,84.1H47V55.5
						h22.8V84.1z M94.8,84.1H72.9V45.7h21.9V84.1z M120.7,84.1H97.9V61.7h22.8V84.1z"/>
				</g>
			</g>
			<g>
				<g>
					<path class="st0" d="M99.3,19.1c-0.2-0.6-0.7-1-1.3-1.1l-8.9-1.3l-4-8.6c-0.3-0.6-0.8-0.9-1.4-0.9c-0.6,0-1.2,0.4-1.4,0.9
						l-4,8.6l-8.9,1.3c-0.6,0.1-1.1,0.5-1.3,1.1c-0.2,0.6,0,1.2,0.4,1.6l6.5,6.3l-1.5,9.4c-0.1,0.6,0.1,1.2,0.6,1.5
						c0.5,0.3,1.1,0.4,1.6,0.1l8-4.2l8,4.2c0.2,0.1,0.5,0.2,0.7,0.2c0.3,0,0.6-0.1,0.9-0.3c0.5-0.3,0.7-0.9,0.6-1.5L92.5,27l6.5-6.3
						C99.4,20.3,99.5,19.7,99.3,19.1z M89.7,25.4c-0.4,0.4-0.5,0.9-0.5,1.4l1.2,7.1l-5.9-3.1c-0.5-0.2-1-0.2-1.5,0l-5.9,3.1l1.2-7.1
						c0.1-0.5-0.1-1-0.5-1.4l-4.8-4.7l6.6-1c0.5-0.1,1-0.4,1.2-0.9l2.9-6.3l2.9,6.3c0.2,0.5,0.7,0.8,1.2,0.9l6.6,1L89.7,25.4z"/>
				</g>
			</g>
			<g>
				<g>
					<path class="st0" d="M90.1,77.3h-6.2c-0.9,0-1.6,0.7-1.6,1.6c0,0.9,0.7,1.6,1.6,1.6h6.2c0.9,0,1.6-0.7,1.6-1.6
						C91.7,78,91,77.3,90.1,77.3z"/>
				</g>
			</g>
		</g>
		<g>
			<g>
				<g>
					<g>
						<g>
							<path class="st1" d="M27.7,89.3c4.2-0.1,7.7,2.3,7.7,2.3s-3.3,2.7-7.5,2.8s-7.7-2.3-7.7-2.3S23.5,89.4,27.7,89.3z"/>
							<path class="st1" d="M34.2,82.5c2.2,3.6,1.9,7.8,1.9,7.8s-4-1.5-6.2-5.1S28,77.5,28,77.5S31.9,79,34.2,82.5z"/>
						</g>
					</g>
					<g>
						<g>
							<path class="st1" d="M18,80c4.1,0.9,6.8,4.2,6.8,4.2s-3.9,1.7-8,0.8S10,80.8,10,80.8S13.9,79.1,18,80z"/>
							<path class="st1" d="M26,75.2c1.2,4-0.2,8-0.2,8s-3.5-2.5-4.7-6.5c-1.2-4,0.2-8,0.2-8S24.8,71.2,26,75.2z"/>
						</g>
					</g>
					<g>
						<g>
							<path class="st1" d="M11.1,68.6c3.7,2,5.5,5.8,5.5,5.8s-4.2,0.7-7.9-1.3s-5.5-5.8-5.5-5.8S7.3,66.6,11.1,68.6z"/>
							<path class="st1" d="M20,66c0.1,4.2-2.3,7.7-2.3,7.7s-2.7-3.3-2.8-7.5s2.3-7.7,2.3-7.7S19.9,61.8,20,66z"/>
						</g>
					</g>
					<g>
						<g>
							<path class="st1" d="M7.3,55.7c3.1,2.9,3.8,7.1,3.8,7.1s-4.3-0.5-7.3-3.3S0,52.5,0,52.5S4.2,52.9,7.3,55.7z"/>
							<path class="st1" d="M16.6,55.6c-0.9,4.1-4.2,6.8-4.2,6.8s-1.7-3.9-0.8-8s4.2-6.8,4.2-6.8S17.6,51.5,16.6,55.6z"/>
						</g>
					</g>
					<g>
						<g>
							<path class="st1" d="M7,42.4c2.2,3.6,1.9,7.8,1.9,7.8s-4-1.5-6.2-5.1c-2.2-3.6-1.8-7.8-1.8-7.8S4.8,38.8,7,42.4z"/>
							<path class="st1" d="M16.1,44.6c-2,3.7-5.8,5.5-5.8,5.5s-0.7-4.2,1.3-7.9s5.8-5.5,5.8-5.5S18,40.9,16.1,44.6z"/>
						</g>
					</g>
					<g>
						<g>
							<path class="st1" d="M10.2,29.4c1.2,4-0.2,8-0.2,8s-3.5-2.5-4.7-6.5s0.2-8,0.2-8S8.9,25.4,10.2,29.4z"/>
							<path class="st1" d="M18.3,33.9c-2.9,3.1-7.1,3.8-7.1,3.8s0.5-4.3,3.3-7.3s7.1-3.8,7.1-3.8S21.2,30.8,18.3,33.9z"/>
						</g>
					</g>
					<g>
						<g>
							<path class="st1" d="M16.6,17.6c0.1,4.2-2.3,7.7-2.3,7.7s-2.7-3.3-2.8-7.5s2.3-7.7,2.3-7.7S16.5,13.4,16.6,17.6z"/>
							<path class="st1" d="M23.3,24.1c-3.6,2.2-7.8,1.9-7.8,1.9s1.5-4,5.1-6.2s7.8-1.8,7.8-1.8S26.9,21.9,23.3,24.1z"/>
						</g>
					</g>
					<g>
						<g>
							<path class="st1" d="M25.8,8c-0.9,4.1-4.2,6.8-4.2,6.8s-1.7-3.9-0.8-8C21.8,2.7,25,0,25,0S26.8,3.9,25.8,8z"/>
							<path class="st1" d="M30.7,16c-4,1.2-8-0.2-8-0.2s2.5-3.5,6.5-4.7s8,0.2,8,0.2S34.7,14.7,30.7,16z"/>
						</g>
					</g>
				</g>
				<g>
					<g>
						<g>
							<path class="st1" d="M140,89.3c-4.2-0.1-7.7,2.3-7.7,2.3s3.3,2.7,7.5,2.8c4.2,0.1,7.7-2.3,7.7-2.3S144.2,89.4,140,89.3z"/>
							<path class="st1" d="M133.5,82.5c-2.2,3.6-1.9,7.8-1.9,7.8s4-1.5,6.2-5.1s1.8-7.8,1.8-7.8S135.8,79,133.5,82.5z"/>
						</g>
					</g>
					<g>
						<g>
							<path class="st1" d="M149.7,80c-4.1,0.9-6.8,4.2-6.8,4.2s3.9,1.7,8,0.8s6.8-4.2,6.8-4.2S153.8,79.1,149.7,80z"/>
							<path class="st1" d="M141.7,75.2c-1.2,4,0.2,8,0.2,8s3.5-2.5,4.7-6.5c1.2-4-0.2-8-0.2-8S142.9,71.2,141.7,75.2z"/>
						</g>
					</g>
					<g>
						<g>
							<path class="st1" d="M156.7,68.6c-3.7,2-5.5,5.8-5.5,5.8s4.2,0.7,7.9-1.3s5.5-5.8,5.5-5.8S160.4,66.6,156.7,68.6z"/>
							<path class="st1" d="M147.7,66c-0.1,4.2,2.3,7.7,2.3,7.7s2.7-3.3,2.8-7.5s-2.3-7.7-2.3-7.7S147.8,61.8,147.7,66z"/>
						</g>
					</g>
					<g>
						<g>
							<path class="st1" d="M160.4,55.7c-3.1,2.9-3.8,7.1-3.8,7.1s4.3-0.5,7.3-3.3c3.1-2.9,3.8-7.1,3.8-7.1S163.5,52.9,160.4,55.7z"
								/>
							<path class="st1" d="M151.1,55.6c0.9,4.1,4.2,6.8,4.2,6.8s1.7-3.9,0.8-8c-0.9-4.1-4.2-6.8-4.2-6.8S150.1,51.5,151.1,55.6z"/>
						</g>
					</g>
					<g>
						<g>
							<path class="st1" d="M160.7,42.4c-2.2,3.6-1.9,7.8-1.9,7.8s4-1.5,6.2-5.1c2.2-3.6,1.8-7.8,1.8-7.8S162.9,38.8,160.7,42.4z"/>
							<path class="st1" d="M151.6,44.6c2,3.7,5.8,5.5,5.8,5.5s0.7-4.2-1.3-7.9s-5.8-5.5-5.8-5.5S149.7,40.9,151.6,44.6z"/>
						</g>
					</g>
					<g>
						<g>
							<path class="st1" d="M157.5,29.4c-1.2,4,0.2,8,0.2,8s3.5-2.5,4.7-6.5c1.2-4-0.2-8-0.2-8S158.8,25.4,157.5,29.4z"/>
							<path class="st1" d="M149.4,33.9c2.9,3.1,7.1,3.8,7.1,3.8s-0.5-4.3-3.3-7.3s-7.1-3.8-7.1-3.8S146.5,30.8,149.4,33.9z"/>
						</g>
					</g>
					<g>
						<g>
							<path class="st1" d="M151.1,17.6c-0.1,4.2,2.3,7.7,2.3,7.7s2.7-3.3,2.8-7.5s-2.3-7.7-2.3-7.7S151.3,13.4,151.1,17.6z"/>
							<path class="st1" d="M144.4,24.1c3.6,2.2,7.8,1.9,7.8,1.9s-1.5-4-5.1-6.2s-7.8-1.8-7.8-1.8S140.8,21.9,144.4,24.1z"/>
						</g>
					</g>
					<g>
						<g>
							<path class="st1" d="M141.9,8c0.9,4.1,4.2,6.8,4.2,6.8s1.7-3.9,0.8-8S142.7,0,142.7,0S140.9,3.9,141.9,8z"/>
							<path class="st1" d="M137,16c4,1.2,8-0.2,8-0.2s-2.5-3.5-6.5-4.7c-4-1.2-8,0.2-8,0.2S133,14.7,137,16z"/>
						</g>
					</g>
				</g>
			</g>
		</g>
	</g>
	<g>
		<g>
			<path class="st2" d="M81.5,136.2v2.5h-9.5v-2.5h3.5v-8.7c-0.1,0.2-0.4,0.4-0.7,0.6c-0.3,0.2-0.7,0.4-1.1,0.6s-0.8,0.3-1.2,0.5
				c-0.4,0.1-0.8,0.2-1.1,0.2v-2.6c0.3,0,0.7-0.1,1.2-0.3c0.4-0.2,0.9-0.4,1.3-0.7c0.4-0.3,0.8-0.5,1.1-0.8c0.3-0.3,0.5-0.5,0.5-0.6
				h2.8v11.8H81.5z"/>
			<path class="st2" d="M96.1,131.4c0,1.1-0.2,2.1-0.5,3c-0.3,0.9-0.8,1.7-1.4,2.4c-0.6,0.7-1.3,1.2-2,1.6s-1.6,0.6-2.5,0.6
				s-1.8-0.2-2.5-0.6c-0.8-0.4-1.5-0.9-2-1.6c-0.6-0.7-1-1.5-1.3-2.4c-0.3-0.9-0.5-1.9-0.5-3c0-1.1,0.2-2.1,0.5-3
				c0.3-0.9,0.8-1.7,1.3-2.4c0.6-0.7,1.2-1.2,2-1.6c0.8-0.4,1.6-0.6,2.5-0.6s1.8,0.2,2.5,0.6c0.8,0.4,1.5,0.9,2,1.6
				c0.6,0.7,1,1.5,1.4,2.4C96,129.3,96.1,130.3,96.1,131.4z M93.3,131.4c0-0.8-0.1-1.4-0.3-2c-0.2-0.6-0.4-1.2-0.8-1.6
				c-0.3-0.5-0.7-0.8-1.2-1c-0.4-0.2-0.9-0.4-1.4-0.4c-0.5,0-1,0.1-1.5,0.4c-0.4,0.2-0.8,0.6-1.1,1c-0.3,0.4-0.6,1-0.8,1.6
				c-0.2,0.6-0.3,1.3-0.3,2s0.1,1.4,0.3,2c0.2,0.6,0.4,1.1,0.8,1.6c0.3,0.4,0.7,0.8,1.1,1c0.4,0.2,0.9,0.4,1.5,0.4
				c0.5,0,1-0.1,1.4-0.4c0.4-0.2,0.8-0.6,1.2-1c0.3-0.4,0.6-1,0.8-1.6C93.3,132.8,93.3,132.1,93.3,131.4z"/>
			<path class="st2" d="M44.1,169c-1,0-2.1-0.2-3.1-0.5c-1-0.3-1.9-0.8-2.7-1.5l1.1-1.8c0.8,0.6,1.6,1,2.3,1.3
				c0.8,0.3,1.5,0.4,2.4,0.4c0.8,0,1.5-0.2,1.9-0.5s0.7-0.8,0.7-1.4c0-0.5-0.3-1-0.8-1.2c-0.5-0.3-1.4-0.5-2.5-0.8
				c-0.8-0.2-1.5-0.4-2.1-0.6c-0.6-0.2-1.1-0.4-1.4-0.7s-0.6-0.6-0.8-0.9c-0.2-0.4-0.3-0.8-0.3-1.3c0-0.7,0.1-1.3,0.4-1.8
				c0.3-0.5,0.6-1,1.1-1.3c0.5-0.4,1-0.6,1.6-0.8c0.6-0.2,1.3-0.3,2-0.3c1,0,1.9,0.1,2.8,0.5c0.8,0.3,1.6,0.7,2.3,1.3l-1.2,1.6
				c-1.2-1-2.5-1.4-3.9-1.4c-0.7,0-1.3,0.1-1.8,0.4c-0.5,0.3-0.7,0.8-0.7,1.4c0,0.3,0,0.5,0.1,0.7s0.3,0.3,0.5,0.5
				c0.2,0.1,0.5,0.3,0.9,0.4s0.8,0.2,1.3,0.4c0.9,0.2,1.6,0.4,2.3,0.7s1.2,0.5,1.6,0.8s0.7,0.6,0.9,1c0.2,0.4,0.3,0.9,0.3,1.4
				c0,1.3-0.5,2.2-1.4,3C47,168.6,45.7,169,44.1,169z"/>
			<path class="st2" d="M59.2,169c-1.1,0-2-0.3-2.8-0.8c-0.8-0.5-1.4-1.2-1.9-2v7.8h-2.8v-18.4h2.4v2.4c0.5-0.8,1.1-1.4,1.9-1.9
				c0.8-0.5,1.7-0.7,2.7-0.7c0.9,0,1.7,0.2,2.5,0.5c0.8,0.4,1.4,0.9,2,1.5c0.5,0.6,1,1.3,1.3,2.2c0.3,0.8,0.5,1.7,0.5,2.6
				c0,1-0.1,1.8-0.4,2.7c-0.3,0.8-0.7,1.5-1.2,2.2s-1.1,1.1-1.8,1.5C60.8,168.8,60,169,59.2,169z M58.3,166.6c0.6,0,1.1-0.1,1.6-0.4
				c0.5-0.3,0.9-0.6,1.2-1c0.3-0.4,0.6-0.9,0.8-1.4c0.2-0.5,0.3-1.1,0.3-1.6c0-0.6-0.1-1.2-0.3-1.7s-0.5-1-0.8-1.4
				c-0.4-0.4-0.8-0.7-1.3-0.9s-1-0.4-1.6-0.4c-0.4,0-0.7,0.1-1.1,0.2c-0.4,0.1-0.7,0.3-1.1,0.5s-0.6,0.5-0.9,0.8
				c-0.3,0.3-0.4,0.6-0.5,1v3.4c0.2,0.4,0.4,0.8,0.6,1.1c0.3,0.4,0.6,0.7,0.9,0.9s0.7,0.5,1.1,0.6C57.5,166.5,57.9,166.6,58.3,166.6
				z"/>
			<path class="st2" d="M73.3,169c-1,0-2-0.2-2.8-0.5c-0.8-0.4-1.5-0.9-2.1-1.5c-0.6-0.6-1-1.3-1.4-2.2c-0.3-0.8-0.5-1.7-0.5-2.6
				c0-0.9,0.2-1.8,0.5-2.6c0.3-0.8,0.8-1.5,1.4-2.2c0.6-0.6,1.3-1.1,2.1-1.5c0.8-0.4,1.7-0.5,2.8-0.5s1.9,0.2,2.8,0.5
				c0.8,0.4,1.5,0.9,2.1,1.5c0.6,0.6,1,1.3,1.4,2.2c0.3,0.8,0.5,1.7,0.5,2.6c0,0.9-0.2,1.8-0.5,2.6c-0.3,0.8-0.8,1.5-1.4,2.2
				c-0.6,0.6-1.3,1.1-2.1,1.5C75.3,168.8,74.3,169,73.3,169z M69.4,162.2c0,0.6,0.1,1.2,0.3,1.8c0.2,0.5,0.5,1,0.8,1.4
				s0.8,0.7,1.2,0.9c0.5,0.2,1,0.3,1.5,0.3c0.6,0,1.1-0.1,1.5-0.3s0.9-0.5,1.2-0.9c0.4-0.4,0.6-0.9,0.8-1.4c0.2-0.5,0.3-1.1,0.3-1.8
				c0-0.6-0.1-1.2-0.3-1.7c-0.2-0.5-0.5-1-0.8-1.4c-0.3-0.4-0.8-0.7-1.2-0.9c-0.5-0.2-1-0.3-1.5-0.3c-0.5,0-1,0.1-1.5,0.4
				c-0.5,0.2-0.9,0.5-1.2,0.9c-0.4,0.4-0.6,0.9-0.8,1.4C69.5,161,69.4,161.6,69.4,162.2z"/>
			<path class="st2" d="M89.9,158c-1.1,0-2,0.3-2.8,0.7c-0.8,0.5-1.4,1.1-1.8,2v8h-2.8v-13.1h2.6v2.9c0.4-0.9,1-1.6,1.8-2.2
				c0.7-0.5,1.5-0.8,2.3-0.9c0.2,0,0.3,0,0.4,0s0.2,0,0.3,0V158z"/>
			<path class="st2" d="M99.1,168c-0.3,0.2-0.8,0.4-1.4,0.6c-0.6,0.2-1.3,0.3-2,0.3c-0.4,0-0.8-0.1-1.2-0.2c-0.4-0.1-0.7-0.3-1-0.5
				c-0.3-0.2-0.5-0.5-0.7-0.9c-0.2-0.4-0.3-0.8-0.3-1.4v-8.2h-1.7v-2.1h1.7v-4.3h2.8v4.3h2.8v2.1h-2.8v7.3c0,0.5,0.2,0.8,0.4,1
				c0.3,0.2,0.6,0.3,1,0.3c0.4,0,0.8-0.1,1.1-0.2c0.3-0.1,0.6-0.2,0.8-0.3L99.1,168z"/>
			<path class="st2" d="M105.1,169c-1.4,0-2.4-0.4-3.1-1.3c-0.7-0.9-1.1-2.2-1.1-4v-8h2.8v7.5c0,2.3,0.8,3.5,2.5,3.5
				c0.8,0,1.5-0.2,2.2-0.7s1.2-1.2,1.6-2.1v-8.2h2.8v9.8c0,0.3,0.1,0.5,0.2,0.7c0.1,0.1,0.3,0.2,0.6,0.2v2.3c-0.3,0-0.5,0.1-0.7,0.1
				s-0.4,0-0.5,0c-0.5,0-0.9-0.1-1.3-0.4c-0.4-0.3-0.5-0.6-0.5-1.1l-0.1-1.3c-0.6,1-1.3,1.7-2.3,2.2
				C107.2,168.7,106.2,169,105.1,169z"/>
			<path class="st2" d="M123.6,158c-1.1,0-2,0.3-2.8,0.7c-0.8,0.5-1.4,1.1-1.8,2v8h-2.8v-13.1h2.6v2.9c0.4-0.9,1-1.6,1.8-2.2
				c0.7-0.5,1.5-0.8,2.3-0.9c0.2,0,0.3,0,0.4,0s0.2,0,0.3,0V158z"/>
			<path class="st2" d="M125.6,153.5v-3h2.8v3H125.6z M125.6,168.7v-13.1h2.8v13.1H125.6z"/>
		</g>
	</g>
</g>
</svg>
