<svg xmlns="http://www.w3.org/2000/svg" xmlns:xlink="http://www.w3.org/1999/xlink" viewBox="0 0 626.19 626.51"><defs><style>.cls-1{fill:none;}.cls-2,.cls-3{fill:#929496;}.cls-3,.cls-4,.cls-5,.cls-6,.cls-7,.cls-8{fill-rule:evenodd;}.cls-4{fill:#ec3436;}.cls-5{fill:#ccc;}.cls-6{fill:#fcd900;}.cls-12,.cls-7{fill:#0559a1;}.cls-8{fill:#fffcf7;}.cls-9{clip-path:url(#clip-path);}.cls-10{fill:url(#linear-gradient);}.cls-11{fill:#fff;}.cls-13{fill:#27397d;}.cls-14{clip-path:url(#clip-path-2);}.cls-15{fill:url(#linear-gradient-2);}.cls-16{clip-path:url(#clip-path-3);}.cls-17{fill:url(#linear-gradient-3);}</style><clipPath id="clip-path"><path class="cls-1" d="M164.74,380.07a.57.57,0,0,0-.06.78l25.12,26.7a79.64,79.64,0,0,1-40.68,15.2.57.57,0,0,0-.2,1.08c18.83,9.06,74.75,14.79,75.31,14.85a.59.59,0,0,0,.49-.19.57.57,0,0,0,.12-.51l-9.53-36.48c1.25-.56,6.83-2.84,31.58-12.08h0l.05,0a.54.54,0,0,0,.31-.72.58.58,0,0,0-.65-.35h0l-.09,0h0a88.21,88.21,0,0,1-30.85,5.81c-30.78,0-49.94-13.88-50.13-14.06a.57.57,0,0,0-.78,0"/></clipPath><linearGradient id="linear-gradient" x1="-0.58" y1="871.53" x2="0.89" y2="871.53" gradientTransform="matrix(70.89, 0, 0, -70.89, 187.71, 62194.15)" gradientUnits="userSpaceOnUse"><stop offset="0" stop-color="#233f84"/><stop offset="0.02" stop-color="#233f84"/><stop offset="0.19" stop-color="#1072b3"/><stop offset="0.3" stop-color="#233f84"/><stop offset="0.52" stop-color="#1072b3"/><stop offset="0.73" stop-color="#233f84"/><stop offset="0.88" stop-color="#1072b3"/><stop offset="1" stop-color="#233f84"/></linearGradient><clipPath id="clip-path-2"><path class="cls-1" d="M462.23,389.56l-6.71,35.57a.58.58,0,0,0,.09.43.57.57,0,0,0,.37.24c.07,0,.17.05.19,0-.07.39-1.45,2.59-20.57,9.41a.57.57,0,0,0,.35,1.08,98.38,98.38,0,0,1,26.84-3.78c34.83,0,58.57,19.21,58.8,19.4a.57.57,0,0,0,.8-.79l-25.12-30.9A79.76,79.76,0,0,1,538,405a.57.57,0,0,0,.21-1.08c-18.83-9.06-74.75-14.79-75.32-14.85h-.06a.56.56,0,0,0-.56.46"/></clipPath><linearGradient id="linear-gradient-2" x1="0.4" y1="871.36" x2="1.87" y2="871.36" gradientTransform="matrix(70.19, 0, 0, -70.19, 406.94, 61581.43)" xlink:href="#linear-gradient"/><clipPath id="clip-path-3"><path class="cls-1" d="M466.53,375c-.74.13-74.58,13.73-143.82,27.36a293.16,293.16,0,0,1-56.31,5.84c-32.86,0-50.36-6.86-50.53-6.93a.57.57,0,0,0-.59.1.56.56,0,0,0-.18.57l12.51,47.57a.57.57,0,0,0,.62.42,1141.87,1141.87,0,0,0,114.5-21.59,261.33,261.33,0,0,1,62.35-7.2c30.34,0,52,4.73,52.24,4.78a.57.57,0,0,0,.69-.45l9.17-49.8a.57.57,0,0,0-.56-.67h-.1"/></clipPath><linearGradient id="linear-gradient-3" x1="-0.25" y1="870.72" x2="1.23" y2="870.72" gradientTransform="matrix(170.36, 0, 0, -170.36, 257.3, 148747.94)" xlink:href="#linear-gradient"/></defs><title>upb_200</title><g id="Layer_2" data-name="Layer 2"><g id="Layer_1-2" data-name="Layer 1"><path class="cls-2" d="M466.93,207.08H161.74l1.47-1.93c.48-.63,49-62.78,151.13-62.78S465,204.52,465.46,205.15Zm-300.22-2.39H462c-9.09-10.47-56.93-59.93-147.62-59.93s-138.52,49.46-147.62,59.93"/><path class="cls-2" d="M506.31,222.95h-391V204.69h391Zm-388.6-2.39H503.92V207.08H117.71Z"/><path class="cls-2" d="M500.89,233.53H123.26v-13H500.89Zm-375.25-2.39H498.5v-8.19H125.65Z"/><path class="cls-2" d="M494.12,259.69h-357V231.14h357ZM139.46,257.3H491.72V233.53H139.46Z"/><path class="cls-2" d="M503.13,269.1H116.49V257.3H503.13Zm-384.25-2.4H500.74v-7H118.88Z"/><rect class="cls-2" x="374.08" y="198.03" width="49.6" height="2.4" transform="translate(-38.77 114) rotate(-15.52)"/><path class="cls-2" d="M421.92,193.42c-.37-.37-37.25-36.78-107.59-48.64-70.4,11.87-107.22,48.27-107.59,48.64L205,191.73c.37-.38,37.82-37.39,109.08-49.35l.2,0,.2,0c71.27,12,108.72,49,109.09,49.35Z"/><rect class="cls-2" x="228.59" y="174.43" width="2.4" height="49.6" transform="translate(-23.78 367.15) rotate(-74.44)"/><rect class="cls-2" x="338.11" y="194.38" width="46.33" height="2.4" transform="translate(-49.27 180.76) rotate(-26.36)"/><path class="cls-2" d="M380.93,185.75c-.08-.2-9.26-19.9-66.59-40.91-57.34,21-66.5,40.72-66.6,40.91l-2.2-.94c.36-.84,9.44-20.85,68.38-42.37l.41-.15.41.15c59,21.51,68,41.53,68.38,42.37l-2.2.94,1.1-.47Z"/><polygon class="cls-2" points="287.61 206.95 246.12 186.35 247.17 184.2 288.67 204.81 287.61 206.95"/><rect class="cls-2" x="316.77" y="193.25" width="35.69" height="2.39" transform="translate(-46.95 259.14) rotate(-39.78)"/><path class="cls-2" d="M347.13,183.06c0-.08-1.07-8.8-32.79-35.22-31.72,26.42-32.79,35.14-32.79,35.22l-2.39-.05c0-.93,1-9.92,34.41-37.65l.77-.63.76.63c33.45,27.74,34.42,36.72,34.42,37.65h-1.2Z"/><rect class="cls-2" x="292.85" y="176.6" width="2.39" height="35.69" transform="translate(-43.61 295.74) rotate(-50.17)"/><path class="cls-2" d="M464,207c-.54-.25-55.23-25.2-149.67-25.2S165.21,206.71,164.67,207l-1-2.17c.54-.26,55.65-25.42,150.68-25.42S464.47,204.54,465,204.79Z"/><rect class="cls-2" x="143.88" y="232.34" width="21.65" height="17.63"/><rect class="cls-2" x="197.09" y="232.34" width="21.65" height="17.63"/><rect class="cls-2" x="250.3" y="232.34" width="21.65" height="17.63"/><rect class="cls-2" x="463.14" y="232.34" width="21.64" height="17.63"/><rect class="cls-2" x="409.92" y="232.34" width="21.65" height="17.63"/><rect class="cls-2" x="356.72" y="232.34" width="21.65" height="17.63"/><polygon class="cls-3" points="314.33 232.34 303.51 232.34 303.51 249.97 314.33 249.97 325.16 249.97 325.16 232.34 314.33 232.34"/><rect class="cls-2" x="172.94" y="452.56" width="10.58" height="30.82"/><rect class="cls-2" x="205.83" y="452.56" width="10.58" height="30.82"/><rect class="cls-2" x="238.72" y="452.56" width="10.58" height="30.82"/><rect class="cls-2" x="271.63" y="452.56" width="10.58" height="30.82"/><rect class="cls-2" x="304.52" y="452.56" width="10.58" height="30.82"/><rect class="cls-2" x="337.42" y="452.56" width="10.58" height="30.82"/><rect class="cls-2" x="370.32" y="452.56" width="10.58" height="30.82"/><rect class="cls-2" x="403.21" y="452.56" width="10.58" height="30.82"/><rect class="cls-2" x="436.11" y="452.56" width="10.58" height="30.82"/><rect class="cls-2" x="469" y="452.56" width="10.58" height="30.82"/><path class="cls-3" d="M314.33,131.22c9.59,0,21,13.23,21,13.23s-5.7,1.59-21,1.59-21-1.59-21-1.59,11.38-13.23,21-13.23"/><path class="cls-2" d="M307.32,144l-2.24-.85c1.16-3.07,5.24-13.12,9.26-13.12s8.11,10,9.26,13.12l-2.24.85c-2.05-5.48-5.44-11.58-7-11.58s-5,6.1-7,11.58"/><rect class="cls-2" x="149.37" y="489.32" width="327.7" height="4"/><rect class="cls-2" x="108.95" y="445.83" width="408.29" height="4"/><rect class="cls-2" x="140.04" y="452.56" width="10.58" height="30.82"/><path class="cls-4" d="M626.19,313.39a311,311,0,0,0-58.57-182.47L504.76,176A234.41,234.41,0,0,1,549,313.39c0,91.25-52.06,170.61-128.12,209.74l35.31,68.83a312.83,312.83,0,0,0,170-278.56"/><path class="cls-5" d="M313.22,549.3a232.62,232.62,0,0,1-107.66-26.17L170,591.95a313.61,313.61,0,0,0,286.24,0l-35.35-68.81A233.27,233.27,0,0,1,313.22,549.3"/><path class="cls-6" d="M313.22,77.48A235.2,235.2,0,0,1,504.76,176l62.89-45.08A311.86,311.86,0,0,0,313.22,0c-105,0-197.75,51.56-254.69,130.92L121.39,176c42.9-59.65,112.79-98.52,191.83-98.52"/><path class="cls-7" d="M77.4,313.39a236.29,236.29,0,0,1,44-137.39L58.54,130.91A313.4,313.4,0,0,0,170,591.95l35.6-68.83C129.5,484,77.4,404.64,77.4,313.39"/><path class="cls-8" d="M566.83,169.78l5.92,11.34c2.46,5.38,3.24,10,1.9,13.77-1.34,4-4.58,7.54-9.71,10.24-5.66,2.71-10.79,3.51-14.85,2.43q-6.47-1.61-10.49-9.72l-5.7-11.34Zm-27,19.16,3.5,7.29a14.87,14.87,0,0,0,6.48,6.49c3,1.34,7,.8,12.13-1.91,4.35-1.88,7-4.3,8.11-7.27,1.34-2.71,1.08-5.94-.82-10L565.49,176Z"/><polygon class="cls-8" points="583.84 205.69 585.44 210.28 550.9 223.77 549.27 219.17 583.84 205.69"/><polygon class="cls-8" points="589.75 221.07 591.09 225.94 567.35 252.92 596.23 244.83 597.57 249.41 561.96 259.41 560.36 254 583.84 227.56 555.22 235.39 554.14 230.8 589.75 221.07"/><path class="cls-8" d="M602.44,277.49,603.52,291a44.27,44.27,0,0,1,0,5.92,8.79,8.79,0,0,1-.82,4.06,8.06,8.06,0,0,1-2.68,3.24,13.59,13.59,0,0,1-4.61,1.62,10.35,10.35,0,0,1-5.14-1.09,9.58,9.58,0,0,1-3.5-3.77,11.25,11.25,0,0,1-2.68,5.39,10.64,10.64,0,0,1-6,2.18,9.9,9.9,0,0,1-7.56-2.44,11.49,11.49,0,0,1-3.76-8.1l-1.38-17.8Zm-32.37,7.3.81,12.4c.26,2.18.78,3.79,2.16,4.86,1.34,1.36,2.94,1.63,5.1,1.63,2.16-.27,3.54-1.07,4.32-2.69a8.36,8.36,0,0,0,1.08-5.94L582.76,284Zm16.71-1.09.82,9.73c.26,2.7.81,4.58,1.9,5.94a6.3,6.3,0,0,0,4.57,1.62c2.42-.28,3.79-1.09,4.58-2.44a17.93,17.93,0,0,0,.82-5.92l-.82-10-28.58,2.17Z"/><path class="cls-8" d="M579.22,345.24c-4.84-.27-8.08-1.88-10.5-4.59-2.19-2.68-3.23-6.19-3-10.78.26-4.86,1.9-8.65,4.32-11.07s6.21-3.52,11.05-3.24l23.48,1.35-.26,4.86-23.74-1.35a9.78,9.78,0,0,0-7.59,2.15,9.23,9.23,0,0,0-2.94,7.3,9.56,9.56,0,0,0,2.16,7.55,11.36,11.36,0,0,0,7.29,3L603,341.74l-.26,4.86Z"/><path class="cls-8" d="M584.92,381.95a10.25,10.25,0,0,0,6.44-2.15,12.16,12.16,0,0,0,3.24-6.48c.82-4.05.3-7.3-2.16-10s-5.66-4.32-10-5.4a19.86,19.86,0,0,0-11.35.82,11.32,11.32,0,0,0-6.17,8.37A10.08,10.08,0,0,0,573,379.8l-.82,4.86c-4.58-1.35-7.82-3.79-9.71-7-2.16-3.26-2.72-7-1.64-11.63,1.08-5.39,3.8-9.16,7.82-11.33s8.93-2.69,14.59-1.62c5.4,1.35,9.71,3.79,12.69,7.56a15.23,15.23,0,0,1,2.68,13.75,15.47,15.47,0,0,1-5.1,9.19,12.56,12.56,0,0,1-9.71,3.24Z"/><path class="cls-8" d="M559.28,419.2c-4.32-1.62-7.3-4.06-8.63-7.29s-1.38-7,.26-11.32c1.6-4.59,4.06-7.83,7.29-9.45,2.94-1.62,6.74-1.62,11.32,0l22.14,8.1-1.6,4.59-22.15-8.1c-3.23-1.09-6-1.09-8.11,0S556,399,555,401.94s-1.08,5.38,0,7.54c.78,2.15,3,3.79,6.18,4.86l22.14,8.36-1.6,4.59Z"/><path class="cls-8" d="M576.54,438.37l-8.11,15.39c-1.9,3-3.76,4.85-6.18,5.92a8.26,8.26,0,0,1-7.85-.8,11.27,11.27,0,0,1-4.58-4.05,8.73,8.73,0,0,1-.52-5.94c-1.37,1.62-2.72,2.44-4.35,2.44a11.22,11.22,0,0,1-4.84-1.08c-1.9-.8-3.8-1.62-5.4-2.42a10.59,10.59,0,0,0-4.88-.56l2.46-4.85c.78-.27,2.42.26,4.32,1.35,2.16.81,3.76,1.35,4.32,1.62,2.71,1.09,4.58,1.36,5.91.82a6.3,6.3,0,0,0,3-3l5.69-10.52-14.07-7.57,2.45-4.31Zm-22.14,5.12a13.4,13.4,0,0,0-1.86,6.21c.26,1.89,1.34,3.24,3.5,4.6a8.07,8.07,0,0,0,4.84.8,5.85,5.85,0,0,0,3.8-3.78l5.91-10.8-11.31-5.93Z"/><polygon class="cls-8" points="557.12 472.64 542.27 493.44 539.03 491 550.9 474.26 541.49 467.26 530.14 482.92 526.9 480.48 537.96 464.82 527.42 457.54 515.55 474.53 512.05 472.11 527.16 451.06 557.12 472.64"/><path class="cls-8" d="M509.07,479.13c3.8-.53,7,.53,10.27,3.5l-3.23,3.5a7.29,7.29,0,0,0-7-2.15c-2.42.26-4.84,1.88-7,4a15.74,15.74,0,0,0-3.23,5.94c-.52,1.89.26,3.78,1.9,5.4,2.12,1.91,4,2.17,6.21,1.09,2.12-1.36,4.83-3,8.07-5.4,3.5-2.44,6.21-3.53,8.34-3.78a7.91,7.91,0,0,1,6,2.43,9.52,9.52,0,0,1,3.5,8.36,15.72,15.72,0,0,1-4.57,8.63c-2.68,3-5.66,4.88-8.9,5.42-3,.53-6-.53-8.89-3.24l3.2-3.51a7.59,7.59,0,0,0,6,1.89,8.32,8.32,0,0,0,5.69-3.51,10.19,10.19,0,0,0,2.94-5.14c.56-1.89-.26-3.51-1.9-5.13-1.6-1.33-3-1.62-4.58-.8-1.6.53-4.32,2.42-8.37,5.13s-7,4.06-9.41,4.06a8.73,8.73,0,0,1-6.48-2.7,8.21,8.21,0,0,1-3-7.83,15.92,15.92,0,0,1,3.5-8.64l-.26-2.7h-.26a2.42,2.42,0,0,1-.82,1.62,6.47,6.47,0,0,1-3,1.62c-1.08.27-1.86-.26-3-1.08a3.84,3.84,0,0,1-1.08-3.77,9.78,9.78,0,0,1,2.2-4,6.08,6.08,0,0,1,1.6-1.35,4.9,4.9,0,0,1,2.42-1.35l1.07,2.16a7.49,7.49,0,0,0-1.59.82c-.27.26-.83.53-1.08,1.06a8.74,8.74,0,0,0-1.37,1.91,1.26,1.26,0,0,0,.29,1.62,2,2,0,0,0,1.34.27,5.37,5.37,0,0,0,1.6-1.09c0-.27.26-.53.56-.8,0,0,.26-.55.52-1.09l1.64.54.51,3.78c3-3.23,6.22-5.14,9.71-5.67"/><polygon class="cls-8" points="501.26 530.15 510.45 522.32 513.13 525.28 490.73 544.72 488.05 541.48 497.5 533.38 476.18 508.28 479.94 505.32 501.26 530.15"/><polygon class="cls-8" points="485.08 548.5 481.02 551.2 459.43 521.23 463.23 518.25 485.08 548.5"/><path class="cls-7" d="M104.94,106.9l14.55-13.22c3.8-3.23,7.29-4.59,10.79-4.06a12.6,12.6,0,0,1,8.63,4.31c3,3.26,4.32,6.76,4.06,10.27-.52,3.5-2.71,7-5.92,10L131.62,119l7.85,8.65-8.63,7.83Zm20.77,5.4,3.23-3.24c1.9-1.62,2.94-3,3.23-4a4.42,4.42,0,0,0-1.34-3.26c-1.08-1.07-1.9-1.62-3-1.34a8.18,8.18,0,0,0-3.5,2.42l-4.05,3.51Z"/><path class="cls-7" d="M146.22,78.27A20.74,20.74,0,0,1,170,62.89a19.55,19.55,0,0,1,12.39,9.45,20.63,20.63,0,0,1,3.54,15.13c-1.08,5.11-4.06,9.16-8.93,12.42-4.84,3-9.93,4-14.81,2.69-5.14-1.09-9.46-4.33-12.69-9.19-3-5.12-4.32-10.24-3.23-15.11M165.9,92.58a7.6,7.6,0,0,0,6-.81,6.74,6.74,0,0,0,3-4.86c.52-2.15-.3-5.13-2.46-8.37-1.9-3.23-4.06-4.86-6.18-5.39a7.5,7.5,0,0,0-5.95.8A7.85,7.85,0,0,0,157,78.82c-.26,2.17.56,4.86,2.42,8.1,2.16,3.23,4.36,5.14,6.48,5.67"/><polygon class="cls-7" points="184.24 50.21 195.03 45.35 206.39 71.81 222.02 65.05 226.07 73.97 199.35 85.57 184.24 50.21"/><polygon class="cls-7" points="222.28 34.82 233.63 31.31 244.68 68.29 233.36 71.8 222.28 34.82"/><polygon class="cls-7" points="257.11 35.9 246.32 37.79 244.68 28.08 277.61 22.12 279.51 31.84 268.72 33.75 273.81 62.08 262.24 64.26 257.11 35.9"/><polygon class="cls-7" points="290 21.05 322.12 20.25 322.38 30.25 302.17 30.51 302.43 35.37 320.52 35.1 320.78 44.28 302.69 44.53 302.69 49.41 323.2 48.86 323.46 58.86 291.09 59.66 290 21.05"/><polygon class="cls-7" points="336.71 21.05 348.28 22.68 346.68 35.9 357.47 37.52 359.33 24.03 371.2 25.65 365.84 63.99 354.24 62.37 356.1 47.23 345.34 45.62 343.18 60.74 331.31 59.12 336.71 21.05"/><polygon class="cls-7" points="385.79 29.16 397.14 32.66 401.71 55.88 408.19 36.17 418.72 39.67 407.11 76.39 396.03 72.88 391.19 49.12 384.71 69.37 373.92 65.86 385.79 29.16"/><polygon class="cls-7" points="431.12 45.35 441.91 50.21 425.72 85.31 414.93 80.16 431.12 45.35"/><path class="cls-7" d="M467,81.24a5.71,5.71,0,0,0,.56-4.59,5.86,5.86,0,0,0-2.72-3.51,5.78,5.78,0,0,0-6.21-.26A13.69,13.69,0,0,0,453,78.27a13.2,13.2,0,0,0-2.42,7.29c-.26,2.16.82,4,3,5.4a6.05,6.05,0,0,0,4.57,1.09,14,14,0,0,0,4.32-3l9.71,6.22c-2.16,3.5-5.39,5.65-10,6.74-4.32,1.08-8.9.26-13.51-2.71-5.14-3.24-8.08-7.27-8.9-12.42-1.08-5.13,0-10,3.24-15.11s7.29-8.38,12.4-9.45c4.87-1.34,10-.27,14.84,3,4.62,2.71,7.29,5.95,8.38,9.72s.56,8.1-1.64,12.42Z"/><path class="cls-7" d="M503.42,90.69l8.63,7.83-15.11,38.07-9.15-8.09,2.42-5.14L481,115l-4.84,3L467,110.12ZM494,115.54l5.14-11.34-10.79,6.48Z"/><path class="cls-8" d="M147,523.4c2.67-3.77,5.65-5.95,9.15-6.48s7,.53,10.79,3.24c4,3,6.47,5.94,7.29,9.45s-.27,7-3,11.07l-13.77,19.44-4-3,13.76-19.43c1.86-2.44,2.68-5.13,2.13-7.57s-2.13-4.59-4.84-6.48a9.67,9.67,0,0,0-7.29-2.16c-2.16.54-4.31,2.16-6.22,4.86l-13.72,19.45-4.06-3Z"/><polygon class="cls-8" points="123.81 535 120.05 531.48 126.53 496.4 106.02 517.99 102.48 514.75 127.86 488.02 131.92 491.55 125.44 526.64 145.95 505.04 149.45 508.28 123.81 535"/><polygon class="cls-8" points="95.23 506.39 91.99 502.62 119.79 478.33 123.03 482.1 95.23 506.39"/><polygon class="cls-8" points="106.02 460.77 109.26 465.1 87.16 497.48 83.88 493.16 103.87 465.9 71.48 475.88 68.51 471.85 106.02 460.77"/><polygon class="cls-8" points="64.46 465.36 52.06 442.96 55.56 440.81 65.83 458.88 76.07 453.21 66.61 436.47 70.11 434.33 79.57 451.32 90.91 444.84 80.64 426.76 84.44 424.87 96.83 447.28 64.46 465.36"/><path class="cls-8" d="M47.74,433.79l-6.47-16.2a12.35,12.35,0,0,1-.56-8.63,9,9,0,0,1,5.4-5.41,12.78,12.78,0,0,1,6.21-.8,8.6,8.6,0,0,1,4.85,3.51c-.26-2.15,0-3.79.82-4.86A26.21,26.21,0,0,1,62,398.15c1.9-.82,3.76-1.62,5.39-2.44,1.6-1.09,3-2.16,3.5-3.51l2.16,5.13c-.27.82-1.6,1.62-3.76,2.7-2.16.8-3.54,1.62-4.32,1.88-2.47,1.62-3.8,2.71-4.06,4.07a4.85,4.85,0,0,0,.26,4.32l4.32,11,14.85-5.66L82,420.28ZM58,413.53c-1.08-2.42-2.13-4.31-3.76-5.4-1.35-1.09-3.28-1.09-5.7-.27a7.08,7.08,0,0,0-3.5,3.25c-.78,1.33-.51,3.24.27,5.39l4.62,11.34L61.77,423Z"/><path class="cls-8" d="M39.11,373.31c-2.16,1.09-4.06,2.44-4.88,4.32a10.76,10.76,0,0,0-.26,6.48,12.73,12.73,0,0,0,3,5.4c1.34,1.35,3.23,1.62,5.4,1.09a3.74,3.74,0,0,0,3.23-3.25,85.78,85.78,0,0,0,.27-9.71c-.27-4.85.56-8.36,1.59-10.27a9.35,9.35,0,0,1,5.7-3.77,8.72,8.72,0,0,1,9.15,2.15,18.12,18.12,0,0,1,5.13,9.19c1.08,4.32,1.08,8.1-.51,11.34-1.38,3.24-4.36,5.41-8.37,6.48l-1.08-4.33a8.93,8.93,0,0,0,5.65-4.57,15.9,15.9,0,0,0-2.67-14.31,6.51,6.51,0,0,0-6-1.36c-2.42.8-3.79,2.16-4.06,4.59v10c.26,4-.26,7-1.34,8.92a8.8,8.8,0,0,1-5.4,3.77,9,9,0,0,1-8.63-1.91,17.15,17.15,0,0,1-5.13-8.64c-.83-3.76-.83-7.28.55-10.25S34.24,369.8,38,369Z"/><polygon class="cls-8" points="25.9 361.17 25.09 356.32 61.77 350.37 62.6 355.5 25.9 361.17"/><polygon class="cls-8" points="27.24 336.61 28.02 349.01 24 349.3 21.84 319.87 25.86 319.6 26.68 331.75 59.62 329.31 59.88 334.45 27.24 336.61"/><path class="cls-8" d="M22.36,302.06l.3-5.68,37.47-12.69-.26,5.67-11.35,3.51-.78,15.66,11.05,4.59-.26,5.13Zm22.15-7.83L27,299.35l16.7,7.3Z"/><polygon class="cls-8" points="29.93 267.24 27.76 279.4 23.7 278.58 28.58 249.42 32.89 250.22 30.74 262.38 63.11 267.77 62.3 272.63 29.93 267.24"/><polygon class="cls-8" points="30.74 241.86 37.73 217.57 41.79 218.66 35.87 238.35 47.19 241.86 52.84 223.24 56.64 224.58 51.24 242.95 63.63 246.45 69.33 226.75 73.35 227.84 66.09 252.38 30.74 241.86"/><path class="cls-8" d="M45.33,198.93l2.12-5.13,40,1.62L85,200.57l-11.64-.82-6.43,14.31,8.63,8.36L73.35,227Zm23.45.54-18.35-1.35,13.52,13Z"/><path class="cls-7" d="M254.69,577.65,246.05,576l1.6-7.82a13.88,13.88,0,0,0,8.11-.27c2.42-.82,3.77-2.44,4.28-5.39l8.64,1.89-7.52,36.7L250.33,599Z"/><path class="cls-7" d="M284.61,568.47a23,23,0,0,1,10.53-1.62c5.14.27,8.64,1.62,11.06,3.78,2.71,2.16,3.8,4.58,3.53,7.56a8.43,8.43,0,0,1-1.9,5.13,7,7,0,0,1-4.57,2.44,7.05,7.05,0,0,1,5.09,2.95,8.68,8.68,0,0,1,1.9,5.95,9.87,9.87,0,0,1-5.65,8.65,24.68,24.68,0,0,1-11.87,1.89c-4.88-.27-8.63-1.36-11.61-3.51-3.23-1.89-4.57-5.13-4.32-9.45.26-2.69,1.08-4.6,2.72-5.68a10.69,10.69,0,0,1,5.35-1.89c-3.76-1.62-5.65-4.31-5.35-8.37.26-3.77,1.86-6.47,5.09-7.83m4.35,27.8a9.76,9.76,0,0,0,4.28,1.35,11.23,11.23,0,0,0,4.31-.8,3.35,3.35,0,0,0,1.9-3,3.8,3.8,0,0,0-1.34-3.77,8.78,8.78,0,0,0-4.31-1.62,9.91,9.91,0,0,0-4.32.8,4.34,4.34,0,0,0-1.9,3.77,3,3,0,0,0,1.37,3.23m1.3-15.37a6.56,6.56,0,0,0,3.8,1.35,11.41,11.41,0,0,0,4.32-.53,3.12,3.12,0,0,0,1.59-3,3.69,3.69,0,0,0-1.07-3.53,8.9,8.9,0,0,0-4-1.06,6.58,6.58,0,0,0-4.06.53,3.27,3.27,0,0,0-1.64,3.24,3,3,0,0,0,1.08,3L289,596.27Z"/><path class="cls-7" d="M328.33,583.58l-8.9.54-.56-7.82a16,16,0,0,0,7.82-2.44c2.16-1.35,3-3.51,3-6.48l8.64-.53,2.42,37.52-11.06.8Z"/><path class="cls-7" d="M354.76,566.85a22.92,22.92,0,0,1,9.71-4.3c4.88-1.09,8.89-.82,11.87.53a8.34,8.34,0,0,1,5.14,6.49,7.63,7.63,0,0,1-.52,5.39,6.52,6.52,0,0,1-3.5,3.52,7.06,7.06,0,0,1,5.66,1.62,8.61,8.61,0,0,1,3.24,5.11c.81,4.05-.3,7.29-3.24,9.74a21.41,21.41,0,0,1-10.78,5.12,24.26,24.26,0,0,1-12.43-.27c-3.24-1.09-5.65-3.8-6.48-8.11-.51-2.7-.26-4.86,1.08-6.21a11,11,0,0,1,4.88-3.23c-4-.27-6.47-2.71-7.59-6.74-.52-3.53.29-6.51,3-8.66m8.89,10.53a6.86,6.86,0,0,0,4.06,0,9.52,9.52,0,0,0,3.79-1.62,3.35,3.35,0,0,0,.83-3.23c-.27-1.62-1.08-2.7-2.2-3a6.6,6.6,0,0,0-4,0,6.83,6.83,0,0,0-3.76,1.62,3.59,3.59,0,0,0-.82,3.51,3.75,3.75,0,0,0,2.12,2.7m2.72,15.11a11.71,11.71,0,0,0,4.31,0,7,7,0,0,0,4.06-1.88,3,3,0,0,0,1.07-3.24c-.29-1.89-1.07-3-2.46-3.51a7.16,7.16,0,0,0-4.31-.27,9.45,9.45,0,0,0-4,1.89,4.25,4.25,0,0,0-1.08,4.06,3.49,3.49,0,0,0,2.42,2.95l-2.72-15.11Z"/><g class="cls-9"><rect class="cls-10" x="142.64" y="368.14" width="110.65" height="82.33" transform="translate(-99.19 65.18) rotate(-15)"/></g><path class="cls-11" d="M224.28,439.91h-.14c-.6-.06-56.71-5.8-75.76-15h0a1.81,1.81,0,0,1,.66-3.43A78.58,78.58,0,0,0,188,407.39L163.78,381.7a1.83,1.83,0,0,1,.12-2.53,1.85,1.85,0,0,1,2.47,0c.1.07,19,13.72,49.28,13.72a87,87,0,0,0,30.42-5.73l.3-.09a1.82,1.82,0,0,1,2,1.14,1.78,1.78,0,0,1-1,2.31c-20.95,7.82-28.14,10.64-30.61,11.66L226,437.65a1.8,1.8,0,0,1-.38,1.63,1.82,1.82,0,0,1-1.38.63m-.64-1.63h0Zm-71.82-14.53c19,7.74,64.38,12.82,71.57,13.59l-9.55-36.55,1-.43c.91-.41,4.27-1.8,16.71-6.5a84.29,84.29,0,0,1-15.86,1.53c-22.7,0-39-7.35-46.46-11.56l22.46,23.87-1.08.83a81,81,0,0,1-38.74,15.22m-2.36-1h0M164.65,381l.13.1-.13-.1"/><path class="cls-12" d="M228.8,385.89c-.35-1.89-.65-4.06-.9-6.51H146q-.18-2.91-.18-4.82,0-8.64,6.54-10.64,3.36-1,14.17-1.73l46.77-3.09q7.93-.54,13.71-1.37,0-22.92,3.72-32.78,4.93-13.19,25.62-16.67-2.23-17.37-12.56-22.67-8.37-4.27-28.47-5.37-6.82-.36-29.29-.36-30.2,0-46.66,1.82Q118.66,284,113.66,298q-2.09,5.82-2.09,17.19v10.28h34.29v-3.27q0-11.82,7.55-14.83,5.46-2.18,31.75-2.18,22.83,0,27.11.64,9.73,1.45,9.73,12.82,0,9.92-6.09,12.28-3.55,1.36-15.1,2.27l-47.3,3.64q-21.56,1.64-28.56,5.46-13.37,7.28-13.37,26v36.2H242.09q-10.67-4.75-13.29-18.6"/><path class="cls-11" d="M247.93,405.73H110.33V368.29c0-12.92,4.72-22,14-27.1,4.87-2.66,14.38-4.49,29.06-5.6l47.3-3.64c7.54-.59,12.51-1.33,14.75-2.2,3.57-1.38,5.3-5,5.3-11.12,0-6.93-2.84-10.73-8.68-11.6-2.78-.41-11.84-.62-26.92-.62-17.29,0-27.81.7-31.29,2.09-4.56,1.81-6.77,6.28-6.77,13.68v4.51H110.33V315.17c0-7.69.73-13.62,2.16-17.61,3.49-9.78,12.5-15.53,26.77-17.1,11-1.21,26.72-1.83,46.8-1.83,14.92,0,24.79.12,29.36.36,13.71.75,23.18,2.55,29,5.5,7.24,3.7,11.69,11.64,13.23,23.62l.15,1.18-1.18.2c-13.26,2.23-21.56,7.58-24.66,15.88-2.4,6.4-3.62,17.28-3.65,32.35v1.07l-1.06.15c-3.87.55-8.51,1-13.8,1.37l-46.77,3.09c-7.09.48-11.76,1-13.9,1.68-3.8,1.17-5.65,4.26-5.65,9.46q0,1.49.11,3.58H229l.11,1.11c.24,2.42.54,4.57.88,6.4,1.67,8.89,5.79,14.68,12.58,17.69Zm-135.12-2.48H237.45c-5.11-3.69-8.42-9.43-9.87-17.13h0c-.3-1.61-.57-3.46-.79-5.49H144.88l-.07-1.16q-.19-3-.18-4.9c0-6.34,2.49-10.32,7.41-11.83,2.35-.7,7.08-1.28,14.45-1.78l46.77-3.09c4.75-.32,9-.73,12.56-1.21.08-14.81,1.36-25.62,3.8-32.14,3.34-8.94,11.88-14.74,25.39-17.25-1.55-10.46-5.5-17.37-11.74-20.56-5.4-2.76-14.81-4.52-28-5.23-4.52-.24-14.35-.36-29.22-.36-20,0-35.64.61-46.53,1.81-13.25,1.45-21.56,6.66-24.71,15.47-1.34,3.73-2,9.37-2,16.78v9h31.81v-2c0-8.41,2.8-13.78,8.33-16,3.82-1.53,14.35-2.27,32.2-2.27,15.42,0,24.35.21,27.29.65,4.92.74,10.79,3.77,10.79,14.05,0,7.14-2.32,11.66-6.89,13.44-2.51,1-7.56,1.73-15.45,2.35l-47.3,3.64c-14.13,1.07-23.57,2.86-28.06,5.31-8.56,4.66-12.72,12.82-12.72,24.93Z"/><path class="cls-12" d="M413.41,311.88q22.62,0,33.67,1.76,16.94,2.71,20.8,17.21,2.37,8.94,2.37,27.5t-2,27.71q-3.39,15.18-19.17,17.82-10.91,1.83-34.35,1.83-30.83,0-39.9-1.69-14.91-2.78-18-19-1.63-8.67-1.63-25.74,0-21.54,3.46-30.76,4.61-12.33,24-15.52,7-1.15,30.69-1.15m-.88,21.54q-23.58,0-27.71,5.55-3,4.13-3,21.07,0,15.78,3.66,19.44,3.18,3.19,13,3.86,6.77.48,15,.48,21.14,0,25.88-4,3.32-2.78,4.13-10.23.2-1.9.2-11.38,0-10.3-.81-14.5-1.63-8.33-11.65-9.48a172.63,172.63,0,0,0-18.7-.81"/><path class="cls-11" d="M414.69,407c-20.53,0-34-.58-40.13-1.71-10.44-1.95-16.82-8.66-18.94-20-1.09-5.83-1.65-14.57-1.65-26,0-14.44,1.19-24.94,3.53-31.19,3.22-8.63,11.64-14.11,25-16.3,4.76-.79,14.87-1.17,30.89-1.17,15.07,0,26.47.6,33.86,1.78,11.77,1.88,19.1,8,21.8,18.11,1.6,6,2.41,15.4,2.41,27.82s-.69,21.82-2.06,28c-2.37,10.61-9.16,16.93-20.18,18.77-7.3,1.23-18.92,1.85-34.55,1.85m-1.29-93.83c-15.67,0-25.92.38-30.49,1.14-12.43,2-20.2,7-23.09,14.73-2.24,6-3.38,16.18-3.38,30.32,0,11.25.54,19.84,1.6,25.51,1.95,10.33,7.49,16.22,17,18,6,1.11,19.3,1.67,39.68,1.67,15.49,0,27-.61,34.14-1.81,10.07-1.69,16-7.2,18.17-16.86,1.33-6,2-15.21,2-27.44s-.78-21.35-2.33-27.19c-2.46-9.23-8.94-14.56-19.8-16.3-7.27-1.16-18.53-1.75-33.47-1.75m.07,71.95c-5.54,0-10.63-.16-15.13-.48-6.92-.48-11.44-1.86-13.8-4.22-2.7-2.71-4-9.35-4-20.32,0-11.67,1.08-18.8,3.29-21.8,3-4.08,12.42-6.06,28.71-6.06a174.56,174.56,0,0,1,18.84.82c7.25.83,11.53,4.36,12.73,10.48.56,2.91.84,7.73.84,14.74,0,6.43-.07,10.19-.21,11.51-.58,5.35-2.08,9-4.57,11-3.42,2.88-12.14,4.29-26.67,4.29m-1-50.4c-19,0-25,2.75-26.71,5.06-1.28,1.73-2.8,6.67-2.8,20.33,0,12.62,1.79,17.06,3.29,18.57,1.89,1.89,6,3.07,12.22,3.5,4.45.31,9.48.47,15,.47,17.1,0,23.08-2,25.08-3.7s3.2-4.8,3.7-9.42c.13-1.21.2-5,.2-11.24a87.29,87.29,0,0,0-.79-14.26c-1-5-4.44-7.78-10.58-8.49a172.44,172.44,0,0,0-18.56-.81"/><polygon class="cls-13" points="435.25 435.92 435.25 407.4 459.96 407 456.37 427.12 435.25 435.92"/><path class="cls-11" d="M434,437.78v-31.6l27.43-.45-4,22.27Zm2.48-29.16v25.44l18.78-7.83,3.2-18Z"/><g class="cls-14"><rect class="cls-15" x="435.16" y="389.1" width="103.36" height="63.01"/></g><path class="cls-11" d="M522,453.29a1.8,1.8,0,0,1-1.15-.41c-.24-.2-23.68-19.12-58-19.12a97.23,97.23,0,0,0-26.51,3.73,1.81,1.81,0,0,1-1.1-3.44c13.35-4.77,17.76-7.19,19.2-8.19a1.8,1.8,0,0,1-.09-1L461,389.33a1.8,1.8,0,0,1,1.77-1.47c.74.07,56.85,5.81,75.91,15a1.81,1.81,0,0,1-.65,3.43,78.66,78.66,0,0,0-39,14.18l24.31,29.9a1.81,1.81,0,0,1-1.4,2.95m-59.16-22A102.7,102.7,0,0,1,518.26,448l-22.75-28,1-.78A81.1,81.1,0,0,1,535.25,404c-19.38-7.88-66-13-71.92-13.63l-6.6,35a.67.67,0,0,0-.1-.5.67.67,0,0,0-.44-.29l-.12,1.12,1.31.34a1.52,1.52,0,0,1-.12.41l-.28.84-.33-.07c-1.09,1-3.87,2.7-11.16,5.62a98.44,98.44,0,0,1,17.3-1.55m74.83-26.21h0m-74.17-15.28h0"/><polygon class="cls-13" points="247.26 388.66 247.26 419.23 218.49 411.5 215.28 401.38 247.26 388.66"/><path class="cls-11" d="M248.5,420.85l-31-8.33-3.76-11.87,34.75-13.81Zm-29-10.37L246,417.62V390.49L216.81,402.1Z"/><path class="cls-12" d="M292.83,311.88q22.62,0,33.67,1.76,16.94,2.71,20.8,17.21,2.37,8.94,2.37,27.5t-2,27.71q-3.39,15.18-19.17,17.82-10.91,1.83-34.35,1.83-30.83,0-39.9-1.69-14.91-2.78-18-19-1.63-8.67-1.63-25.74,0-21.54,3.45-30.76,4.61-12.33,24.05-15.52,7-1.15,30.69-1.15M292,333.43q-23.58,0-27.71,5.55-3,4.13-3,21.07,0,15.78,3.66,19.44,3.18,3.19,13,3.86,6.77.48,15,.48,21.14,0,25.88-4,3.32-2.78,4.13-10.23.2-1.9.2-11.38,0-10.3-.81-14.5-1.62-8.33-11.65-9.48a172.6,172.6,0,0,0-18.7-.81"/><path class="cls-11" d="M294.12,407c-20.53,0-34-.58-40.13-1.71-10.44-1.95-16.82-8.66-18.94-20-1.09-5.83-1.65-14.57-1.65-26,0-14.44,1.19-24.94,3.53-31.19,3.22-8.63,11.64-14.11,25-16.3,4.76-.79,14.87-1.17,30.89-1.17,15.08,0,26.47.6,33.87,1.78,11.77,1.88,19.1,8,21.8,18.11,1.6,6,2.41,15.4,2.41,27.82s-.69,21.82-2.06,28c-2.37,10.61-9.16,16.93-20.18,18.77-7.3,1.23-18.92,1.85-34.55,1.85m-1.29-93.83c-15.66,0-25.92.38-30.49,1.14-12.43,2-20.2,7-23.09,14.73-2.24,6-3.38,16.18-3.38,30.32,0,11.25.54,19.84,1.61,25.51,1.94,10.33,7.49,16.22,17,18,6,1.11,19.3,1.67,39.68,1.67,15.49,0,27-.61,34.14-1.81,10.07-1.69,16-7.2,18.17-16.86,1.33-6,2-15.21,2-27.44s-.78-21.35-2.33-27.19c-2.46-9.23-8.94-14.56-19.8-16.3-7.27-1.16-18.53-1.75-33.47-1.75m.07,71.95c-5.54,0-10.62-.16-15.13-.48-6.92-.48-11.43-1.86-13.8-4.22-2.71-2.71-4-9.35-4-20.32,0-11.67,1.08-18.8,3.29-21.8,3-4.08,12.42-6.06,28.7-6.06a174.56,174.56,0,0,1,18.84.82c7.25.83,11.53,4.36,12.73,10.48.56,2.91.83,7.73.83,14.74,0,6.43-.07,10.19-.21,11.51-.58,5.35-2.08,9-4.57,11-3.42,2.88-12.15,4.29-26.67,4.29m-.95-50.4c-19,0-25,2.75-26.71,5.06-1.28,1.73-2.8,6.67-2.8,20.33,0,12.62,1.79,17.06,3.29,18.57,1.89,1.89,6,3.07,12.22,3.5,4.45.31,9.48.47,15,.47,17.1,0,23.08-2,25.08-3.7s3.2-4.8,3.7-9.42c.13-1.21.2-5,.2-11.24a87.55,87.55,0,0,0-.79-14.27c-1-5-4.44-7.78-10.58-8.49a172.44,172.44,0,0,0-18.56-.81"/><g class="cls-16"><rect class="cls-17" x="215.05" y="375" width="252.17" height="74.98"/></g><path class="cls-11" d="M228.19,451.18a1.81,1.81,0,0,1-1.74-1.35l-12.54-47.58a1.79,1.79,0,0,1,.56-1.81,1.84,1.84,0,0,1,1.88-.32c.17.07,17.6,6.84,50.21,6.84a293.59,293.59,0,0,0,56.23-5.81c69-13.53,143.61-27.24,144.25-27.36l.33,0a1.84,1.84,0,0,1,1.29.53,1.8,1.8,0,0,1,.51,1.6l-9.2,49.8a1.82,1.82,0,0,1-2.2,1.44c-.87-.19-22.18-4.74-52.11-4.74a261.73,261.73,0,0,0-62.23,7.16,1146.44,1146.44,0,0,1-115,21.62l-.25,0m.68-2h0m-.74-.49h0m-11.48-45.84,12.06,45.76a1147.48,1147.48,0,0,0,114.1-21.49,264.23,264.23,0,0,1,62.83-7.23,276.63,276.63,0,0,1,52,4.66l8.9-48.17c-8.42,1.56-78.34,14.45-143.25,27.19a296.27,296.27,0,0,1-56.72,5.86c-28.41,0-45.36-5-49.9-6.58M458.29,424.7h0"/><path class="cls-11" d="M282.36,429.68c.08.44.15.81.21,1.13s.15.65.25,1l2.13-.06.18,1a5.82,5.82,0,0,1-.91.52q-.59.29-1.23.56t-1.29.5l-1.14.36-1,.17a4.38,4.38,0,0,1-.6-1.31q-.18-.68-.38-1.65l-.15,0a3.77,3.77,0,0,1-.31,1.23,4,4,0,0,1-.74,1.14,4.72,4.72,0,0,1-1.19.92,5,5,0,0,1-1.64.56,5.56,5.56,0,0,1-1.88,0,4.77,4.77,0,0,1-1.62-.58,3.92,3.92,0,0,1-1.22-1.13,4,4,0,0,1-.66-1.65,4.34,4.34,0,0,1,.13-2.29,3.8,3.8,0,0,1,1.36-1.69,9.71,9.71,0,0,1,2.68-1.3,40.7,40.7,0,0,1,4.12-1.1,9.16,9.16,0,0,0-.86-3.72,1.9,1.9,0,0,0-2.16-.86,4.85,4.85,0,0,0-1.66.59l-.79,3.81-1.32.23a7.16,7.16,0,0,1-.61-.74c-.2-.28-.4-.59-.59-.91a9.65,9.65,0,0,1-.52-1,9,9,0,0,1-.38-1,9.3,9.3,0,0,1,2.73-1.72,16.18,16.18,0,0,1,3.74-1.1,8.9,8.9,0,0,1,2.86-.1,4.32,4.32,0,0,1,1.87.72,3.56,3.56,0,0,1,1.12,1.36,7,7,0,0,1,.56,1.81q.31,1.79.49,3.24t.44,3M276,433.13a2.3,2.3,0,0,0,1-.42,3,3,0,0,0,.67-.7,2.36,2.36,0,0,0,.36-.8,6.6,6.6,0,0,0,.14-.73l-.52-3a17.14,17.14,0,0,0-2.28.57,3.66,3.66,0,0,0-1.33.73,1.81,1.81,0,0,0-.55,1,3.64,3.64,0,0,0,0,1.3,2.64,2.64,0,0,0,.85,1.66,1.91,1.91,0,0,0,1.61.37"/><path class="cls-11" d="M304.6,430.06l-7.94,1.47-.21-1.13c.23-.19.46-.36.69-.51s.5-.33.82-.51l-1.32-7a6.69,6.69,0,0,0-1.09-2.83,2,2,0,0,0-2.12-.7,2.9,2.9,0,0,0-1.83,1.09,4.51,4.51,0,0,0-.87,2.21l1.56,8.28a5.67,5.67,0,0,1,.91.12,6.07,6.07,0,0,1,.88.28l.21,1.13-7.94,1.47-.21-1.13a10.22,10.22,0,0,1,1.84-1.08l-2.06-10.92-2,.13-.21-1.13a6.5,6.5,0,0,1,1-.53q.6-.28,1.3-.56c.47-.19,1-.36,1.45-.53l1.36-.42,1-.19.58,3.06h0a6,6,0,0,1,1.48-2.5,5.17,5.17,0,0,1,2.89-1.47,7.33,7.33,0,0,1,2.15-.1,3.48,3.48,0,0,1,1.76.7,4.87,4.87,0,0,1,1.35,1.74,11.48,11.48,0,0,1,.92,3l1.34,7.11a5.4,5.4,0,0,1,2.11.35Z"/><path class="cls-11" d="M315.17,427.37,307,429.13l-.25-1.12a6.4,6.4,0,0,1,.84-.6q.44-.27,1-.54L306.15,416l-2,.18-.24-1.12a9.79,9.79,0,0,1,1-.59c.42-.21.87-.42,1.35-.61l1.41-.55,1.22-.43,1-.22L312.81,426c.42,0,.8,0,1.14.08a5.44,5.44,0,0,1,1,.21Zm-11-18.17a2,2,0,0,1,.35-1.78,3.19,3.19,0,0,1,3.65-.78,2.06,2.06,0,0,1,1.06,1.47,2,2,0,0,1-.36,1.75,3.19,3.19,0,0,1-3.65.78,2,2,0,0,1-1.05-1.44"/><path class="cls-11" d="M323.16,426l-9-11.91a9.15,9.15,0,0,1-1.74-.35l-.26-1.12,7.81-1.77.25,1.09q-.34.3-.69.58a6.23,6.23,0,0,1-.83.54l4.51,6.94,1,1.85h.06v-2.12l.79-8.1a5.46,5.46,0,0,1-.95-.1,5.27,5.27,0,0,1-.85-.24l-.26-1.12,5.74-1.3.26,1.12a3.77,3.77,0,0,1-.64.55,8.6,8.6,0,0,1-.89.54l-2.23,14.07Z"/><path class="cls-11" d="M345.14,417.79a3.79,3.79,0,0,1-.51,1.19,5.37,5.37,0,0,1-1,1.22,8.11,8.11,0,0,1-1.59,1.07,9.08,9.08,0,0,1-2.08.77,9.38,9.38,0,0,1-3.39.25,6.46,6.46,0,0,1-2.75-1,6.94,6.94,0,0,1-2-2.07,9.91,9.91,0,0,1-1.27-3A7.91,7.91,0,0,1,331,410a7.65,7.65,0,0,1,5-3.3,9.7,9.7,0,0,1,2.93-.28,5.13,5.13,0,0,1,2.52.82,5.38,5.38,0,0,1,1.82,2.17,10,10,0,0,1,.88,3.74l-9.09,2.21a5.83,5.83,0,0,0,2.11,3.4,4.4,4.4,0,0,0,3.79.54,7.69,7.69,0,0,0,2-.79,4.78,4.78,0,0,0,1.45-1.16Zm-8.81-9.4a2.61,2.61,0,0,0-1,.46,1.9,1.9,0,0,0-.61.94,4.82,4.82,0,0,0-.18,1.6,16.12,16.12,0,0,0,.28,2.41l4.74-1.15a8.44,8.44,0,0,0-1.13-3.46,1.83,1.83,0,0,0-2.1-.8"/><path class="cls-11" d="M418.16,410.66a3.75,3.75,0,0,1-.78,1,5.41,5.41,0,0,1-1.31.94,8,8,0,0,1-1.8.67,9.07,9.07,0,0,1-2.21.26,9.34,9.34,0,0,1-3.35-.55,6.42,6.42,0,0,1-2.44-1.6,6.93,6.93,0,0,1-1.48-2.49,9.91,9.91,0,0,1-.51-3.26,7.93,7.93,0,0,1,2-5.89,7.69,7.69,0,0,1,5.67-2,9.71,9.71,0,0,1,2.91.42,5.08,5.08,0,0,1,2.26,1.39,5.36,5.36,0,0,1,1.25,2.53,10.07,10.07,0,0,1,0,3.84H409a5.8,5.8,0,0,0,1.24,3.8,4.39,4.39,0,0,0,3.55,1.42,7.75,7.75,0,0,0,2.09-.3,4.78,4.78,0,0,0,1.69-.79Zm-6.31-11.2a2.61,2.61,0,0,0-1.07.21,1.91,1.91,0,0,0-.82.77,4.82,4.82,0,0,0-.56,1.51,16.1,16.1,0,0,0-.3,2.4H414a8.48,8.48,0,0,0-.28-3.63,1.83,1.83,0,0,0-1.85-1.27"/><path class="cls-11" d="M353.41,406.8a4.1,4.1,0,0,0-.72.76,3.63,3.63,0,0,0-.6,1.54l1.52,7.61a7.58,7.58,0,0,1,1.24,0,5.75,5.75,0,0,1,1.29.26l.22,1.13-8.67,1.69-.22-1.12a5.59,5.59,0,0,1,.93-.65c.3-.16.6-.31.9-.46l-2.17-10.9-2,.15-.22-1.13A8,8,0,0,1,346,405c.45-.21.91-.41,1.39-.6s.95-.35,1.41-.5l1.15-.38,1-.2.79,3.94.12,0a7,7,0,0,1,.43-1.5,7.34,7.34,0,0,1,.83-1.52,5.45,5.45,0,0,1,1.18-1.22,3.38,3.38,0,0,1,1.49-.63,3.81,3.81,0,0,1,.8,1.06q.39.71.68,1.36l.23,1.16Z"/><path class="cls-11" d="M367.86,412.9a1.88,1.88,0,0,0-.76-1.26,6.64,6.64,0,0,0-1.54-.85c-.6-.24-1.25-.47-1.95-.69a10.28,10.28,0,0,1-2-.86,6,6,0,0,1-1.61-1.31,3.89,3.89,0,0,1-.87-2,3.22,3.22,0,0,1,.18-1.69,3.86,3.86,0,0,1,1-1.41,5.72,5.72,0,0,1,1.62-1,8.11,8.11,0,0,1,2.14-.6,16.94,16.94,0,0,1,3.07-.19,11.6,11.6,0,0,1,2.56.34,10.9,10.9,0,0,1-.18,2.12q-.2,1.14-.4,2.09l-1,.15-1.72-2.87a2.91,2.91,0,0,0-.78-.09,7.89,7.89,0,0,0-.88.08,1.71,1.71,0,0,0-1.59,2,1.8,1.8,0,0,0,.75,1.22,6.8,6.8,0,0,0,1.54.83q.9.36,2,.69a11.71,11.71,0,0,1,2,.83,5.82,5.82,0,0,1,1.6,1.25,3.57,3.57,0,0,1,.85,1.92,3.78,3.78,0,0,1-1.21,3.49,7.85,7.85,0,0,1-4.35,1.84,15.88,15.88,0,0,1-3,.13,11.08,11.08,0,0,1-2.78-.45,6.84,6.84,0,0,1,.19-2.26,15.48,15.48,0,0,1,.68-2.11l1-.15,2,3a1.52,1.52,0,0,0,.78.18,6.91,6.91,0,0,0,.78-.07,2.72,2.72,0,0,0,1.52-.74,1.64,1.64,0,0,0,.52-1.51"/><path class="cls-11" d="M386.87,409.78c0,.44.08.82.12,1.14s.1.66.17,1l2.12.11.1,1.05a6.29,6.29,0,0,1-1,.45c-.4.16-.83.31-1.27.47s-.89.28-1.33.39l-1.17.28-1,.09a4.44,4.44,0,0,1-.49-1.35c-.08-.46-.16-1-.25-1.68l-.15,0a3.79,3.79,0,0,1-.41,1.2,4.1,4.1,0,0,1-.83,1.08,4.71,4.71,0,0,1-1.26.83,5,5,0,0,1-1.67.43,5.48,5.48,0,0,1-1.88-.13,4.73,4.73,0,0,1-1.57-.71,3.91,3.91,0,0,1-1.12-1.22,4,4,0,0,1-.52-1.7,4.32,4.32,0,0,1,.31-2.27,3.78,3.78,0,0,1,1.49-1.58A9.75,9.75,0,0,1,378,406.6a41.43,41.43,0,0,1,4.2-.78,9.11,9.11,0,0,0-.57-3.77,1.89,1.89,0,0,0-2.08-1,4.87,4.87,0,0,0-1.7.46l-1.09,3.74-1.34.12a7.14,7.14,0,0,1-.55-.78c-.18-.3-.35-.61-.51-1a9.34,9.34,0,0,1-.43-1,8.15,8.15,0,0,1-.3-1,9.31,9.31,0,0,1,2.86-1.5,16,16,0,0,1,3.81-.8,8.83,8.83,0,0,1,2.86.12,4.27,4.27,0,0,1,1.81.87,3.55,3.55,0,0,1,1,1.44,7.1,7.1,0,0,1,.42,1.84q.17,1.8.23,3.27t.2,3m-6.61,2.94a2.32,2.32,0,0,0,1.07-.34,3,3,0,0,0,.72-.64,2.36,2.36,0,0,0,.42-.77,6.25,6.25,0,0,0,.19-.72l-.28-3a17.09,17.09,0,0,0-2.32.4,3.62,3.62,0,0,0-1.38.63,1.79,1.79,0,0,0-.63.94,3.63,3.63,0,0,0-.08,1.3,2.65,2.65,0,0,0,.71,1.73,1.91,1.91,0,0,0,1.58.49"/><path class="cls-11" d="M398,402a4.17,4.17,0,0,0-.83.64,3.62,3.62,0,0,0-.82,1.43l.33,7.75a7.26,7.26,0,0,1,1.23.18,5.61,5.61,0,0,1,1.24.45l.05,1.15-8.83.37,0-1.15a5.34,5.34,0,0,1,1-.5c.32-.11.64-.22,1-.32l-.47-11.1-2-.16-.05-1.15a8.21,8.21,0,0,1,1.18-.44c.47-.14,1-.27,1.46-.38s1-.21,1.47-.29l1.2-.2,1,0,.17,4h.12a7,7,0,0,1,.66-1.42,7.42,7.42,0,0,1,1.05-1.37,5.46,5.46,0,0,1,1.36-1A3.38,3.38,0,0,1,401,398a3.79,3.79,0,0,1,.63,1.17q.28.76.46,1.45l.05,1.18Z"/><path class="cls-12" d="M400.52,299.61c0,.65,0,1.22,0,1.69s0,1,.07,1.52l3.09.53,0,1.56a8.9,8.9,0,0,1-1.48.5q-.93.24-1.95.46c-.68.15-1.35.26-2,.35s-1.25.15-1.76.2l-1.53,0a6.48,6.48,0,0,1-.48-2.07q-.06-1-.07-2.5h-.23a5.62,5.62,0,0,1-.81,1.7,6.07,6.07,0,0,1-1.41,1.43,7,7,0,0,1-2,1,7.43,7.43,0,0,1-2.53.34,8.19,8.19,0,0,1-2.73-.52,6.93,6.93,0,0,1-2.17-1.31,5.75,5.75,0,0,1-1.43-2,5.91,5.91,0,0,1-.47-2.58,6.41,6.41,0,0,1,.86-3.28,5.62,5.62,0,0,1,2.46-2.06,14.47,14.47,0,0,1,4.26-1.11,60.46,60.46,0,0,1,6.29-.41,13.49,13.49,0,0,0-.16-5.63,2.79,2.79,0,0,0-2.87-1.86,7.2,7.2,0,0,0-2.58.38l-2.26,5.29-2-.05a10.57,10.57,0,0,1-.66-1.25c-.21-.47-.41-1-.59-1.49a14.47,14.47,0,0,1-.45-1.6,13.16,13.16,0,0,1-.25-1.57,13.72,13.72,0,0,1,4.46-1.71,23.78,23.78,0,0,1,5.73-.52,13,13,0,0,1,4.17.67,6.31,6.31,0,0,1,2.5,1.58,5.26,5.26,0,0,1,1.22,2.29,10.39,10.39,0,0,1,.28,2.77q-.07,2.68-.24,4.84t-.23,4.44m-10.21,3.16a3.43,3.43,0,0,0,1.63-.31,4.49,4.49,0,0,0,1.17-.82,3.61,3.61,0,0,0,.75-1.05,10.13,10.13,0,0,0,.41-1l.12-4.46a25.47,25.47,0,0,0-3.47.18,5.36,5.36,0,0,0-2.13.68,2.66,2.66,0,0,0-1.09,1.26,5.43,5.43,0,0,0-.34,1.89,3.89,3.89,0,0,0,.74,2.65,2.82,2.82,0,0,0,2.22,1"/><path class="cls-12" d="M432.73,306.41l-11.93,0V304.7c.39-.21.77-.39,1.15-.55s.82-.33,1.33-.51l0-10.51a9.83,9.83,0,0,0-.8-4.41,3,3,0,0,0-2.88-1.59,4.29,4.29,0,0,0-2.95,1.09,6.71,6.71,0,0,0-1.87,3l0,12.43a8.16,8.16,0,0,1,1.28.43,9,9,0,0,1,1.19.65v1.69l-11.93,0v-1.69a15,15,0,0,1,3-1.07l0-16.41-3-.36v-1.69a9.41,9.41,0,0,1,1.53-.51q.95-.24,2-.46t2.25-.38q1.15-.15,2.09-.24h1.53v4.59h0a9,9,0,0,1,2.84-3.23,7.65,7.65,0,0,1,4.59-1.35,10.79,10.79,0,0,1,3.15.43,5.14,5.14,0,0,1,2.36,1.5,7.2,7.2,0,0,1,1.48,2.89,17,17,0,0,1,.51,4.58l0,10.68a7.93,7.93,0,0,1,3,1.08Z"/><path class="cls-12" d="M448.42,306.48l-12.42,0v-1.69a9.66,9.66,0,0,1,1.4-.6q.72-.24,1.58-.47l.05-16.41-3-.37v-1.69a14.94,14.94,0,0,1,1.69-.53q1-.26,2.14-.46t2.21-.35q1.08-.15,1.89-.24h1.53l-.07,20.07q.9.23,1.62.47a8.14,8.14,0,0,1,1.35.61Zm-10-29.65a3,3,0,0,1,1.08-2.45,4.71,4.71,0,0,1,5.51,0,3,3,0,0,1,1.06,2.46,3,3,0,0,1-1.07,2.41,4.71,4.71,0,0,1-5.52,0,3,3,0,0,1-1.06-2.41"/><polygon class="cls-2" points="252.77 505 256.47 514.92 267.04 515.37 258.75 521.95 261.59 532.15 252.77 526.3 243.95 532.15 246.79 521.95 238.5 515.37 249.07 514.92 252.77 505"/><path class="cls-3" d="M314.44,508.47l-3.32,10.28-10.81,0,8.75,6.33-3.36,10.27,8.73-6.37,8.73,6.37-3.36-10.27,8.75-6.33-10.81,0-3.32-10.28Zm6.43,6,20.94,0-17,12.28,6.51,19.91-16.92-12.35-16.92,12.35L304,526.71l-17-12.28,20.94,0,6.43-19.93,6.43,19.93Zm-6.43-10.18,4.25,13.18,13.85,0-11.22,8.12,4.3,13.16-11.19-8.16-11.19,8.16,4.3-13.16-11.22-8.12,13.85,0,4.25-13.18Z"/><polygon class="cls-2" points="376.67 504.56 380.37 514.48 390.94 514.93 382.65 521.51 385.49 531.71 376.67 525.86 367.85 531.71 370.69 521.51 362.4 514.93 372.97 514.48 376.67 504.56"/></g></g></svg>